<mxfile host="app.diagrams.net" modified="2024-06-01T17:14:54.251Z" agent="Mozilla/5.0 (Windows NT 10.0; Win64; x64) AppleWebKit/537.36 (KHTML, like Gecko) Chrome/125.0.0.0 Safari/537.36" etag="EmzxOkZhXHlLeCDRsPQ_" version="24.4.13" type="google">
  <diagram name="Page-1" id="JMZs1HsyY7gMTavqmTcP">
    <mxGraphModel grid="1" page="1" gridSize="10" guides="1" tooltips="1" connect="1" arrows="1" fold="1" pageScale="1" pageWidth="850" pageHeight="1100" math="0" shadow="0">
      <root>
        <mxCell id="0" />
        <mxCell id="1" parent="0" />
        <mxCell id="evleP5VsPjODWGE9lHRX-1" value="&lt;font style=&quot;font-size: 16px;&quot;&gt;12. Realice el proceso de dispersión mediante el método de hashing extensible, sabiendo&lt;br/&gt; que cada nodotiene capacidad para dos claves. El número natural indica el orden de&lt;br/&gt; llegada de las mismas. Deberá explicar los pasos que realiza en cada operación y&lt;br/&gt; dibujar los estados sucesivos correspondientes (inclusive el estado inicial).&lt;/font&gt;" style="text;whiteSpace=wrap;html=1;" vertex="1" parent="1">
          <mxGeometry x="40" y="-1040" width="680" height="90" as="geometry" />
        </mxCell>
        <mxCell id="evleP5VsPjODWGE9lHRX-2" value="&lt;font style=&quot;font-size: 20px;&quot;&gt;&lt;b&gt;Paso 0: estado inicial&lt;/b&gt;&lt;/font&gt;" style="text;html=1;align=left;verticalAlign=middle;whiteSpace=wrap;rounded=0;" vertex="1" parent="1">
          <mxGeometry x="40" y="-640" width="210" height="40" as="geometry" />
        </mxCell>
        <mxCell id="evleP5VsPjODWGE9lHRX-3" value="" style="endArrow=none;html=1;rounded=0;" edge="1" parent="1">
          <mxGeometry width="50" height="50" relative="1" as="geometry">
            <mxPoint y="-680" as="sourcePoint" />
            <mxPoint x="1000" y="-680" as="targetPoint" />
          </mxGeometry>
        </mxCell>
        <mxCell id="evleP5VsPjODWGE9lHRX-4" style="edgeStyle=orthogonalEdgeStyle;rounded=0;orthogonalLoop=1;jettySize=auto;html=1;entryX=0;entryY=0.5;entryDx=0;entryDy=0;endSize=12;startSize=12;endArrow=blockThin;endFill=1;" edge="1" parent="1" source="evleP5VsPjODWGE9lHRX-5" target="evleP5VsPjODWGE9lHRX-7">
          <mxGeometry relative="1" as="geometry" />
        </mxCell>
        <mxCell id="evleP5VsPjODWGE9lHRX-5" value="&lt;b style=&quot;font-size: 16px;&quot;&gt;Dirección&lt;/b&gt;" style="rounded=0;whiteSpace=wrap;html=1;" vertex="1" parent="1">
          <mxGeometry x="40" y="-540" width="120" height="40" as="geometry" />
        </mxCell>
        <mxCell id="evleP5VsPjODWGE9lHRX-6" value="&lt;font style=&quot;font-size: 14px;&quot;&gt;&lt;b&gt;Tabla de Memoria&lt;/b&gt;&lt;/font&gt;" style="text;html=1;align=center;verticalAlign=middle;whiteSpace=wrap;rounded=0;" vertex="1" parent="1">
          <mxGeometry x="40" y="-500" width="120" height="30" as="geometry" />
        </mxCell>
        <mxCell id="evleP5VsPjODWGE9lHRX-7" value="" style="rounded=0;whiteSpace=wrap;html=1;" vertex="1" parent="1">
          <mxGeometry x="320" y="-540" width="200" height="40" as="geometry" />
        </mxCell>
        <mxCell id="evleP5VsPjODWGE9lHRX-8" value="&lt;font style=&quot;font-size: 14px;&quot;&gt;&lt;b&gt;Cubetas en disco&lt;/b&gt;&lt;/font&gt;" style="text;html=1;align=center;verticalAlign=middle;whiteSpace=wrap;rounded=0;" vertex="1" parent="1">
          <mxGeometry x="320" y="-500" width="200" height="30" as="geometry" />
        </mxCell>
        <mxCell id="evleP5VsPjODWGE9lHRX-9" value="&lt;font style=&quot;font-size: 14px;&quot;&gt;&lt;b&gt;0&lt;/b&gt;&lt;/font&gt;" style="rounded=0;whiteSpace=wrap;html=1;fillColor=#B3B3B3;" vertex="1" parent="1">
          <mxGeometry x="40" y="-560" width="20" height="20" as="geometry" />
        </mxCell>
        <mxCell id="evleP5VsPjODWGE9lHRX-10" value="&lt;font style=&quot;font-size: 14px;&quot;&gt;&lt;b&gt;0&lt;/b&gt;&lt;/font&gt;" style="rounded=0;whiteSpace=wrap;html=1;fillColor=#B3B3B3;" vertex="1" parent="1">
          <mxGeometry x="320" y="-560" width="20" height="20" as="geometry" />
        </mxCell>
        <mxCell id="evleP5VsPjODWGE9lHRX-11" value="" style="endArrow=none;html=1;rounded=0;" edge="1" parent="1">
          <mxGeometry width="50" height="50" relative="1" as="geometry">
            <mxPoint y="-400" as="sourcePoint" />
            <mxPoint x="1000" y="-400" as="targetPoint" />
          </mxGeometry>
        </mxCell>
        <mxCell id="evleP5VsPjODWGE9lHRX-12" value="&lt;font style=&quot;font-size: 20px;&quot;&gt;&lt;font style=&quot;font-size: 20px;&quot;&gt;&lt;b style=&quot;&quot;&gt;Paso 1: llega&amp;nbsp;&lt;/b&gt;&lt;/font&gt;&lt;b style=&quot;text-align: center;&quot;&gt;Aconcagua&lt;/b&gt;&lt;/font&gt;" style="text;html=1;align=left;verticalAlign=middle;whiteSpace=wrap;rounded=0;" vertex="1" parent="1">
          <mxGeometry x="40" y="-360" width="280" height="40" as="geometry" />
        </mxCell>
        <mxCell id="evleP5VsPjODWGE9lHRX-13" style="edgeStyle=orthogonalEdgeStyle;rounded=0;orthogonalLoop=1;jettySize=auto;html=1;entryX=0;entryY=0.5;entryDx=0;entryDy=0;endSize=12;startSize=12;endArrow=blockThin;endFill=1;" edge="1" parent="1" source="evleP5VsPjODWGE9lHRX-14" target="evleP5VsPjODWGE9lHRX-15">
          <mxGeometry relative="1" as="geometry" />
        </mxCell>
        <mxCell id="evleP5VsPjODWGE9lHRX-14" value="&lt;b style=&quot;font-size: 16px;&quot;&gt;Dirección&lt;/b&gt;" style="rounded=0;whiteSpace=wrap;html=1;" vertex="1" parent="1">
          <mxGeometry x="40" y="-200" width="120" height="40" as="geometry" />
        </mxCell>
        <mxCell id="evleP5VsPjODWGE9lHRX-15" value="&lt;div&gt;&lt;span style=&quot;font-size: 18px;&quot;&gt;Aconcagua&lt;/span&gt;&lt;br&gt;&lt;/div&gt;" style="rounded=0;whiteSpace=wrap;html=1;" vertex="1" parent="1">
          <mxGeometry x="320" y="-200" width="200" height="40" as="geometry" />
        </mxCell>
        <mxCell id="evleP5VsPjODWGE9lHRX-16" value="&lt;font style=&quot;font-size: 14px;&quot;&gt;&lt;b&gt;0&lt;/b&gt;&lt;/font&gt;" style="rounded=0;whiteSpace=wrap;html=1;fillColor=#B3B3B3;" vertex="1" parent="1">
          <mxGeometry x="40" y="-220" width="20" height="20" as="geometry" />
        </mxCell>
        <mxCell id="evleP5VsPjODWGE9lHRX-17" value="&lt;font style=&quot;font-size: 14px;&quot;&gt;&lt;b&gt;0&lt;/b&gt;&lt;/font&gt;" style="rounded=0;whiteSpace=wrap;html=1;fillColor=#B3B3B3;" vertex="1" parent="1">
          <mxGeometry x="320" y="-220" width="20" height="20" as="geometry" />
        </mxCell>
        <mxCell id="evleP5VsPjODWGE9lHRX-18" value="&lt;span style=&quot;background-color: initial; font-size: 16px;&quot;&gt;- Se&amp;nbsp;&lt;/span&gt;&lt;span style=&quot;font-size: 16px;&quot;&gt;aplica&amp;nbsp;&lt;/span&gt;&lt;span style=&quot;background-color: initial; font-size: 16px;&quot;&gt;la funcion de hash y se toman 0 bits&lt;/span&gt;&lt;br&gt;&lt;span style=&quot;font-size: 16px; background-color: initial;&quot;&gt;- Aconcagua pasa directamente al unico nodo disponible&lt;/span&gt;" style="text;html=1;align=left;verticalAlign=middle;whiteSpace=wrap;rounded=0;" vertex="1" parent="1">
          <mxGeometry x="560" y="-240" width="410" height="80" as="geometry" />
        </mxCell>
        <mxCell id="evleP5VsPjODWGE9lHRX-19" value="" style="group" connectable="0" vertex="1" parent="1">
          <mxGeometry x="80" y="-320" width="280" height="40" as="geometry" />
        </mxCell>
        <mxCell id="evleP5VsPjODWGE9lHRX-20" value="&lt;b&gt;10100111&lt;/b&gt;" style="rounded=0;whiteSpace=wrap;html=1;align=center;fontSize=18;" vertex="1" parent="evleP5VsPjODWGE9lHRX-19">
          <mxGeometry x="160" width="120" height="40" as="geometry" />
        </mxCell>
        <mxCell id="evleP5VsPjODWGE9lHRX-21" value="&lt;b&gt;Aconcagua&lt;/b&gt;" style="rounded=0;whiteSpace=wrap;html=1;align=center;fontSize=18;" vertex="1" parent="evleP5VsPjODWGE9lHRX-19">
          <mxGeometry width="160" height="40" as="geometry" />
        </mxCell>
        <mxCell id="evleP5VsPjODWGE9lHRX-22" value="" style="endArrow=none;html=1;rounded=0;" edge="1" parent="1">
          <mxGeometry width="50" height="50" relative="1" as="geometry">
            <mxPoint y="-80" as="sourcePoint" />
            <mxPoint x="1000" y="-80" as="targetPoint" />
          </mxGeometry>
        </mxCell>
        <mxCell id="evleP5VsPjODWGE9lHRX-23" value="&lt;b&gt;1&lt;/b&gt;" style="rounded=0;whiteSpace=wrap;html=1;align=center;fontSize=18;" vertex="1" parent="1">
          <mxGeometry x="40" y="-320" width="40" height="40" as="geometry" />
        </mxCell>
        <mxCell id="evleP5VsPjODWGE9lHRX-24" value="&lt;div style=&quot;text-align: center; font-size: 20px;&quot;&gt;&lt;b style=&quot;background-color: initial;&quot;&gt;Paso 2: llega&amp;nbsp;&lt;/b&gt;&lt;b style=&quot;background-color: initial;&quot;&gt;Kilimanjaro&lt;/b&gt;&lt;/div&gt;" style="text;html=1;align=left;verticalAlign=middle;whiteSpace=wrap;rounded=0;" vertex="1" parent="1">
          <mxGeometry x="40" y="-40" width="280" height="40" as="geometry" />
        </mxCell>
        <mxCell id="evleP5VsPjODWGE9lHRX-25" style="edgeStyle=orthogonalEdgeStyle;rounded=0;orthogonalLoop=1;jettySize=auto;html=1;entryX=0;entryY=0.5;entryDx=0;entryDy=0;endSize=12;startSize=12;endArrow=blockThin;endFill=1;" edge="1" parent="1" source="evleP5VsPjODWGE9lHRX-26" target="evleP5VsPjODWGE9lHRX-27">
          <mxGeometry relative="1" as="geometry" />
        </mxCell>
        <mxCell id="evleP5VsPjODWGE9lHRX-26" value="&lt;b style=&quot;font-size: 16px;&quot;&gt;Dirección&lt;/b&gt;" style="rounded=0;whiteSpace=wrap;html=1;" vertex="1" parent="1">
          <mxGeometry x="40" y="120" width="120" height="40" as="geometry" />
        </mxCell>
        <mxCell id="evleP5VsPjODWGE9lHRX-27" value="&lt;font style=&quot;font-size: 17px;&quot;&gt;Aconcagua |&amp;nbsp;Kilimanjaro&lt;/font&gt;" style="rounded=0;whiteSpace=wrap;html=1;" vertex="1" parent="1">
          <mxGeometry x="320" y="120" width="200" height="40" as="geometry" />
        </mxCell>
        <mxCell id="evleP5VsPjODWGE9lHRX-28" value="&lt;font style=&quot;font-size: 14px;&quot;&gt;&lt;b&gt;0&lt;/b&gt;&lt;/font&gt;" style="rounded=0;whiteSpace=wrap;html=1;fillColor=#B3B3B3;" vertex="1" parent="1">
          <mxGeometry x="40" y="100" width="20" height="20" as="geometry" />
        </mxCell>
        <mxCell id="evleP5VsPjODWGE9lHRX-29" value="&lt;font style=&quot;font-size: 14px;&quot;&gt;&lt;b&gt;0&lt;/b&gt;&lt;/font&gt;" style="rounded=0;whiteSpace=wrap;html=1;fillColor=#B3B3B3;" vertex="1" parent="1">
          <mxGeometry x="320" y="100" width="20" height="20" as="geometry" />
        </mxCell>
        <mxCell id="evleP5VsPjODWGE9lHRX-30" value="&lt;span style=&quot;background-color: initial; font-size: 16px;&quot;&gt;- Se&amp;nbsp;&lt;/span&gt;&lt;span style=&quot;font-size: 16px;&quot;&gt;aplica&amp;nbsp;&lt;/span&gt;&lt;span style=&quot;background-color: initial; font-size: 16px;&quot;&gt;la funcion de hash y se toman 0 bits&lt;/span&gt;&lt;div&gt;&lt;span style=&quot;font-size: 16px; background-color: initial;&quot;&gt;- Kilimanjaro pasa directamente al unico nodo disponible&lt;/span&gt;&lt;/div&gt;&lt;div&gt;&lt;span style=&quot;font-size: 16px;&quot;&gt;- Se produce una colision&lt;/span&gt;&lt;span style=&quot;font-size: 16px; background-color: initial;&quot;&gt;&lt;br&gt;&lt;/span&gt;&lt;/div&gt;&lt;div&gt;&lt;div&gt;&lt;span style=&quot;font-size: 16px;&quot;&gt;- Como hay espacio se inserta normalmente&lt;br&gt;&lt;/span&gt;&lt;/div&gt;&lt;/div&gt;&lt;div&gt;&lt;span style=&quot;font-size: 16px;&quot;&gt;&lt;br&gt;&lt;/span&gt;&lt;/div&gt;" style="text;html=1;align=left;verticalAlign=middle;whiteSpace=wrap;rounded=0;" vertex="1" parent="1">
          <mxGeometry x="560" y="80" width="420" height="120" as="geometry" />
        </mxCell>
        <mxCell id="evleP5VsPjODWGE9lHRX-31" value="" style="group" connectable="0" vertex="1" parent="1">
          <mxGeometry x="80" width="280" height="40" as="geometry" />
        </mxCell>
        <mxCell id="evleP5VsPjODWGE9lHRX-32" value="&lt;b&gt;10101010&lt;/b&gt;" style="rounded=0;whiteSpace=wrap;html=1;align=center;fontSize=18;" vertex="1" parent="evleP5VsPjODWGE9lHRX-31">
          <mxGeometry x="160" width="120" height="40" as="geometry" />
        </mxCell>
        <mxCell id="evleP5VsPjODWGE9lHRX-33" value="&lt;b&gt;Kilimanjaro&lt;/b&gt;" style="rounded=0;whiteSpace=wrap;html=1;align=center;fontSize=18;" vertex="1" parent="evleP5VsPjODWGE9lHRX-31">
          <mxGeometry width="160" height="40" as="geometry" />
        </mxCell>
        <mxCell id="evleP5VsPjODWGE9lHRX-34" value="" style="endArrow=none;html=1;rounded=0;" edge="1" parent="1">
          <mxGeometry width="50" height="50" relative="1" as="geometry">
            <mxPoint y="240" as="sourcePoint" />
            <mxPoint x="1000" y="240" as="targetPoint" />
          </mxGeometry>
        </mxCell>
        <mxCell id="evleP5VsPjODWGE9lHRX-35" value="&lt;b&gt;2&lt;/b&gt;" style="rounded=0;whiteSpace=wrap;html=1;align=center;fontSize=18;" vertex="1" parent="1">
          <mxGeometry x="40" width="40" height="40" as="geometry" />
        </mxCell>
        <mxCell id="evleP5VsPjODWGE9lHRX-36" value="&lt;div style=&quot;text-align: center; font-size: 20px;&quot;&gt;&lt;b style=&quot;background-color: initial;&quot;&gt;Paso 3: llega&amp;nbsp;&lt;/b&gt;&lt;b style=&quot;background-color: initial;&quot;&gt;Mont Blanc&lt;/b&gt;&lt;/div&gt;" style="text;html=1;align=left;verticalAlign=middle;whiteSpace=wrap;rounded=0;" vertex="1" parent="1">
          <mxGeometry x="40" y="280" width="280" height="40" as="geometry" />
        </mxCell>
        <mxCell id="evleP5VsPjODWGE9lHRX-38" value="&lt;span style=&quot;font-size: 17px;&quot;&gt;Kilimanjaro | Mont Blanc&lt;/span&gt;" style="rounded=0;whiteSpace=wrap;html=1;" vertex="1" parent="1">
          <mxGeometry x="320" y="440" width="200" height="40" as="geometry" />
        </mxCell>
        <mxCell id="evleP5VsPjODWGE9lHRX-40" value="&lt;font style=&quot;font-size: 14px;&quot;&gt;&lt;b&gt;1&lt;/b&gt;&lt;/font&gt;" style="rounded=0;whiteSpace=wrap;html=1;fillColor=#B3B3B3;" vertex="1" parent="1">
          <mxGeometry x="320" y="420" width="20" height="20" as="geometry" />
        </mxCell>
        <mxCell id="evleP5VsPjODWGE9lHRX-41" value="&lt;span style=&quot;background-color: initial; font-size: 16px;&quot;&gt;- Se&amp;nbsp;&lt;/span&gt;&lt;span style=&quot;font-size: 16px;&quot;&gt;aplica&amp;nbsp;&lt;/span&gt;&lt;span style=&quot;background-color: initial; font-size: 16px;&quot;&gt;la funcion de hash y se toman 0 bits&lt;/span&gt;&lt;div&gt;&lt;span style=&quot;font-size: 16px; background-color: initial;&quot;&gt;- Mont Blanc pasa directamente al unico nodo disponible&lt;/span&gt;&lt;/div&gt;&lt;div&gt;&lt;span style=&quot;font-size: 16px;&quot;&gt;- Se produce una&amp;nbsp;&lt;/span&gt;&lt;span style=&quot;font-size: 16px; background-color: initial;&quot;&gt;colisión&lt;/span&gt;&lt;span style=&quot;font-size: 16px; background-color: initial;&quot;&gt;&lt;br&gt;&lt;/span&gt;&lt;/div&gt;&lt;div&gt;&lt;div&gt;&lt;span style=&quot;font-size: 16px;&quot;&gt;- Como no cabe en el nodo se produce un&amp;nbsp;&lt;/span&gt;&lt;span style=&quot;font-size: 16px; background-color: initial;&quot;&gt;overflow&lt;/span&gt;&lt;/div&gt;&lt;/div&gt;&lt;div&gt;&lt;span style=&quot;font-size: 16px;&quot;&gt;&lt;br&gt;&lt;/span&gt;&lt;/div&gt;&lt;div&gt;&lt;span style=&quot;font-size: 16px; background-color: initial;&quot;&gt;- Se suma 1 al valor del nodo con overflow&lt;/span&gt;&lt;br&gt;&lt;/div&gt;&lt;div&gt;&lt;span style=&quot;font-size: 16px;&quot;&gt;- Se crea un nuevo nodo con este mismo valor&lt;/span&gt;&lt;/div&gt;&lt;div&gt;&lt;span style=&quot;font-size: 16px;&quot;&gt;&lt;br&gt;&lt;/span&gt;&lt;/div&gt;&lt;div&gt;&lt;span style=&quot;font-size: 16px;&quot;&gt;- Se compara el valor del nodo con el valor de la tabla&lt;/span&gt;&lt;/div&gt;&lt;div&gt;&lt;span style=&quot;font-size: 16px;&quot;&gt;-&amp;nbsp;&lt;/span&gt;&lt;span style=&quot;background-color: initial; font-size: 16px;&quot;&gt;Como el numero de la tabla es menor al del nodo, duplicamos el tamaño de la tabla&amp;nbsp;&lt;/span&gt;&lt;span style=&quot;background-color: initial; font-size: 16px;&quot;&gt;y aumentamos el numero de bits&lt;/span&gt;&lt;/div&gt;&lt;div&gt;&lt;span style=&quot;background-color: initial; font-size: 16px;&quot;&gt;&lt;br&gt;&lt;/span&gt;&lt;/div&gt;&lt;div&gt;&lt;span style=&quot;font-size: 16px;&quot;&gt;&amp;nbsp;&lt;/span&gt;&lt;span style=&quot;background-color: initial; font-size: 16px;&quot;&gt;- Se toma&amp;nbsp;&lt;/span&gt;&lt;b style=&quot;background-color: initial; font-size: 16px;&quot;&gt;&lt;font color=&quot;#ff99cc&quot;&gt;1 bit&amp;nbsp;&lt;/font&gt;&lt;/b&gt;&lt;span style=&quot;background-color: initial; font-size: 16px;&quot;&gt;de la funcion de hash asociada a cada clave&lt;/span&gt;&lt;/div&gt;&lt;div&gt;&lt;span style=&quot;font-size: 16px;&quot;&gt;- Reacomodamos las direcciones y los registros&lt;/span&gt;&lt;/div&gt;&lt;div&gt;&lt;span style=&quot;font-size: 16px;&quot;&gt;&lt;br&gt;&lt;/span&gt;&lt;/div&gt;" style="text;html=1;align=left;verticalAlign=middle;whiteSpace=wrap;rounded=0;" vertex="1" parent="1">
          <mxGeometry x="560" y="280" width="410" height="360" as="geometry" />
        </mxCell>
        <mxCell id="evleP5VsPjODWGE9lHRX-42" value="" style="group" connectable="0" vertex="1" parent="1">
          <mxGeometry x="80" y="320" width="280" height="40" as="geometry" />
        </mxCell>
        <mxCell id="evleP5VsPjODWGE9lHRX-43" value="&lt;b&gt;00111110&lt;/b&gt;" style="rounded=0;whiteSpace=wrap;html=1;align=center;fontSize=18;" vertex="1" parent="evleP5VsPjODWGE9lHRX-42">
          <mxGeometry x="160" width="120" height="40" as="geometry" />
        </mxCell>
        <mxCell id="evleP5VsPjODWGE9lHRX-44" value="&lt;b&gt;Mont Blanc&lt;/b&gt;" style="rounded=0;whiteSpace=wrap;html=1;align=center;fontSize=18;" vertex="1" parent="evleP5VsPjODWGE9lHRX-42">
          <mxGeometry width="160" height="40" as="geometry" />
        </mxCell>
        <mxCell id="evleP5VsPjODWGE9lHRX-45" value="" style="endArrow=none;html=1;rounded=0;" edge="1" parent="1">
          <mxGeometry width="50" height="50" relative="1" as="geometry">
            <mxPoint y="840" as="sourcePoint" />
            <mxPoint x="1000" y="840" as="targetPoint" />
          </mxGeometry>
        </mxCell>
        <mxCell id="evleP5VsPjODWGE9lHRX-46" value="&lt;b&gt;3&lt;/b&gt;" style="rounded=0;whiteSpace=wrap;html=1;align=center;fontSize=18;" vertex="1" parent="1">
          <mxGeometry x="40" y="320" width="40" height="40" as="geometry" />
        </mxCell>
        <mxCell id="evleP5VsPjODWGE9lHRX-47" value="&lt;span style=&quot;font-size: 17px;&quot;&gt;Aconcagua |&amp;nbsp;&lt;/span&gt;" style="rounded=0;whiteSpace=wrap;html=1;" vertex="1" parent="1">
          <mxGeometry x="320" y="540" width="200" height="40" as="geometry" />
        </mxCell>
        <mxCell id="evleP5VsPjODWGE9lHRX-48" value="&lt;font style=&quot;font-size: 14px;&quot;&gt;&lt;b&gt;1&lt;/b&gt;&lt;/font&gt;" style="rounded=0;whiteSpace=wrap;html=1;fillColor=#B3B3B3;" vertex="1" parent="1">
          <mxGeometry x="320" y="520" width="20" height="20" as="geometry" />
        </mxCell>
        <mxCell id="evleP5VsPjODWGE9lHRX-50" value="" style="endArrow=classic;html=1;rounded=0;exitX=1;exitY=0.5;exitDx=0;exitDy=0;endSize=12;startSize=12;entryX=0;entryY=0.5;entryDx=0;entryDy=0;" edge="1" parent="1" target="evleP5VsPjODWGE9lHRX-38">
          <mxGeometry width="50" height="50" relative="1" as="geometry">
            <mxPoint x="160" y="460" as="sourcePoint" />
            <mxPoint x="330" y="490" as="targetPoint" />
          </mxGeometry>
        </mxCell>
        <mxCell id="evleP5VsPjODWGE9lHRX-51" value="" style="endArrow=classic;html=1;rounded=0;exitX=1;exitY=0.5;exitDx=0;exitDy=0;endSize=12;startSize=12;entryX=0;entryY=0.5;entryDx=0;entryDy=0;" edge="1" parent="1" target="evleP5VsPjODWGE9lHRX-47">
          <mxGeometry width="50" height="50" relative="1" as="geometry">
            <mxPoint x="160" y="500" as="sourcePoint" />
            <mxPoint x="330" y="470" as="targetPoint" />
          </mxGeometry>
        </mxCell>
        <mxCell id="evleP5VsPjODWGE9lHRX-52" value="" style="group" connectable="0" vertex="1" parent="1">
          <mxGeometry x="640" y="640" width="280" height="40" as="geometry" />
        </mxCell>
        <mxCell id="evleP5VsPjODWGE9lHRX-53" value="&lt;b&gt;1010011&lt;/b&gt;&lt;b&gt;&lt;font color=&quot;#ff99cc&quot;&gt;1&lt;/font&gt;&lt;/b&gt;" style="rounded=0;whiteSpace=wrap;html=1;align=center;fontSize=18;" vertex="1" parent="evleP5VsPjODWGE9lHRX-52">
          <mxGeometry x="160" width="120" height="40" as="geometry" />
        </mxCell>
        <mxCell id="evleP5VsPjODWGE9lHRX-54" value="&lt;b&gt;Aconcagua&lt;/b&gt;" style="rounded=0;whiteSpace=wrap;html=1;align=center;fontSize=18;" vertex="1" parent="evleP5VsPjODWGE9lHRX-52">
          <mxGeometry width="160" height="40" as="geometry" />
        </mxCell>
        <mxCell id="evleP5VsPjODWGE9lHRX-55" value="1" style="rounded=0;whiteSpace=wrap;html=1;align=center;fontSize=18;fontStyle=1" vertex="1" parent="1">
          <mxGeometry x="600" y="640" width="40" height="40" as="geometry" />
        </mxCell>
        <mxCell id="evleP5VsPjODWGE9lHRX-56" value="" style="group" connectable="0" vertex="1" parent="1">
          <mxGeometry x="640" y="680" width="280" height="40" as="geometry" />
        </mxCell>
        <mxCell id="evleP5VsPjODWGE9lHRX-57" value="&lt;b&gt;1010101&lt;/b&gt;&lt;b&gt;&lt;font color=&quot;#ff99cc&quot;&gt;0&lt;/font&gt;&lt;/b&gt;" style="rounded=0;whiteSpace=wrap;html=1;align=center;fontSize=18;" vertex="1" parent="evleP5VsPjODWGE9lHRX-56">
          <mxGeometry x="160" width="120" height="40" as="geometry" />
        </mxCell>
        <mxCell id="evleP5VsPjODWGE9lHRX-58" value="&lt;b&gt;Kilimanjaro&lt;/b&gt;" style="rounded=0;whiteSpace=wrap;html=1;align=center;fontSize=18;" vertex="1" parent="evleP5VsPjODWGE9lHRX-56">
          <mxGeometry width="160" height="40" as="geometry" />
        </mxCell>
        <mxCell id="evleP5VsPjODWGE9lHRX-59" value="&lt;b&gt;2&lt;/b&gt;" style="rounded=0;whiteSpace=wrap;html=1;align=center;fontSize=18;" vertex="1" parent="1">
          <mxGeometry x="600" y="680" width="40" height="40" as="geometry" />
        </mxCell>
        <mxCell id="evleP5VsPjODWGE9lHRX-60" value="" style="group" connectable="0" vertex="1" parent="1">
          <mxGeometry x="640" y="720" width="280" height="40" as="geometry" />
        </mxCell>
        <mxCell id="evleP5VsPjODWGE9lHRX-61" value="&lt;b&gt;0011111&lt;/b&gt;&lt;b&gt;&lt;font color=&quot;#ff99cc&quot;&gt;0&lt;/font&gt;&lt;/b&gt;" style="rounded=0;whiteSpace=wrap;html=1;align=center;fontSize=18;" vertex="1" parent="evleP5VsPjODWGE9lHRX-60">
          <mxGeometry x="160" width="120" height="40" as="geometry" />
        </mxCell>
        <mxCell id="evleP5VsPjODWGE9lHRX-62" value="&lt;b&gt;Mont Blanc&lt;/b&gt;" style="rounded=0;whiteSpace=wrap;html=1;align=center;fontSize=18;" vertex="1" parent="evleP5VsPjODWGE9lHRX-60">
          <mxGeometry width="160" height="40" as="geometry" />
        </mxCell>
        <mxCell id="evleP5VsPjODWGE9lHRX-63" value="3" style="rounded=0;whiteSpace=wrap;html=1;align=center;fontSize=18;fontStyle=1" vertex="1" parent="1">
          <mxGeometry x="600" y="720" width="40" height="40" as="geometry" />
        </mxCell>
        <mxCell id="evleP5VsPjODWGE9lHRX-64" value="&lt;div style=&quot;text-align: center;&quot;&gt;&lt;b style=&quot;font-size: 20px; background-color: initial;&quot;&gt;Paso 4: llega&amp;nbsp;&lt;/b&gt;&lt;b style=&quot;background-color: initial;&quot;&gt;&lt;font style=&quot;font-size: 20px;&quot;&gt;Cervino&lt;/font&gt;&lt;/b&gt;&lt;/div&gt;" style="text;html=1;align=left;verticalAlign=middle;whiteSpace=wrap;rounded=0;" vertex="1" parent="1">
          <mxGeometry x="40" y="880" width="280" height="40" as="geometry" />
        </mxCell>
        <mxCell id="evleP5VsPjODWGE9lHRX-69" value="&lt;div&gt;&lt;span style=&quot;background-color: initial; font-size: 16px;&quot;&gt;- Se&amp;nbsp;&lt;/span&gt;&lt;span style=&quot;font-size: 16px;&quot;&gt;aplica&amp;nbsp;&lt;/span&gt;&lt;span style=&quot;background-color: initial; font-size: 16px;&quot;&gt;la funcion de hash y se toma 1 bit&lt;/span&gt;&lt;div&gt;&lt;span style=&quot;font-size: 16px; background-color: initial;&quot;&gt;- Cervino pasa al nodo con direccion 1&lt;/span&gt;&lt;/div&gt;&lt;div&gt;&lt;span style=&quot;font-size: 16px;&quot;&gt;- Se produce una colision&lt;/span&gt;&lt;span style=&quot;font-size: 16px; background-color: initial;&quot;&gt;&lt;br&gt;&lt;/span&gt;&lt;/div&gt;&lt;div&gt;&lt;span style=&quot;font-size: 16px;&quot;&gt;- Como hay espacio se inserta normalmente&lt;br&gt;&lt;/span&gt;&lt;/div&gt;&lt;/div&gt;&lt;div&gt;&lt;span style=&quot;font-size: 16px;&quot;&gt;&lt;br&gt;&lt;/span&gt;&lt;/div&gt;" style="text;html=1;align=left;verticalAlign=middle;whiteSpace=wrap;rounded=0;" vertex="1" parent="1">
          <mxGeometry x="560" y="880" width="410" height="320" as="geometry" />
        </mxCell>
        <mxCell id="evleP5VsPjODWGE9lHRX-70" value="" style="group" connectable="0" vertex="1" parent="1">
          <mxGeometry x="80" y="920" width="280" height="40" as="geometry" />
        </mxCell>
        <mxCell id="evleP5VsPjODWGE9lHRX-71" value="&lt;b&gt;01101111&lt;/b&gt;" style="rounded=0;whiteSpace=wrap;html=1;align=center;fontSize=18;" vertex="1" parent="evleP5VsPjODWGE9lHRX-70">
          <mxGeometry x="160" width="120" height="40" as="geometry" />
        </mxCell>
        <mxCell id="evleP5VsPjODWGE9lHRX-72" value="&lt;b&gt;Cervino&lt;/b&gt;" style="rounded=0;whiteSpace=wrap;html=1;align=center;fontSize=18;" vertex="1" parent="evleP5VsPjODWGE9lHRX-70">
          <mxGeometry width="160" height="40" as="geometry" />
        </mxCell>
        <mxCell id="evleP5VsPjODWGE9lHRX-73" value="" style="endArrow=none;html=1;rounded=0;" edge="1" parent="1">
          <mxGeometry width="50" height="50" relative="1" as="geometry">
            <mxPoint y="1280" as="sourcePoint" />
            <mxPoint x="1000" y="1280" as="targetPoint" />
          </mxGeometry>
        </mxCell>
        <mxCell id="evleP5VsPjODWGE9lHRX-74" value="&lt;b&gt;4&lt;/b&gt;" style="rounded=0;whiteSpace=wrap;html=1;align=center;fontSize=18;" vertex="1" parent="1">
          <mxGeometry x="40" y="920" width="40" height="40" as="geometry" />
        </mxCell>
        <mxCell id="evleP5VsPjODWGE9lHRX-89" value="&lt;div style=&quot;text-align: center;&quot;&gt;&lt;b style=&quot;font-size: 20px; background-color: initial;&quot;&gt;Paso 5: llega Etna&lt;/b&gt;&lt;/div&gt;" style="text;html=1;align=left;verticalAlign=middle;whiteSpace=wrap;rounded=0;" vertex="1" parent="1">
          <mxGeometry x="40" y="1320" width="280" height="40" as="geometry" />
        </mxCell>
        <mxCell id="evleP5VsPjODWGE9lHRX-91" value="&lt;span style=&quot;font-size: 17px;&quot;&gt;Kilimanjaro | Mont Blanc&lt;/span&gt;" style="rounded=0;whiteSpace=wrap;html=1;" vertex="1" parent="1">
          <mxGeometry x="320" y="1480" width="200" height="40" as="geometry" />
        </mxCell>
        <mxCell id="evleP5VsPjODWGE9lHRX-93" value="&lt;font style=&quot;font-size: 14px;&quot;&gt;&lt;b&gt;1&lt;/b&gt;&lt;/font&gt;" style="rounded=0;whiteSpace=wrap;html=1;fillColor=#B3B3B3;" vertex="1" parent="1">
          <mxGeometry x="320" y="1460" width="20" height="20" as="geometry" />
        </mxCell>
        <mxCell id="evleP5VsPjODWGE9lHRX-94" value="" style="group" connectable="0" vertex="1" parent="1">
          <mxGeometry x="80" y="1360" width="280" height="40" as="geometry" />
        </mxCell>
        <mxCell id="evleP5VsPjODWGE9lHRX-95" value="&lt;b&gt;00110101&lt;/b&gt;" style="rounded=0;whiteSpace=wrap;html=1;align=center;fontSize=18;" vertex="1" parent="evleP5VsPjODWGE9lHRX-94">
          <mxGeometry x="160" width="120" height="40" as="geometry" />
        </mxCell>
        <mxCell id="evleP5VsPjODWGE9lHRX-96" value="&lt;b&gt;Etna&lt;/b&gt;" style="rounded=0;whiteSpace=wrap;html=1;align=center;fontSize=18;" vertex="1" parent="evleP5VsPjODWGE9lHRX-94">
          <mxGeometry width="160" height="40" as="geometry" />
        </mxCell>
        <mxCell id="evleP5VsPjODWGE9lHRX-97" value="" style="endArrow=none;html=1;rounded=0;" edge="1" parent="1">
          <mxGeometry width="50" height="50" relative="1" as="geometry">
            <mxPoint y="1920" as="sourcePoint" />
            <mxPoint x="1000" y="1920" as="targetPoint" />
          </mxGeometry>
        </mxCell>
        <mxCell id="evleP5VsPjODWGE9lHRX-98" value="5" style="rounded=0;whiteSpace=wrap;html=1;align=center;fontSize=18;fontStyle=1" vertex="1" parent="1">
          <mxGeometry x="40" y="1360" width="40" height="40" as="geometry" />
        </mxCell>
        <mxCell id="evleP5VsPjODWGE9lHRX-99" value="&lt;span style=&quot;font-size: 17px;&quot;&gt;Aconcagua | Cervino&lt;/span&gt;" style="rounded=0;whiteSpace=wrap;html=1;" vertex="1" parent="1">
          <mxGeometry x="320" y="1640" width="200" height="40" as="geometry" />
        </mxCell>
        <mxCell id="evleP5VsPjODWGE9lHRX-100" value="&lt;font style=&quot;font-size: 14px;&quot;&gt;&lt;b&gt;2&lt;/b&gt;&lt;/font&gt;" style="rounded=0;whiteSpace=wrap;html=1;fillColor=#B3B3B3;" vertex="1" parent="1">
          <mxGeometry x="320" y="1620" width="20" height="20" as="geometry" />
        </mxCell>
        <mxCell id="evleP5VsPjODWGE9lHRX-102" value="" style="endArrow=classic;html=1;rounded=0;exitX=1;exitY=0.5;exitDx=0;exitDy=0;endSize=12;startSize=12;entryX=0;entryY=0.5;entryDx=0;entryDy=0;" edge="1" parent="1" target="evleP5VsPjODWGE9lHRX-91">
          <mxGeometry width="50" height="50" relative="1" as="geometry">
            <mxPoint x="160" y="1500" as="sourcePoint" />
            <mxPoint x="330" y="1530" as="targetPoint" />
          </mxGeometry>
        </mxCell>
        <mxCell id="evleP5VsPjODWGE9lHRX-103" value="" style="endArrow=classic;html=1;rounded=0;exitX=1;exitY=0.5;exitDx=0;exitDy=0;endSize=12;startSize=12;entryX=0;entryY=0.5;entryDx=0;entryDy=0;" edge="1" parent="1" target="evleP5VsPjODWGE9lHRX-104">
          <mxGeometry width="50" height="50" relative="1" as="geometry">
            <mxPoint x="160" y="1580" as="sourcePoint" />
            <mxPoint x="330" y="1510" as="targetPoint" />
          </mxGeometry>
        </mxCell>
        <mxCell id="evleP5VsPjODWGE9lHRX-104" value="&lt;span style=&quot;font-size: 18px;&quot;&gt;Etna&lt;/span&gt;" style="rounded=0;whiteSpace=wrap;html=1;" vertex="1" parent="1">
          <mxGeometry x="320" y="1560" width="200" height="40" as="geometry" />
        </mxCell>
        <mxCell id="evleP5VsPjODWGE9lHRX-105" value="&lt;font style=&quot;font-size: 14px;&quot;&gt;&lt;b&gt;2&lt;/b&gt;&lt;/font&gt;" style="rounded=0;whiteSpace=wrap;html=1;fillColor=#B3B3B3;" vertex="1" parent="1">
          <mxGeometry x="320" y="1540" width="20" height="20" as="geometry" />
        </mxCell>
        <mxCell id="evleP5VsPjODWGE9lHRX-108" value="" style="endArrow=classic;html=1;rounded=0;exitX=1;exitY=0.5;exitDx=0;exitDy=0;endSize=12;startSize=12;entryX=0;entryY=0.5;entryDx=0;entryDy=0;" edge="1" parent="1" target="evleP5VsPjODWGE9lHRX-91">
          <mxGeometry width="50" height="50" relative="1" as="geometry">
            <mxPoint x="160" y="1540" as="sourcePoint" />
            <mxPoint x="330" y="1510" as="targetPoint" />
          </mxGeometry>
        </mxCell>
        <mxCell id="evleP5VsPjODWGE9lHRX-109" value="&lt;div style=&quot;text-align: center;&quot;&gt;&lt;b style=&quot;background-color: initial; font-size: 20px;&quot;&gt;Paso 6: llega Chañi&lt;/b&gt;&lt;br&gt;&lt;/div&gt;" style="text;html=1;align=left;verticalAlign=middle;whiteSpace=wrap;rounded=0;" vertex="1" parent="1">
          <mxGeometry x="40" y="1960" width="280" height="40" as="geometry" />
        </mxCell>
        <mxCell id="evleP5VsPjODWGE9lHRX-110" value="&lt;div&gt;&lt;span style=&quot;background-color: initial; font-size: 16px;&quot;&gt;- Se&amp;nbsp;&lt;/span&gt;&lt;span style=&quot;font-size: 16px;&quot;&gt;aplica&amp;nbsp;&lt;/span&gt;&lt;span style=&quot;background-color: initial; font-size: 16px;&quot;&gt;la funcion de hash y se toman 2 bits&lt;/span&gt;&lt;div&gt;&lt;span style=&quot;font-size: 16px; background-color: initial;&quot;&gt;- Chañi pasa al nodo con direccion 00&lt;/span&gt;&lt;/div&gt;&lt;div&gt;&lt;span style=&quot;font-size: 16px;&quot;&gt;- Se produce una&amp;nbsp;&lt;/span&gt;&lt;span style=&quot;font-size: 16px; background-color: initial;&quot;&gt;colisión&lt;/span&gt;&lt;span style=&quot;font-size: 16px; background-color: initial;&quot;&gt;&lt;br&gt;&lt;/span&gt;&lt;/div&gt;&lt;div&gt;&lt;span style=&quot;font-size: 16px;&quot;&gt;- Como no cabe en el nodo se produce un&amp;nbsp;&lt;/span&gt;&lt;span style=&quot;font-size: 16px; background-color: initial;&quot;&gt;overflow&lt;/span&gt;&lt;/div&gt;&lt;div&gt;&lt;span style=&quot;font-size: 16px;&quot;&gt;&lt;br&gt;&lt;/span&gt;&lt;/div&gt;&lt;div&gt;&lt;span style=&quot;font-size: 16px; background-color: initial;&quot;&gt;- Se suma 1 al valor del nodo con overflow&lt;/span&gt;&lt;br&gt;&lt;/div&gt;&lt;div&gt;&lt;span style=&quot;font-size: 16px;&quot;&gt;- Se crea un nuevo nodo con este mismo valor&lt;/span&gt;&lt;/div&gt;&lt;div&gt;&lt;span style=&quot;font-size: 16px;&quot;&gt;&lt;br&gt;&lt;/span&gt;&lt;/div&gt;&lt;div&gt;&lt;span style=&quot;font-size: 16px;&quot;&gt;- Se compara el valor del nodo con el valor de la tabla&lt;/span&gt;&lt;/div&gt;&lt;div&gt;&lt;span style=&quot;font-size: 16px;&quot;&gt;-&amp;nbsp;&lt;/span&gt;&lt;span style=&quot;background-color: initial; font-size: 16px;&quot;&gt;Como el numero de la tabla no es menor al del nodo, no se modifica la tabla&lt;/span&gt;&lt;br&gt;&lt;/div&gt;&lt;div&gt;&lt;span style=&quot;background-color: initial; font-size: 16px;&quot;&gt;&lt;br&gt;&lt;/span&gt;&lt;/div&gt;&lt;div&gt;&lt;span style=&quot;font-size: 16px;&quot;&gt;&amp;nbsp;&lt;/span&gt;&lt;span style=&quot;background-color: initial; font-size: 16px;&quot;&gt;- Se toman&amp;nbsp;&lt;/span&gt;&lt;b style=&quot;background-color: initial; font-size: 16px;&quot;&gt;&lt;font color=&quot;#ff99cc&quot;&gt;2 bits&amp;nbsp;&lt;/font&gt;&lt;/b&gt;&lt;span style=&quot;background-color: initial; font-size: 16px;&quot;&gt;de la funcion de hash asociada a cada clave&lt;/span&gt;&lt;/div&gt;&lt;div&gt;&lt;span style=&quot;font-size: 16px;&quot;&gt;- Reacomodamos las direcciones y los registros&lt;/span&gt;&lt;/div&gt;&lt;/div&gt;&lt;div&gt;&lt;span style=&quot;font-size: 16px;&quot;&gt;&lt;br&gt;&lt;/span&gt;&lt;/div&gt;" style="text;html=1;align=left;verticalAlign=middle;whiteSpace=wrap;rounded=0;" vertex="1" parent="1">
          <mxGeometry x="560" y="2000" width="400" height="420" as="geometry" />
        </mxCell>
        <mxCell id="evleP5VsPjODWGE9lHRX-111" value="" style="group" connectable="0" vertex="1" parent="1">
          <mxGeometry x="80" y="2000" width="280" height="40" as="geometry" />
        </mxCell>
        <mxCell id="evleP5VsPjODWGE9lHRX-112" value="&lt;b&gt;11110000&lt;/b&gt;" style="rounded=0;whiteSpace=wrap;html=1;align=center;fontSize=18;" vertex="1" parent="evleP5VsPjODWGE9lHRX-111">
          <mxGeometry x="160" width="120" height="40" as="geometry" />
        </mxCell>
        <mxCell id="evleP5VsPjODWGE9lHRX-113" value="&lt;b style=&quot;background-color: initial;&quot;&gt;&lt;font style=&quot;font-size: 18px;&quot;&gt;Chañi&lt;/font&gt;&lt;/b&gt;" style="rounded=0;whiteSpace=wrap;html=1;align=center;fontSize=18;" vertex="1" parent="evleP5VsPjODWGE9lHRX-111">
          <mxGeometry width="160" height="40" as="geometry" />
        </mxCell>
        <mxCell id="evleP5VsPjODWGE9lHRX-115" value="&lt;b&gt;6&lt;/b&gt;" style="rounded=0;whiteSpace=wrap;html=1;align=center;fontSize=18;" vertex="1" parent="1">
          <mxGeometry x="40" y="2000" width="40" height="40" as="geometry" />
        </mxCell>
        <mxCell id="evleP5VsPjODWGE9lHRX-117" value="" style="endArrow=classic;html=1;rounded=0;exitX=1;exitY=0.5;exitDx=0;exitDy=0;endSize=12;startSize=12;entryX=0;entryY=0.5;entryDx=0;entryDy=0;" edge="1" parent="1" target="evleP5VsPjODWGE9lHRX-99">
          <mxGeometry width="50" height="50" relative="1" as="geometry">
            <mxPoint x="160" y="1620" as="sourcePoint" />
            <mxPoint x="330" y="1710" as="targetPoint" />
          </mxGeometry>
        </mxCell>
        <mxCell id="evleP5VsPjODWGE9lHRX-123" value="&lt;span style=&quot;font-size: 17px;&quot;&gt;Kilimanjaro | Mont Blanc&lt;/span&gt;" style="rounded=0;whiteSpace=wrap;html=1;" vertex="1" parent="1">
          <mxGeometry x="320" y="2200" width="200" height="40" as="geometry" />
        </mxCell>
        <mxCell id="evleP5VsPjODWGE9lHRX-125" value="&lt;font style=&quot;font-size: 14px;&quot;&gt;&lt;b&gt;2&lt;/b&gt;&lt;/font&gt;" style="rounded=0;whiteSpace=wrap;html=1;fillColor=#B3B3B3;" vertex="1" parent="1">
          <mxGeometry x="320" y="2180" width="20" height="20" as="geometry" />
        </mxCell>
        <mxCell id="evleP5VsPjODWGE9lHRX-126" value="&lt;span style=&quot;font-size: 17px;&quot;&gt;Aconcagua | Cervino&lt;/span&gt;" style="rounded=0;whiteSpace=wrap;html=1;" vertex="1" parent="1">
          <mxGeometry x="320" y="2360" width="200" height="40" as="geometry" />
        </mxCell>
        <mxCell id="evleP5VsPjODWGE9lHRX-127" value="&lt;font style=&quot;font-size: 14px;&quot;&gt;&lt;b&gt;2&lt;/b&gt;&lt;/font&gt;" style="rounded=0;whiteSpace=wrap;html=1;fillColor=#B3B3B3;" vertex="1" parent="1">
          <mxGeometry x="320" y="2340" width="20" height="20" as="geometry" />
        </mxCell>
        <mxCell id="evleP5VsPjODWGE9lHRX-129" value="" style="endArrow=classic;html=1;rounded=0;exitX=1;exitY=0.5;exitDx=0;exitDy=0;endSize=12;startSize=12;entryX=0;entryY=0.5;entryDx=0;entryDy=0;" edge="1" parent="1" target="evleP5VsPjODWGE9lHRX-137">
          <mxGeometry width="50" height="50" relative="1" as="geometry">
            <mxPoint x="160" y="2180" as="sourcePoint" />
            <mxPoint x="330" y="2210" as="targetPoint" />
          </mxGeometry>
        </mxCell>
        <mxCell id="evleP5VsPjODWGE9lHRX-130" value="" style="endArrow=classic;html=1;rounded=0;exitX=1;exitY=0.5;exitDx=0;exitDy=0;endSize=12;startSize=12;entryX=0;entryY=0.5;entryDx=0;entryDy=0;" edge="1" parent="1" target="evleP5VsPjODWGE9lHRX-131">
          <mxGeometry width="50" height="50" relative="1" as="geometry">
            <mxPoint x="160" y="2260" as="sourcePoint" />
            <mxPoint x="330" y="2190" as="targetPoint" />
          </mxGeometry>
        </mxCell>
        <mxCell id="evleP5VsPjODWGE9lHRX-131" value="&lt;span style=&quot;font-size: 18px;&quot;&gt;Etna&lt;/span&gt;" style="rounded=0;whiteSpace=wrap;html=1;" vertex="1" parent="1">
          <mxGeometry x="320" y="2280" width="200" height="40" as="geometry" />
        </mxCell>
        <mxCell id="evleP5VsPjODWGE9lHRX-132" value="&lt;font style=&quot;font-size: 14px;&quot;&gt;&lt;b&gt;2&lt;/b&gt;&lt;/font&gt;" style="rounded=0;whiteSpace=wrap;html=1;fillColor=#B3B3B3;" vertex="1" parent="1">
          <mxGeometry x="320" y="2260" width="20" height="20" as="geometry" />
        </mxCell>
        <mxCell id="evleP5VsPjODWGE9lHRX-135" value="" style="endArrow=classic;html=1;rounded=0;exitX=1;exitY=0.5;exitDx=0;exitDy=0;endSize=12;startSize=12;entryX=0;entryY=0.5;entryDx=0;entryDy=0;" edge="1" parent="1" target="evleP5VsPjODWGE9lHRX-123">
          <mxGeometry width="50" height="50" relative="1" as="geometry">
            <mxPoint x="160" y="2220" as="sourcePoint" />
            <mxPoint x="330" y="2190" as="targetPoint" />
          </mxGeometry>
        </mxCell>
        <mxCell id="evleP5VsPjODWGE9lHRX-136" value="" style="endArrow=classic;html=1;rounded=0;exitX=1;exitY=0.5;exitDx=0;exitDy=0;endSize=12;startSize=12;entryX=0;entryY=0.5;entryDx=0;entryDy=0;" edge="1" parent="1" target="evleP5VsPjODWGE9lHRX-126">
          <mxGeometry width="50" height="50" relative="1" as="geometry">
            <mxPoint x="160" y="2300" as="sourcePoint" />
            <mxPoint x="330" y="2390" as="targetPoint" />
          </mxGeometry>
        </mxCell>
        <mxCell id="evleP5VsPjODWGE9lHRX-137" value="&lt;span style=&quot;font-size: 18px; background-color: initial;&quot;&gt;Chañi&lt;/span&gt;" style="rounded=0;whiteSpace=wrap;html=1;" vertex="1" parent="1">
          <mxGeometry x="320" y="2120" width="200" height="40" as="geometry" />
        </mxCell>
        <mxCell id="evleP5VsPjODWGE9lHRX-138" value="&lt;font style=&quot;font-size: 14px;&quot;&gt;&lt;b&gt;2&lt;/b&gt;&lt;/font&gt;" style="rounded=0;whiteSpace=wrap;html=1;fillColor=#B3B3B3;" vertex="1" parent="1">
          <mxGeometry x="320" y="2100" width="20" height="20" as="geometry" />
        </mxCell>
        <mxCell id="evleP5VsPjODWGE9lHRX-152" value="&lt;span style=&quot;background-color: initial; font-size: 16px;&quot;&gt;- Se&amp;nbsp;&lt;/span&gt;&lt;span style=&quot;font-size: 16px;&quot;&gt;aplica&amp;nbsp;&lt;/span&gt;&lt;span style=&quot;background-color: initial; font-size: 16px;&quot;&gt;la funcion de hash y se toma 1 bit&lt;/span&gt;&lt;div&gt;&lt;span style=&quot;font-size: 16px; background-color: initial;&quot;&gt;- Etna pasa al nodo con direccion 1&lt;/span&gt;&lt;/div&gt;&lt;div&gt;&lt;span style=&quot;font-size: 16px;&quot;&gt;- Se produce una&amp;nbsp;&lt;/span&gt;&lt;span style=&quot;font-size: 16px; background-color: initial;&quot;&gt;colisión&lt;/span&gt;&lt;span style=&quot;font-size: 16px; background-color: initial;&quot;&gt;&lt;br&gt;&lt;/span&gt;&lt;/div&gt;&lt;div&gt;&lt;span style=&quot;font-size: 16px;&quot;&gt;- Como no cabe en el nodo se produce un&amp;nbsp;&lt;/span&gt;&lt;span style=&quot;font-size: 16px; background-color: initial;&quot;&gt;overflow&lt;/span&gt;&lt;/div&gt;&lt;div&gt;&lt;span style=&quot;font-size: 16px;&quot;&gt;&lt;br&gt;&lt;/span&gt;&lt;/div&gt;&lt;div&gt;&lt;span style=&quot;font-size: 16px; background-color: initial;&quot;&gt;- Se suma 1 al valor del nodo con overflow&lt;/span&gt;&lt;br&gt;&lt;/div&gt;&lt;div&gt;&lt;span style=&quot;font-size: 16px;&quot;&gt;- Se crea un nuevo nodo con este mismo valor&lt;/span&gt;&lt;/div&gt;&lt;div&gt;&lt;span style=&quot;font-size: 16px;&quot;&gt;&lt;br&gt;&lt;/span&gt;&lt;/div&gt;&lt;div&gt;&lt;span style=&quot;font-size: 16px;&quot;&gt;- Se compara el valor del nodo con el valor de la tabla&lt;/span&gt;&lt;/div&gt;&lt;div&gt;&lt;span style=&quot;font-size: 16px;&quot;&gt;-&amp;nbsp;&lt;/span&gt;&lt;span style=&quot;background-color: initial; font-size: 16px;&quot;&gt;Como el numero de la tabla es menor al del nodo, duplicamos el tamaño de la tabla&amp;nbsp;&lt;/span&gt;&lt;span style=&quot;background-color: initial; font-size: 16px;&quot;&gt;y aumentamos el numero de bits&lt;/span&gt;&lt;/div&gt;&lt;div&gt;&lt;span style=&quot;background-color: initial; font-size: 16px;&quot;&gt;&lt;br&gt;&lt;/span&gt;&lt;/div&gt;&lt;div&gt;&lt;span style=&quot;font-size: 16px;&quot;&gt;&amp;nbsp;&lt;/span&gt;&lt;span style=&quot;background-color: initial; font-size: 16px;&quot;&gt;- Se toman&amp;nbsp;&lt;/span&gt;&lt;b style=&quot;background-color: initial; font-size: 16px;&quot;&gt;&lt;font color=&quot;#ff99cc&quot;&gt;2 bits&amp;nbsp;&lt;/font&gt;&lt;/b&gt;&lt;span style=&quot;background-color: initial; font-size: 16px;&quot;&gt;de la funcion de hash asociada a cada clave&lt;/span&gt;&lt;/div&gt;&lt;div&gt;&lt;span style=&quot;font-size: 16px;&quot;&gt;- Reacomodamos las direcciones y los registros&lt;/span&gt;&lt;/div&gt;&lt;div&gt;&lt;span style=&quot;font-size: 16px;&quot;&gt;&lt;br&gt;&lt;/span&gt;&lt;/div&gt;" style="text;html=1;align=left;verticalAlign=middle;whiteSpace=wrap;rounded=0;" vertex="1" parent="1">
          <mxGeometry x="560" y="1320" width="400" height="360" as="geometry" />
        </mxCell>
        <mxCell id="evleP5VsPjODWGE9lHRX-157" value="" style="shape=image;verticalLabelPosition=bottom;labelBackgroundColor=default;verticalAlign=top;aspect=fixed;imageAspect=0;image=data:image/png,iVBORw0KGgoAAAANSUhEUgAAA6YAAAEbCAYAAADJSZlpAAAAAXNSR0IArs4c6QAAAARnQU1BAACxjwv8YQUAAAAJcEhZcwAAFiUAABYlAUlSJPAAAHEfSURBVHhe7Z0FmBzF1r8/3CG4BAguFwkeCFw+3PWiwYJLcHc+uLgGd+fiBA0e+OPu7h7c3ft/39o+m97elunZqd2Zyu99nvMk010tM9vVp35Vp079TySEEEIIIYQQQvQgEqZCCCGEEEIIIXoUCVMhhBBCCCGEED2KhKkQQgghhBBCiB5FwlQIIYQQQgghRI9SKEwvuuii6P/+7/+ifffd1/0bmv3v//6vs6x9MpksHLO6vuuuu2bul8m6YgMHDnTPF/9m7Q/FVI9ksrBtzTXXVB2XeTPzlVtttVWsNDtTKEw5+H/+53+iPn36uH9lMplMJpPJZDKZTCarx3r16hUrzc7UJEzpQclSvq1u9gNl7ZPJZOGY1fXQR7RkPWPmK/k3a38opnokk4VtNhClOi7zYeYrZ5999lhpdqYmYcrJQsScrBAibKyu/7//9//iLUI0DnxkyL7SUD0SImys3a86LnxgvpLnLA8J0/+aECJsrK7L2QofSJgKIUJAwlT4RMK0BHOyQoiwsbouZyt8IGEqhAgBCVPhEwnTEszJCiHCxuq6nK3wgYSpECIEJEyFTyRMSzAnK4QIG6vrcrbCBxKmQogQkDAVPpEwLcGcrBAibKyuy9kKH0iYCiFCQMJU+ETCtARzskKIsLG6LmcrfCBhKoQIAQlT4RMJ0xLMyQohwsbqupyt8IGEqRAiBCRMhU8kTEswJyuECBur63K2wgcSpkKIEJAwFT6RMC3BnKwQImysrsvZCh9ImAohQkDCVPhEwrQEc7JCiLCxui5nK3wgYSqECAEJU+ETCdMSzMkKIcLG6rqcrfCBhKkQIgQkTIVPJExLMCcrhAgbq+tytsIHEqZCiBCQMBU+kTAtwZysECJsrK7L2QofSJgKIUJAwlT4RMK0BHOyQoiwsbouZyt8IGEqhAgBCVPhEwnTEszJCiHCxuq6nK3wgYSpECIEJEyFTyRMSzAnK4QIG6vrcrbCBxKmQogQkDAVPpEwLcGcrBAibKyuy9kKH0iYNpa33nor+u233+JPnfnzzz+j119/Pf4UBp988kn01VdfxZ+E6BkkTIVPWkaYPv/889GBBx7Ywd5///14rz/MyXaVN998030HIURzYnW9Hmf7xBNPtL+XzjzzzHhrNn///Xc0ZMiQaIUVVohmmmmmaLHFFouOOuqo6IcffohLdMbn+X3fD1x99dXt5W+//fZ4az5Vy7cC3SlM33vvvWjXXXeN+vbtG00//fRRv379osMPPzz6/vvv4xL+qKcePffcc+5v/eGHH8ZbRsDzecopp0QHHXSQ+15w6aWXumusuuqq7jPQFtluu+3iT1G05ZZbujLHH398vKW14buPPfbY0WSTTdYtf0ch8uiKMD322GPb3+2vvfZavDWb4cOHR7vttls0//zzR7PPPnu03nrrRY8++mi8Nxudv/j8rUBLCFN6PvnhuU7SHnzwwbiEP+xaXWWTTTbp4ESFEM2F1fWqzpZRG5yCHb/gggvGezpDI3uHHXZw5WaddVbXeEYQjjLKKNHcc88dffbZZ3HJEfg8v+/7gTfeeCMaa6yx2svvueee8Z5sqpZvFbpLmA4bNiyaYIIJ2n+/pPE3/vTTT+OSfrBrValHl112mTsm3aj6448/oo033tg9j4hT48ILL3TleVaNueaaK9pggw3iT1G02WabuTJ0soTAO++8E4055pjRxBNPHH333XfxViG6n3qF6SWXXOKOM7vlllviPZ154YUXosknnzwaffTRo9VXXz3afPPNo+mmm869C84444y4VEd0/uLztwotIUxPOumkDn8ss1YRpu+++657eHhgeJiEEM2H1fV6eoGNZZddtlCoXXzxxe4a9HLS6DYeeOCBaPzxx49WXHHFeEs2jT6/7/tJM9poo1USmlXLNzPdIUw///zzqFevXu46GH5niimmaP+MrbbaanFpP9h1uipMf/nlF9fg4hmgwZbmpZdein7++ef4U2dh+vvvvwcXpUSUmO+OBSHKqFeYGrTdOT5PeOGL6ESbaqqpXD03eCdsuOGG7thHHnkk3toZnb/4/M1OSwhTwsaoANiiiy7qroe1ijAdNGiQE6VjjDGGGzkVQjQfVtd9CVNGJ2eYYYaof//+8ZaOnHvuue769913X7ylM408v+/7yULC1K+vJFyXa2D8Xb/44gu3/e6773ajbbbv7bffdtt9YNfoijAlVHWppZZyI+c33HCD21ZGWpgKIfzgW5haRMSdd94ZbxkBHU59+vRx74c8dP7i8zc7LSFMkxAOy/WwVhCmhMIxL4SeX8Lk6MG2eTJlcOwJJ5zgnO2SSy4ZrbHGGi4sqWxu7dNPP+1GQAhzWmaZZaJtt93WNUyyoAFAY8Z6lhkp2WqrraKll17axatfc801bnse9NDQqCBsimMYYdl7772jxx9/PC6RDUkcjjzySNd7TwUaOHBgdPPNN7vG8rfffuvu6dVXX41Ld4QeIhqrK620kvuOXM9i8R9++GF3LOcBKimfi+7n/vvvd2XyuPXWW93fjvvkfg877LDoo48+cvu453POOcf9X7Q2Vtd9CVPqJee/7rrr4i0dIUR2kkkmibbZZpt4S2caeX7f95OFhKlfX8n7nmtgjz32WLy1jXXWWad9H+8tX9g16hWmJPdZeOGF3Yj9PffcE5foCCOlvLN5ho20MMV/UObLL7+Mt0QuxG3o0KHu/w899FD7e50OY3xfEhqFG220kfNr22+/fa4/Mqr6Ce7F/g4kcsKPLb/88u7YE088Mfrxxx/dviQXXXRRdMUVV8SfOsI83T322MP5RM6zyy67tP8++Hd+Cxth5jfh88svv+wiuqjj1GW+QxLu/4gjjnD3RFtvwIABbvQavypGXnwLU9rLTCXJg3njHG/1K43OX3z+ZkfCtAS7Vr3sv//+7ngcLuJp1FFHjXbeeed4bz6nn366E7TjjTeeczI4BBodbEPcHnrooXHJEfz1118u4QWjs8wxWm655aKVV17ZxaFzD2uuuWYnZ0eyCfbRA8N9cW4c1BZbbOEaB+wjdj0LRlJ69+7tGo+MZHOP/H1IzsBxa6+9dmYClSuvvNI1OvgtSMqx1lprRQsssIC7b5wqTpTjr7322viINnCGfD/28f1oMHA9knswGn3MMcdERx99tNtvYYlcn8+DBw92n7OwSpDm66+/dr89+6aeemr3W2KTTjqpuz6iHUFNg0i0PvydMV/C9IILLnDnp1MmDxqA8847b/ypM408v+/7yULC1K+vPPvss53gwH799dd4axu8/7k+RgeeL+wa9QjT66+/3r1P6RAp6kxkJJjyZ511VrylszDFf1AmKShnnnlm1/F6yCGHOH+Dj+MZ553OZ+6DnBabbrqp8ym0b1ZZZRXnh8cdd9zMNke9foJ7YTuJnMYZZxznA/G1dLjy3JNX45tvvolLt4G/TIfX4/f32msvd//4Vfwif2vOz7Z99tnHCVruz0bQ+U34TDuC++RaCGrmsRrcF9+bNgEJ0fidCB/kuDnnnNMldBQjJ76FKXMlk4nM0jz11FPueN4XWej8xedvdiRMS7Br1QMJCiaaaCL3wjcQazg4cxBZILC4JkIxneSAzzvuuKPbn07qQHm2M1qaFKCINHpQcHYIPxyZYcJ0ttlmcxk503NgEXTsTz/g9DbjuHGC6bAwrkeDAWebdqKcB2fJcUknCC+++KJrBNMTxDXTwhSxzLGI/aTgZXSULJ4kheA7cGxXhSmNOhoBfAdCGu18wEgSo72EmZEERsI0DHgGMF/ClBEUwimL2HfffaMJJ5ww/tSZRp7f9/1kIWHafb4yCQIHkcH1ES9Zo3GNop56ZMKUe5tmmmk6zJvKoivClPPTWZsU5/jVRRZZxIm0/fbbz52LUUzj448/dsemRym64ic4H8bfJR21wPwwOqEZ9UySJUyts5ay6fbCjTfe6Pyi+dS0MEV0Zj2P3A++lvqdjtC67bbbXOczv2NWcjQRPj6FKe1T3vvUnTyI1ON48s9kofMXn7/ZMV8pYZqDXasebPTurrvuirdErheYbfTYZvHKK6+4h44e0CIY7Ug6DBwZ5919993jLZ1hWQfK0HtqmDBFZOalpsZ5rrvuuvGnNuHJKGX//v2d882D8OHk3wiRSINgoYUWyj2OMC7i47mnpDDlN2Tbv//973hLZxjBZRSWcl0VpqTsZltRjxNh1pSRMA0D/paYL2FKnabhW4S9MywUPU0jz+/7frLg3SZh2v3ClN51ro0VhWY3ArtOPcIUq2VOaVeEKduyliBiG/sQkulOU2A0mv1Jv9sVP2H3gi/PgrBgBGCStDC19kRawCYhpBsBSrm0MGWOebKjGvCZvBe4Vp6ffuaZZ9zvxIivGPnwKUzpNGPfaaedFm/Jhucvrx2t8xefv9mRMC3BrlUVeiymnHJKJ8LSMIJKqFJWrzWjnjgjjq8CczzJxph1ToPGJT2nCErDhCnzSfNg/k2yp5g1DznmySefjLfUhq09V/YyO//88125pDBFGJOBrGxuCyFUHNtVYUqjoahSACFfOHYJ0zDgGcB8CVM6jciQWoRlIM97zht5ft/3k4WEafcLU3ufYox+Z60V2kjsWvUIU0bweSZZMqiIrgjTGWecMf7UEfOFTC3Jgu/DfnISGF3xExxL6G9ylDWJ/d2Sc2TTwhTxyihz2bqm+HDOlRamRFelscQqREUVQeQWf6+iNocIE5/ClFF/9pWtj8277IADDog/dUTnLz5/syNhWoJdqyokNuA45rAwpyVpCEP2nXzyyXHpEeB4SFJRFeZ8MCG6DEZJkuF75ozp+c0DBzTttNPGn9rC+9I9ubWAEySMuYwPPvjA3VNSmDK3hfXsyiC8mWO7IkxJvsTn4447Lt6SDw0DCdMw4G+O+RKmhKAT2l8EPZyMbuTRyPP7vp8sJEy7V5jSichvaM92XuKcRlJPPTJhihhjtI6IHPxAHl0RpiQRzMLe+yxsnwWrA7CfUFboqp/gXuhIzcPuPxlSnBam8803n5sDW4Z1CqeFaXJtWIN1jWnU5kVJGCSR4hytvCyFqA+fwpRRevYVtdkY5SfUnMRcWej8xedvdiRMS7BrVQFRRK8s805IDpRlCDScb3okgjmSJF6oCueqRbiRFIPvY9c1Ycr8mDyYw8JopYGTZfJ1VcgOzLyUMpgPxT0lhSm/2U477RR/yoekURxrwpQshHwmy2EeBx98sAsBNphPVPabGPw2EqZhwN8c8yVMcSQ4i7zwOCDkkmc9j0ae3/f9ZCFh2n2+kkYNUzTsue6u3vN66pEJU5IEEolD0iDmZebNYeyKMM1L5medmHnzsrgv9ltjsat+gnsh628ehDRz/uQUm7QwJTdE0TkMO1damLKOcRqir4rqvGGN57yM/yJcfApToMO06H1Fwj6OP++88+ItHdH5i8/f7EiYlmDXqoI5WUJi8rj88stdmfTC4UsssUSlhp5B1jycVhmIXkKMDROmyXmnaXCqyWMOOugg12Ckx7gKiGIEYDrTYBrLKJYUpvwuZD4sA/HKsSZM6fWlcUailzxIsU8YtMGxJJ4omq9rkKlQwjQMeG4wX8IUJ8P5ixb9J/lX0XPeyPP7vp8sJEy7x1cyX5I5RlwP23rrreM9/rFr1itMgXBZOnYZEczyM10RpkQtZWHCNG/uVlqYdtVPcC9FczRNTCbvPy1MqX9k1C3D5rmmhWnWCDqRFNQ7fo8iLKt38v7EyIFvYYpPIVFoHszp5vi87OI6f/H5mx0J0xLsWrVi8zgZUcyblwXMO8Ex4aySITOWbKRsHdB0mA1D9hxHZts8mKvCfBSy2xr1CFMaDxxTFP4L6Xu0dRPLjjNxmRSmp556qnOWrLuWB4KXMDCONWEK9Lyvv/768afO8EylG9eERTPXqcg502NOWLSEaRjw3GC+hCnLSuRlwQQSrtBxUxQa2Mjz+76fLCRM/ftKRrAQTPY8b7jhhp0S3PiknnqUFqZAyCydiosvvnj0008/xVvbaAZhCl3xE40QpkQCUaaovcDfvm/fvq5cWpiydFsa5payj+ijPPDt/fv3z52vK8LGtzDlnU84ed7gB1EPDCbktbF1/uLzNzvmKyVMc7Br1cpNN93kymfNH03DgtuUTS52ThIDwl1nmWWW3MVx2Y6TS4YQ0cjEQeKAyGybhrT2zEWhwfL666/HW+sTpoBDpkeeTLhZcD2SSCRFMDC/h3vI68nh96MxzD0lhSkNk3/84x9urmnW+ml8f5agoaHNsQh/g/ungZM1MoRD53qMAidhPhHnIulSVuWmIUISK64lYRoG/C0xX8IUcBgs35BeggHoPGEfz3IejT6/7/tJI2Hq11fy7DLSaM8yho/m75S0LEHSKOy6XRWmwDJgvJ8RY8mQ82YRpl3xE40QppyfsFtCej/99NN46wgQkHvvvbc7D1aLMAWiJAinfu655+ItHbEpQcxdFSMfvoUpbTzabESzpeGZZF/WWv6Gzl98/mZHwrQEu1atEFJLYqB0D28WOFqcCj3CSUjFzjkwRlBZW5S5NvxLch96Qlh2Jemw4IEHHnAjoiy3Qm8nQozlZ3AehOThQNOOqF5hyugkDVLOSXIkhCZx7VQYQpjnmGMOt4+GRRJE8zzzzON6kEmixHflOBIoMAeVRggLgnNPSWEKrJeKc0cQM58W8c/3HDRokMtyzG/PscybS4IzZo4sZVjPlQYGxnqxxOozPze9/hvQccD9kFmZeyEZB/fA90MgMzKO2JcwDQOr6z6FKfWNusRIA2sMUo+IAhgwYIB7bovqITT6/L7vJ42EqT9fyVxEW6u0zPArvrBrNEKYAgmReBYRf9bh2CzCFOr1E40QpoA4pk1Ahl/unY5nOq9JTkT9ZGRl++23d+eqVZgichG75MIgGRQduPj2W2+91XVKcyx+X4yc+BamwHNHGdp3PHu0HZkCxwAMdaooG7TOX3z+ZkfCtAS7Vi1QSSlLb2Kt2HIM6e+CcyOpAQLO7gGj4cEoR1bvKCBecUY48uRxCyywQOboZr3CFEgsxARsRlWS16Ixudxyy7nQ3SwYFcapJcPNMBz3HXfcEb377rvuc1qYAoKfpC00AnC4GCFFrDFHo4X5MQjQNDQUGFFNXo/fiJ7houyPd955pxPSyeMYkSBzIWEUNCwkTMPA/r4+hSkg/Jg7l3ym6ITKSkSSxsf5fd9PEglTf77S1uGsxVpJmIL5SSJwGAVsJmEK9fiJRglTYHkdxG/S79tIM0IV/862WoUpMPWH3yo5Vxkjogt/K0ZeukOYAokp0+1EnvPPP/88LpGNzl98/man5YRpd2N/7J6CXg+cNY6P0UXEYC0wCslL45577nFCzycIwmeffdbdI4t5J9ddKwKRyUjpsGHDStetozfInGoRhAozcpoHPckk1sCGDx8eby2HHinmbvG3oAEjwsPqeleEaa3QuGYUguQjPP+N7t2sen7f9yP8C9NmoTvrUbPh20/kCVODyCp+dzqhaQM0Ar4Hfvquu+5yHd+8K8TITVeFaRV4phFo11xzTYcM1Y1C528+JExLMCcrehZCmOkBLkpNTzZfYuuLkjYIkYfV9ZGxQS38I2EqugqRQkVrnwrRHXSnMBUjHxKmJZiTFT0LyZQWWWQRFx5FJkJGUA3mh55xxhluvujCCy/cISOvELVidV3OVvhAwlTUCxEMzP9mmko965wL0UgkTIVPJExLMCcreh4EKHNeGBVlLg2TvElqxEgqiZZw2ApBFPVidV3OVvhAwlTUC/M6LdsyIXtC9CQSpsInEqYl8N0w0TwwsRvnTIZd7KqrrnJrxQnRFayuy9kKH0iYinohVwTrf5NpV4ieRsJU+ETCtARzskKIsLG6LmcrfCBhKoQIAQlT4RMJ0xLMyQohwsbqupyt8IGEqRAiBCRMhU8kTEswJyuECBur63K2wgcSpkKIEJAwFT6RMC3BnKwQImysrsvZCh9ImAohQkDCVPhEwrQEc7JCiLCxui5nK3wgYSqECAEJU+ETCdMSzMkKIcLG6rqcrfCBhKkQIgQkTIVPJExLMCcrhAgbq+tytsIHEqZCiBCQMBU+kTAtwZysECJsrK7L2QofSJgKIUJAwlT4RMK0BHOyQoiwsbouZyt8IGEqhAgBCVPhEwnTEszJCiHCxuq6nK3wgYSpECIEJEyFTyRMSzAnK4QIG6vrcrbCBxKmQogQkDAVPpEwLcGcrBAibKyuy9kKH0iYCiFCQMJU+KRhwrRPnz7tDkkmk8lkMplMJpPJZLKq1qtXr1hpdkbCVCaTyWQymUwmk8lk3q3LwlShvEKIVsbqusKThA8UyiuECAGF8gqfNCyUV8JUCNHKWF2XsxU+kDAVQoSAhKnwiYRpCeZkhRBhY3Vdzlb4QMJUCBECEqbCJxKmJZiTFUKEjdV1OVvhAwlTIUQISJgKn0iYlmBOVggRNlbX5WyFDyRMhRAhIGEqfCJhWoI5WSFE2Fhdl7MVPpAwFUKEgISp8ImEaQnmZIUQYWN1Xc5W+EDCVAgRAhKmwicSpiWYkxVChI3VdTlb4QMJUyFECEiYCp9ImJZgTlYIETZW1+VshQ8kTIUQISBhKnwiYVqCOVkhRNhYXZezFT6QMBVChICEqfCJhGkJ5mSFEGFjdV3OVvhAwlQIEQISpsInEqYlmJMVQoSN1XU5W+EDCVMhRAhImAqfSJiWYE5WCBE2VtflbIUPJEyFECEgYSp8ImFagjlZIUTYWF2XsxU+kDAVQoSAhKnwiYRpCeZkhRBhY3Vdzlb4QMJUCBECEqbCJxKmJZiTFUKEjdV1OVvhAwlTIUQISJgKn0iYlmBOVggRNlbX5WyFDyRMhRAhIGEqfCJhWoI5WSFE2Fhdl7MVPpAwFUKEgISp8ImEaQnmZIUQYWN1Xc5W+EDCNHw+/vjj6Jtvvok/CREmEqbCJy0jTD/88MNol112ieaZZ55o+umnj5Zaaqnooosuivf6w5xsVR5//PH4f7XzxBNPxP/rWbbaaqvokEMOiT+Vc+utt0YHHnigM4478cQTo5tvvjn68ccf4xId2X///d3fUYhmwup6VWf7999/R0OGDIlWWGGFaKaZZooWW2yx6Kijjop++OGHuERHqpYH3g1Wx84888x4az7NVv7qq69uL3/77bfHW7P5+eef3Ttk8cUXd7/PcsstF11xxRXRX3/9FZdoTXpKmP76669Rv379oimnnNLZddddF+/xQ731KAkC77jjjotWXHHFaM4554z69OkTLbrootHAgQOjoUOHRr///ntcsnl48803o7HGGiuaYoopcn2fECFQrzAdPnx4tNtuu0Xzzz9/NPvss0frrbde9Oijj8Z7szn22GPbfcdrr70Wb82nSvlmux/wXb4VaAlhSiNo4oknbnd4Sdtkk01cQ88Xdp2qLL300pUekltuuSXabrvt4k89S9++faN11lkn/lTOrrvu2uFvYjbVVFNF999/f1xqBDvuuKNrIAnRTNhzW8XZ8u7ZYYcd3HGzzjprtOWWWzrBOcooo0Rzzz139Nlnn8Ul26haHn777TfnNO3+FlxwwXhPNs1W/o033nANdiu/5557xns68+233zoRRbn+/ftHW2+9tWs08HnAgAHRn3/+GZdsPXpKmO61117tvz122WWXxXv8YNepR5jS+cDvM84447hzTDvttK5jYoMNNnBtjfHHH99tR6w+8sgj8VHNAf5+jDHGiCaZZJLCTiYhWp16hOkLL7wQTT755NHoo48erb766tHmm28eTTfddM73nXHGGXGpjlxyySXt7xOMdnIRVco32/2A7/KtQtMLUxpBNODsh+ehGXvssds/Yz5HTu0aVZl66qmdaK6VRRZZJFpmmWXiTz1LPcJ0vPHGiz9F0eeff+5GhKaZZhrnpL/77rt4TxsSpqIZsbpexdlefPHF7hh6Xf/44494axQ98MADrhHNiE+SquXTLLvssqVCMEmzlR9ttNEKhSmNAxoKV111VbyljcGDB7vf7eijj463tB49IUwRb6OOOqq7rlmzClPqw2qrreaOZXT07rvv7tTpzGj6hRde6EYleU5uuummeE9z8N577zn/J0TIVBWm1G3a8QxWvPTSS/HWKPrll1+iDTfc0J2rqKPpwQcfdGVqFV5l5ZvtftL4Lt/sNL0wxTlxfowRhQ8++MD1miNubPsqq6wSl248do0q/PTTT+4YGmGMFpRxxx13uPL01jQDXRWmxrXXXuu+1+WXXx5vaUPCVDQjVtdrdbY0mmeYYQY3spfFueee68533333uc9Vy2cRsjB96623nIgi1D+LjTbaKJpoooncqGor0t3CFBE322yztT/XZs0qTLfffnt3HBEFyU6bLL744gs3HeSf//xny4d4C9FqVBWmdCZR/s4774y3jICwfEL1mZ6XR6OFWrPdTxrf5ZudphemNFZuuOEGZ2+//Xa8dcQfAit6gLqKXaMKzz//vDuGRtZmm20Wb82HuVSUZzSYHps8nn76aTfSQugfo6vbbrutE+5ZvPjii9Hhhx/uGnEIecTh+uuv734rwgcJj05zzjnnuGPoRZprrrnc/7F0r3WaPGH67LPPuu916qmnxlvaKBKmn3zySXTkkUe6nnPulTlFzFflHvgu3M+rr74al67veybh96ahxt+J8GtGrPbee++65giL1sbqeq3OlvpI+bw5e0R7EDGwzTbbuM9Vy2cRsjBlXinvzKxwZnjyySfd75fu6GoVuluY4iu4HoZvsf83ozDlb8s9ErZbq9D86quvXJ3JgnbDQQcdFK266qrOFxC9dOWVV2YK3uuvvz4666yz3P8vuOAC51/xO3QYH3PMMYX3QxlG8S3EHB/K+Yyu+qePPvooOuKII5w/pK1FODvhe804x1aMPFQVpoTKMrCUx/HHH+/Ox/OeRaOFWrPdTxrf5ZudphemWdATbCE/2KGHHhrvaTx2jSrQ8OQYkjXREMNJ5jFs2DBXFkfIv8mwAgPHiPjDcU8wwQTOea+88souPp5j1lxzzU7JFmh8sO+ZZ55xvcq9evVy5RBgM844o2sA4oSTMCLB/K5xxx3XNZD5P2ZON488YWoP18MPPxxvaSNPmNJwIJyRe+O6a621VrTAAgu4701jwQQ/I7FGPd/TYGSqd+/e7m9E6BhOn4bMZJNN5s659tpra67QSAR/c6xWZ8tzRXk6U/LgPTXvvPO6/1ctn0XIwnTTTTd1c1fz4D3IiCnv1VakO4UpoeG8+7ge70SEGf/HmlGYmv/jHd9VmB/GnGZ8CX6D6J855pjDnZ/5yu+//35csg3mr/Lc7bTTTtGEE04YrbTSStF+++3X3tgr6kjCf3C8QYdu8nNX/NOll17q/CohyyRI491g05qYY0uyJSF6gqrClGjAohwqTz31lDtfslMnSaOFWrPdTxrf5ZudlhOmG2+8cTTppJO6a2ILLbSQV/Fg16kCvayIu++//97d6xZbbBHv6Qy/H87s5Zdfdte58cYb4z0j2Hnnnd0+esCTApTeX3p2aOzhgJM9u+YQCeVCxBL6ZHDcuuuu6+4xq0eo3lBeRh9JlY+4Pvjgg53T/de//hWXGkGWMOUFgABl1PKdd96Jt7ZBrzONdXq4+E5ZwrTq93zooYdcogqulxyJB46jB50EHGVz/kQ48BxhtTrbww47LBpzzDHjT9nsu+++rrELVctnEbIwpS4uv/zy8ads6LBaY4014k+tRXcJU3zEzDPP3P48847kuUp+9oldp4owJSfDfPPNF3+qH8Qc16aTIx3yfc8997hkSvw2yX0IScQfIpPs/0kQhOR/yILcFlyLRqyRJ0yr+ifEMP6Q+pUW0rfddpvrPCWHQ150gRA+qSJMaZfy3icSLg/ajpzvpJNOird0pJFCrdnuJwvf5ZudlhOmxH5zPQxxkzXC2EjsWlUgk6SFCfDw4/TS4gfo1ebcJPogpT9CDqGZhAnYlNl9993jLZ1huQbKJJNAmUOkJ5g5r2lI0oDjO/300+MtI2hUVl6c8aeffhqXGkFamNKxwOgvnQx5oVmEbdnfPkuYVvmeNAhYcqh///651wPCpKnwYuTAnttaG9RkO6XjqQjC/DgnoehVy2cRsjCl/pe9d+goWnLJJeNPrUV3CVPer/YsW8dgMwtT3sGUJ+lIVyDJHiOShMnmRfm88sorrnMo+QwiJLk+887S0GHKvqx53/h4OlOS5AnTKv4Jf8h7gk6YPP/ECCyjwow0C9HdVBGmdJRR9rTTTou3ZMPznLdMYSOFWrPdTxa+yzc7LSdMCe3kemY0dMh06Qu7ThX4TaxXn1FTwmJZGzQNIbmE5NhIJ+EFzBtNQsgPzjYdqpuERixOEqFlmEPMS3sN9B4TvpSmHmHK6CONH+ZnkryCEVwEOfeeDodIC1Pr5S57yZ1//vmuXJYwrfI9yRjMMcxrEsLgmajlOTToLCI7aBH0uHJO5oRVLZ9FyMKUMEvm3xXBezX5nmslukOY3nvvvU7ocB06+yxDbDMLU3wk5fEbXcFC5fkNiiDqihFH6/wxYZoeYQV8Mx2sTPFIwqglx/BvkjxhWsU/WWIWonqKwI8isovaBkL4oIowpcOIsmXrXRMpdMABB8SfOtJIodZs95OF7/LNTssJU8CBMK/UHDCiKGtEshFwfqwKhAQlRzhJXsA9vvvuu/GWyC3iy3mTiTzo6U0vGYNwZaJ2GYzGJMMEzSEWJfHBiWYtadOorLyEIBGexXcnVNlIC1NClAlnKoOMzHynLGFa5XvSSKNhIkQSniOs1gY12WOZ81gEPa500EDV8lmELEwJm2T+XRGMltKh14r4FqaMtJH12Z7jZIdgs4fysgQcc/q7gmX1xbcUGXkaKIc/AYQk66TnQUIj2hrJ6CxGSrOSp+QJ0yr+CYFOozgvasIYOnSoO3ezrecqwqeKMLWICJb8yoMOIOoYbeUsGinUmu1+svBdvtlpSWFq0MvItbGjjjoq3tpY7Py1QmImHuhkmAA9NDi+ZLZNEiwQ3mOjpcCoanrJGEJO6eEtg8x/3KeNtJhDLFquBgGaFT7VKGEKhE5xH8yTNdLClFFi5suUwfxVzpUlTKt8T7IhNsvSPKJ54DnCam1Q49io60Xh4CRYoKMKqpbPImRhiijtXzIayjuzlvdhM+JbmJKfwJ5hnjPCQc2YL2/7SAqUNfe/Udh1qghTEgPRWViWaK8Ioovws0xpqcXwJ4CQRNDnwTQb/JWFzVpilKxIrTxhWsU/8T2K3gGGNUbzMvML4YsqwhTokM0bfQQSAnK+8847L97SkUYLtWa7nzS+yzc7TS1MCVEhhAbLaoyQNp1rY4gdH9j5a+WFF15w5W+99dZ4Sxv//ve/3cghc0ps2QNCWJMgrmlQJJeMYRSBuSZlkOwhKfbMISZHadPgEJNO1GikMAXCeZNrzaaFKaKa+bXWUMjDGgRZwrTK92QZARrIWaFbYuSF5wir1dniBChflEmUpF2W0Kdq+SxCFqZsZ9pD3kgR88x5PxYlrWhmfAtTllSzZ7jM+Lv5wq5RRZjSkcsxXZmWQ0MTH0vncBXwDYTrFsEzx7lJUkR5hGNWuH2eMK3in4isoJ6UJXW00OXk8mlCdAdVhSk+oigiwuZyp1dwMBot1JrtftL4Lt/sNLUwBVu6A7v//vvjrW0wH8n2HXvssfHWxmLnrxV7oF977bV4Sxs2asqICKG5s8wyS6fe4auvvtodmwwZIpSAbWSmzePLL790veDJ7L/NIkyHDx/uGpPJObZpYWrrO5b9DW2EvKvC1MKoy65XFkolwoJnAqvV2X799dcu7Dbv3Ud2aTpcjjvuOPe5avksQhamONWi3x/Rwv6ytR+bFXO2vnwlcyt512UZc5vt+SYKp2iphK5i16kiTEkMRBQL/r7WaTksjv/cc8/Fn9oyrXNdfEIRCL9kxzG+gZH4Iug0xceut9567hnOq6ONEKb2PbISExr4pv79+7slZ4TobqoKU975hKfnDQZsvvnmbgAjL7dCo4Vas91PGt/lmx3zlU0rTAcNGuTOjxGSxOgaYTgIJ9tOT2azzDHFYSHECP9Jw3IR3Cvn4zuksRFBer4NGrM0KnBejBik4TqMRjJH5/XXX4+3NocwZcSbFPncRzIhRVqYAklN+A55PVQ33XSTa7Rzrq4KU6BzgKxrWdkWgd+VdVSLlvoRYcFzhFVpUOPA6HBKL+kAdJyxjzpsVC2fJmRhSrZs1mkkSiQd7kwDgn3Mw29VfAvTIpp9jimQpZ53MgK1qPMBUXbuuee6nApEEyWnw5CjAd+SXnLMIAkR98ZyYEYtwhTIhcCxNGjpaM6iEcIUiJpgLmxSeCexqTvpqCshuoOqwpQ1d2n77rHHHvGWEfCMs4+8MXk0Wqg12/2k8V2+2Wl6YcpyI4TNcI08y1trqBHYNWqFeaRk2cuCxhW9MDPNNJNrhKWxOZTpJWNw2PTWslwKvaiEAjJ3E6dE6B+jMFdeeWVcuo3uFqZU5AMPPNAZDc+NNtrINRC4BxpFSbKEKaJ7nnnmcY0NypMOnzh/EjswBxVRus8++7jzNUKY8lvToOa3434QxFyPFxZZEVmQnX2MYouRA54jrEqDmnUPeZYZuWCOH88Vib4GDBjgOqjSHVBVy6cJWZjC7bff7sogMB577DEnAOg84hoIAqZKtCoSpuUwXxJBxvue0Une9UQfffzxx67BiKBkXVHOTwdGcl1QIKERI8JkJMZX0mFNG4KOUeskJdFQMhqmVmHKufEJJBrMo1HClHsmvJikgPhUkifhmxjppVOVc+K3hOgJqgpT4DnmGAabeJZp85H8k4EXEokVZZf2IdSa7X6S+C7f7DS9MAWcC8kRuE7SWJS7u5xsrZCtr2idPX4nlj3JgzlW6SVjgAYZjUAar8nfgOVzskb9uluYJu8JY3I5jcvk6K+RJUyBZQPYx8hp8lw4+zvuuMN9Fz43QpgCc5GYl8QoVfJ6NIzJ/EmIsRh5sL9/1QY1wpLs08lniJDEvPlyVcsnCV2YAss5TTXVVB1+H94BrRrCa0iY1gYdhPhAfIidK2k0Gs8+++wOI6VJmD5CMiE6S5PH0eAkAVl6ikatwhRInEfnUh6NEqbAFB2mwDCKnPweJArk+wvRU9QjTOHggw/u1L4j4s+WtcrDl1BrtvsxfJdvdlpCmBqMEl511VXuZc8fIi/+u5Hw3bBmAafNy+Cee+4pdHatDPONGCkdNmxYYTbDRsFc32effdbNWWKUhgaBGPmwul5Pg5rGLqMaV1xxhXtuy9YWrFp+ZINOI95x9GAzJzxPhLQSPSlMu5Ou1KMk+Hfex3RUEB1E52ReiG4WRCgxX9PmorbqM0QSJPzhXXfd5Tqo08JaiO6mXmEKn332mRNQ11xzTadcLD1Bs92PaDFh2hOYkxVChI3V9a42qIXIQsJUCBECXRGmQpQhYVqCOVkhRNhYXZezFT6QMBVChICEqfCJhGkJ5mSFEGFjdV3OVvhAwlQIEQISpsInEqYlmJMVQoSN1XU5W+EDCVMhRAhImAqfSJiWYE5WCBE2VtflbIUPJEyFECEgYSp8ImFagjlZIUTYWF2XsxU+kDAVQoSAhKnwiYRpCeZkhRBhY3Vdzlb4QMJUCBECEqbCJxKmJZiTFUKEjdV1OVvhAwlTIUQISJgKn0iYlmBOVggRNlbX5WyFDyRMhRAhIGEqfCJhWoI5WSFE2Fhdl7MVPpAwFUKEgISp8ImEaQnmZIUQYWN1Xc5W+EDCVAgRAhKmwicSpiWYkxVChI3VdTlb4QMJUyFECEiYCp9ImJZgTlYIETZW1+VshQ8kTIUQISBhKnwiYVqCOVkhRNhYXZezFT6QMBVChICEqfCJhGkJ5mSFEGFjdV3OVvhAwlQIEQISpsInDROma665pjtZaGZONmufTCYLx6yuDxw4MHO/TNYVM1/Jv1n7QzHVI5ksbOvTp4/quMybma+cffbZY6XZmZqEqT2oMplMJpPJZDKZTCaT1WO9evWKlWZnahKm/fr1c/8PzewHytonk8nCMavrffv2zdwvk3XFrPOWf7P2h2KqRzJZ2IZgUB2X+TLzlb17946VZmc0x/S/JoQIG6vrmjcjfICPDNlXGqpHQoSNtftVx4UPzFfynOUhYfpfE0KEjdV1OVvhAwlTIUQISJgKn0iYlmBOVggRNlbX5WyFDyRMhRAhIGEqfCJhWoI5WSFE2Fhdl7MVPpAwFUKEgISp8ImEaQnmZIUQYWN1Xc5W+EDCVAgRAhKmwicSpiWYkxVChI3VdTlb4QMJUyFECEiYCp9ImJZgTlYIETZW1+VshQ8kTIUQISBhKnwiYVqCOVkhRNhYXZezFT6QMBVChICEqfCJhGkJ5mSFEGFjdV3OVvhAwlQIEQISpsInEqYlmJMVQoSN1XU5W+EDCVMhRAhImAqfSJiWYE5WCBE2VtflbIUPJEyFECEgYSp8ImFagjlZIUTYWF2XsxU+kDAVQoSAhKnwiYRpCeZkhRBhY3Vdzlb4QMJUCBECEqbCJxKmJZiTFUKEjdV1OVvhAwlTIUQISJgKn0iYlmBOVggRNlbX5WyFDyRMhRAhIGEqfCJhWoI5WSFE2Fhdl7MVPpAwFUKEgISp8ImEaQnmZIUQYWN1Xc5W+EDCVAgRAhKmwicSpiWYkxVChI3VdTlb4QMJUyFECEiYCp9ImJZgTlYIETZW1+VshQ8kTAW89dZb0W+//RZ/EqL1kDAVPmkZYTp8+PDowAMPzLVvvvkmLtlYzMnWyg8//JB5f0k788wz49JtPPjgg+53fOedd+ItQojuxup6VWf7999/R0OGDIlWWGGFaKaZZooWW2yx6KijjnLvgiyqlocnnngi9/2RRZXyvu/n559/jk488cRo8cUXd+dfbrnloiuuuCL666+/4hKdufrqq9vPf/vtt8dbW5ueEqbbb799dMYZZ0S//vprvMUv9dajJB9//HF03HHHRSuuuGI055xzRn369IkWXXTRaODAgdHQoUOj33//PS45Ao6Zcsopo6uuuire0j3w20477bTRmGOOGS255JLReeed53z6vvvuG73wwgtxqTYuvfRS99usuuqq8RYhWo+uCNNjjz22/d3+2muvxVvzaaby6JDddtstmn/++aPZZ589Wm+99aJHH3003tuZZivfKrSMMLUXep69++67ccnGYuevlU8++aTDfWXZggsuGJdu44YbbnDbX3zxxXiLEKK7sfpZxdki6nbYYQd33KyzzhptueWWTuCNMsoo0dxzzx199tlncck2qpYHRldwOnZ/6fdHmirlfd/Pt99+G/Xr18+V69+/f7T11ls7J8rnAQMGRH/++WdccgRvvPFGNNZYY7Wff88994z3tDY9IUyffPLJ9t+x7LlpFHa9ehqtdFbw+4wzzjjuHAg+OjI22GAD19YYf/zx3XbE6iOPPBIf1caHH37o9l100UXxlu5hjTXWcOL/3HPPdf8fbbTR3H1MMskk0bXXXhuXauPCCy90+6hjQrQq9QrTSy65xB1ndsstt8R7smmm8nQyTT755NHoo48erb766tHmm28eTTfddM5X0jmVptnKtxItI0wHDRrU4QFKW7MJU3ph/vjjj0xLN8YkTIXoeayuV3G2F198sTuGXkvqtvHAAw+4RjQjPkmqlk+z7LLLVhIYZeV93w/OEseZHsUaPHiwu+7RRx8db8mGRr6Eaf2stNJK7prYySefHG/1i12vaqOV52+11VZzxzI6evfdd7uOkySMviPupphiCvdc3XTTTfGenhOm6Xv88ssvo1dffTVzVBdeeukl9z2EaFXqFaYGEQUcXyYcjZ4uz7uJjtuppprK1V/jl19+iTbccEN3bLKjrNnKtxotI0wXWGABdx160h9//HHXE5w0X3M2uCZWKyZMjz/++HhLORKmQvQ8VtdrdbY0SGeYYQY3EpgFIyic77777nOfq5bPopHC1Pf9MJdu1FFHjfbff/94S0c22mijaKKJJnKjqnlImNbPww8/7K6HMfLY7KG8jDpyHCP4NLyK+OKLL6J55pkn+uc//9keEt5TwlSIkY2RTZhapMOdd94ZbxkBHVBMNVhqqaXiLc1XvtVoCWFK7yK9o1yH+U/dCdfEaqWKMKVX9fDDD3cNNI7Zeeed3WdrCCJU+UzDjVHWyy+/PFp//fXdA0fIHfO8injuueeiPfbYw4UNLb/88tEuu+wSPf30027f888/786tnlsh2rC6XquzpS5R/rrrrou3dITOMsL5ttlmG/e5avksGilMfd8P80oRplnhwGBhprzX8pAwrZ9lllnGXQ87++yz463+sWtWabTyLBCCRthu0dzjJF999VWHDum0MH3ooYdc6PjSSy/t5l5dc801bnseCHfmh+JjmSu6zjrrROecc070008/uf2nnXZadMcdd7j/w/fff+98KL4UiDLYaqutCq+Hv+UY88NCtCIjmzAlVJapLXnQ3uf4jz76yH1utvKtRksIU3toMMQbSQ58jZCmsevWShVheu+997r5V7PNNps7Zt5553WfrRFx2WWXue3PPPOM6xnu1atXtOaaa0abbbZZNOOMM7pG3wUXXODKJsGx77XXXs7RE46Ho+S4mWee2W3bZ599nPPm3PQ8CyGqN6ipe5SnzudBaCL1GqqWz6KRwtT3/Wy66aZuLmoevKcYMaXDLA8J0/qgc5NrYfiKvLBSH9h1qzRaSWrEMSby6sGEKaMJPFN0ZvN8brHFFtFCCy3k9hFangXXJTEXZeaYYw43V5S2zdhjjx3NMsssrpOYUYgdd9wxPqLj9WiXJK+38MILZ14Pf8v2s846K94iROsxsglT5m5ut9128afOPPXUU+7466+/3n1utvKtRksIU1P/SSOkd911143ee++9uJQf7Hq1YsJ0v/32i958881MI5NWkrxQXhOmCNeVV165g4gk1InvP+6443bqFdl1113dcTjn7777Lt7axo033hhNPPHErreFMhKmQrRBfcBqdbaHHXaYy8RZBJk5J5xwQvf/quWzaKQw9X0/dIgRqVEEHXGIgDwkTOuDET97nonIYUQyPRfSF1XrEUw99dTRfPPNF3+qDxOK+EtEZjojrrUj0o21t99+20UGIDzTYeuff/65G0GdZpppnN/MEqZ517N51MnrSZiKEBiZhCkdqPihI488Mt7SGeZ2cvxJJ53UdOVbkZYQpoTUcI0sIwkCc5l8YdepFROmRUZjLkmZMGXUwcKJkiDKGQE9/fTT4y2Rm3/LMUWjEI899lh7aLSEqRBtUB+wWp0tUQmTTjpp/CkbkvtwTkRB1fJZNFKY+r4fRql4dxdBciVEVB4SptW566673HXShvB75ZVX4lL+sOvVWo+IfqI8STu6ggnFMcYYI3PZB55hBCQdukno9GXkPm+5No4jdI5zZwnTvOsBUUrJ60mYihAYmYTpjz/+6PYRyl8Eg2WHHHJI05VvRVpCmJK4gWtg008/vWsMEWJj24puvqvYNWrFhCnp7QmXzbL0hOUyYVqU+pnfZqeddoo/RW7uKeG7zH8pYpNNNnHnljAVog3qA1ars919991dx1gR9FhyTkIpq5bPopHC1Pf9sCwMo01FMFqal3wJJEyrs8QSS7jrZBnLC3zwwQdxST/YtWqtR/gqypP0qCuYUGR+Zx74veTcLH4Ljin7m9D5TbksYVrlehKmIgRGJmFK1CH7ytbrJrLogAMOaLryrUhLCFNGAWkgMXRt2fpI7JMUp4Tj+MDOXysmTGuZY2qUCVO+fx5zzTWXc34GveKrrLJK/CkfWxdWwlSINqgPWK3OlmyzjLQUQY8l0QlQtXwWjRSmvu+HRHXMbS+C0VIS3uQhYVoNFle355i/G2KPkO3evXu3bydHgU/sOlUarfjytddeO/5UHyYUWaotD4QlnbkGU1s4piyRIDDamiVMq1xPwlSEwMgkTC2ig9D8PAivJXrxiCOOaLryrUhLCNM8bL0erNYHsCp2/lrxIUxZcD6Pvn37dgiBYr4Lc4rKsGtKmArRBvUBq9XZ4hh4+eMo8iBBAaIAqpbPopHC1Pf9IEqLRkOBaQobb7xx/KkzEqbVoIfcnuNko4TcBvyWbC/rjOgqdv0qjVaS+0022WSd1viugglFljnKg/wLrP1nXHHFFe6YIh9r4GuzhGmV60mYihAYmYQp8M4sGn20dj9ZvaHZyrcaLS1MCVvl2ljIwvTdd9+Nt3QGZ0nYsEFDkRC6Mk444QR3bglTIdqgPmC1OlveOZQvyiRKRltLAFS1fBaNFKa+7wdBSVKZvPmpLPeBMC5K4iBhWo1kZ206kU9ySozPZcLsGlUarcyX4piLL7443lIdE4pMl8kDoTjllFPGn0Y0SG+66aZ4SzYIZrLiZwnTKteTMBUhMLIJU3xcUUQHCc44nrWjodnKtxpNLUx5ibOINuGqCLBkcgLW9iSTH9fG8hIXdBU7f630tDBl7UCOKQr/ZZif4ygnYSpEG9QHrFZn+/XXX7twybx3H+8klnQ67rjj3Oeq5bNopDD1fT8mfPN+T0QI+4vCKCVMq0G+AXuOk4KfqS42YjrBBBPEW/1g16/SaCW5H0sgMGpa67QccjUwpceoRygyd5oEYCRAKoK1fjm3hKkQI58wxQcxZxPdkQXLQtFxZbkYmq18q2G+simFKZC1kfNjpGw/5phjXAgaa43ZdpYl8IVdo1Z6Wpj+8MMPLvSOkN5PP/003joCRi/23nvv9u8lYSpEG1YnqjhbHADLSLz//vvxlhGQ+Id9CECjavk0jRSm4PN+yAcw66yzurmm6XBhHCr7llpqqXhLNhKm1eDZteeYbLEkuKKzcoYZZmjfXhQ63QjsOlUbrQ888IDLJIlALeqswIcRPstSRyw3REcr1CMUwRJ88W8WJD4iHJcyEqZCjHzClKkQvE/32GOPeMsI6Bxj36GHHhpvab7yrUbTC1N6T8kcyTWyjFCxWuaH1Itdp1ZMmCKWWQMwy84///y4dBuNFKaAU6e3hBFlQqRef/11t9bp0KFDXUOSnpbtt9/enVvCVIg2qA9YFWdL45SG54wzzugSqXzzzTfRyy+/HA0YMMCFqaYbrVXLp2m0MPV9P7fffrsTl8sss4xbpoqMgoSYcgzvofTaj2kkTKuD8LRnOW1k5c3qhGgkdq16Gq133323G9FlpJ5st9dee61biuXjjz92DS4E3SKLLOLOT4dH0n/VK0wRupalns4Y7pvr4Y8PP/xw95ySt4FQaAlTIUY+YQoHHnigKzNo0CAnDJmKcvnllzt9QuZtlnFJ0mzlW4mmF6ZA44WGDNdJ2qKLLpq7flijsGvVignTIqMxl6TRwhQQ62TnpXFp18XZMwKNUMWZsk3CVIg2rJ5UdbYIObJh2/EYIYl58+Wqlk/SaGEKvu9nyJAh7SNOZkzPqCUTqoRpdQjf2nnnndtDd80WWGCB6NVXX41L+cOuV2+jFR+67bbbugQfyfs3o9F19tlnt4+UGvUKU0CcnnLKKZ06wflMhBbX6tOnj4SpEP9lZBSmcPDBB3dYDQSjnf3555/HJTrSbOVbhZYQpgZJOugRIJNeWU97o7A/dqvy2WefuZcHoxQ4fCFENlbX63G2NGyZ1827adiwYaW9lVXL+8b3/ZBs55577nHvb5Y0SYuKkYHuEqYG73s6BejgpBOAv3F30JV6lASBzSg734Hlze644w5vuSQMkhw9++yz0V133eX+7UqWYCFCpavCtJWhTY2Aveaaa2oaGGu28q1ASwnTnsCcrBAibKyuj4zOVvinu4VpT6F6JETYjMzCVPhHwrQEc7JCiLCxui5nK3wgYSqECAEJU+ETCdMSzMkKIcLG6rqcrfCBhKkQIgQkTIVPJExLMCcrhAgbq+tytsIHEqZCiBCQMBU+kTAtwZysECJsrK7L2QofSJgKIUJAwlT4RMK0BHOyQoiwsbouZyt8IGEqhAgBCVPhEwnTEszJCiHCxuq6nK3wgYSpECIEJEyFTyRMSzAnK4QIG6vrcrbCBxKmQogQkDAVPpEwLcGcrBAibKyuy9kKH0iYCiFCQMJU+ETCtARzskKIsLG6LmcrfCBhKoQIAQlT4RMJ0xLMyQohwsbqupyt8IGEqRAiBCRMhU8kTEswJyuECBur63K2wgcSpkKIEJAwFT6RMC3BnKwQImysrsvZCh9ImAohQkDCVPhEwrQEc7JCiLCxui5nK3wgYSqECAEJU+ETCdMSzMkKIcLG6rqcrfCBhKkQIgQkTIVPGiZM+/Xr5/4fmpmTzdonk8nCMavrffv2zdwvk3XF+vTp454v/s3aH4qpHslkYVuvXr1Ux2XezHxl7969Y6XZmZqEqZ1IJpPJZDKZTCaTyWSyeowOkDxqEqbbbbedG9YPzewHytonk8nCMavrgwcPztwvk3XFBg4c6J4v/s3aH4qpHslkYRsjparjMl9mvnLBBReMlWZnNMf0vyaECBur67wYhWg0mmMqhAgBa/erjgsfNGyOqYSpEKKVsbouZyt8IGEqhAgBCVPhEwnTEszJCiHCxuq6nK3wgYSpECIEJEyFTyRMSzAnK4QIG6vrcrbCBxKmQogQkDAVPpEwLcGcrBAibKyuy9kKH0iYCiFCQMJU+ETCtARzskKIsLG6LmcrfCBhKoQIAQlT4RMJ0xLMyQohwsbqupyt8IGEqRAiBCRMhU8kTEswJyuECBur63K2wgcSpkKIEJAwFT6RMC3BnKwQImysrsvZCh9ImAohQkDCVPhEwrQEc7JCiLCxui5nK3wgYSqECAEJU+ETCdMSzMkKIcLG6rqcrfCBhKkQIgQkTIVPJExLMCcrhAgbq+tytsIHEqZCiBCQMBU+kTAtwZysECJsrK7L2QofSJgKIUJAwlT4RMK0BHOyQoiwsbouZyt8IGEqhAgBCVPhEwnTEszJCiHCxuq6nK3wgYSpECIEJEyFTyRMSzAnK4QIG6vrcrbCBxKmQogQkDAVPpEwLcGcrBAibKyuy9kKH0iYCiFCQMJU+ETCtARzskKIsLG6LmcrfCBhKoQIAQlT4RMJ0xLMyQohwsbqupyt8IGEqR++//776IMPPog/1c9bb70V/fbbb/EnIUQeEqbCJ00vTB966KHowAMPLLWLLrooPqKxmJOtl59//jm64IILovXXXz/q27dvNP3000fzzz9/tNZaa0UXXnhh9O2338YlO7LoootGu+yyS/ypOfjpp5+ic845J1pjjTWi2WabzX2XBRdcMNp6662joUOHxqWEaE2srld1tn///Xc0ZMiQaIUVVohmmmmmaLHFFouOOuqo6IcffohLdOaJJ55of3edeeaZ8dZsfJ8ffJbnHXjiiSdGiy++uLv/5ZZbLrriiiuiv/76Ky7Rmauvvrr9/Lfffnu8tbXpTmH69ttvRzvuuGM077zzRjPMMIPz02effXbhb94oqtajRx55xP2d33nnnXhLMTfddFN00EEHueefujHLLLNEo402WvToo4/GJapz6aWXunteddVV4y1CiDzqFabDhw+PdtttN9cGnn322aP11luvtN4ee+yx7b7gtddei7dm4/v80Mr30yo0vTA9/vjj3fnLbNlll42PaCx2/nq49tpro6mnntod36tXr2iJJZaINtxwQ9fAtO0TTzxxpqieeeaZo4EDB8afep677747mnLKKd09TzHFFNHyyy8fbbTRRu47jTvuuG77QgstFL3yyivxEUK0FjzDWBVnS8N4hx12cMfNOuus0ZZbbunq9yijjBLNPffc0WeffRaXHAGjMjgpux6dO3n4Pj/4LE/HW79+/Vy5/v37u04snDSfBwwYEP35559xyRG88cYb0VhjjdV+/j333DPe09p0lzB94IEHovHHH7/990vayiuvnPmbNxK7Vq316L333nPCcqeddoq35MOzN9VUU0X//Oc/3WfqB8J71FFHdZ3Y9UInMfdM3RJCFFOPMH3hhReiySefPBp99NGj1VdfPdp8882j6aabzvmyM844Iy7VkUsuuaT9fYLdcsst8Z7O+D4/tPL9tBLBCFNf17fzV+Xoo492x00zzTTu4fnll1/iPW3Qcz1s2LBovvnmc+X23nvveE8bzSRMGRHB8U877bTRlVdeGf3xxx/xnja++eYb12szzjjjRBNOOKFrGAnRalhdr+JsL774YncMvaLJemHiYMUVV4y3ZEOHWpGw833+NI0ujzPGMV911VXxljYGDx7svhfvySIQLBKmtYPoJJKF65iNMcYYHT6feuqpcWk/2HWq1CMiiCaYYILou+++i7dkYw2x6667Lt4SRV9//bULw+0qL730khvdF0IUU1WY4rvoWKVTiXpm0C5msIZzETmRx4MPPujK5Akv3+dP02r302o0vTBl7ggPf9ouv/xyd10Mh4Zz8oFdowo0wjiGEYLPP/883poND/Amm2ziRiM/+uijeGvzCFPCDmhYElr8xRdfxFuzoYeIkeBJJ53U9YIL0UpYXef9Ugs2WkM9z+Lcc89157vvvvviLZ0pEna+z59FI8sjFujQ2n///eMtHSHiYqKJJsqdzgASptWgw8KeY97FjD4jVg844ID27Yxg+8SuU2s9gnvvvdcdc/LJJ8dbsllggQWiPn36eB/1FULkU1WYWkTCnXfeGW8Zwe+//+7q9FJLLRVv6UyZ8PJ9/jStdj+tRtML0zyYf8l1sbyGTyOwa9TKjz/+6HpJaBR8+umn8dZicLJpAZsUpswX2meffVz47Gqrrebma3GdIpiHs8UWW0RLL710tNJKK0X77rtv5TBbRnUJ2SN09+OPP463FkMFQcgyp9b4z3/+4+amFsEcVUZdaYy/+eab0eGHH174+zEnCBOiUVhdr9XZPv300658cvQmCWGHk0wySbTNNtvEWzpTJOx8nz+LRpbnPYUwzQo3hieffNJ9PzoZ85AwrcY111zjroFtv/328dbIdSra9t69e8db/WDXqSJMgdB05oviA7Iw0U0UVZI77rjDjcAbJEPCfzz//PPuM8dttdVWzhcyx4vfKA0jpRxDncvi5Zdfjvbbb79ozTXXjJZcckkXhk7HUNYILzklsq5h0GnLtZKdt/i/0047zf2fjpoTTjjBhf8xH5toqg8//NDty4M6xjEbbLCBuz/yQDAP/f33349LZPPcc89Fe+yxhwthpn1Bu8p+A34/7lOjyCJNVWHKs0z9zsMiI5ODM0nKhJfv86dptftpNVpSmCJYCBvluuONN17pSF5X4BpYrTBflPKnnHJKvKU+TJhedtll7rvSU0xYHCKTxhrztAihTfPVV1+5nhjugQbIKqus4j5zDo477LDD4pLl3Hrrre486YZAGTh/4uhNzJ511lnuc54wtnlDjKAAlYvrPvvss+5zFjx3RQ+tEFXhmcNqdbY0QCn/ySefxFs6Q0cSCWjyKBJ2vs+fRSPLb7rppq5jKw86vhgxLUryJmFajWeeeab9OV544YXbkx0h3my7zc/0hV2nqjCl85Lj8DtZ/Otf/3L+Pu33SPJExJGBiOM8jFrsvPPOrqOU55SOWn4T9uFLk5hwx1clIeEfHT/sw0ch+BB/nAefRnTQjTfeGJdug/qAgM2D34XzJX8fhDOjKPz9mIfG//GH+FKmx9ABlSeaTz/99Gjsscd2vw3iEtG8zDLLuG1890MPPTQuOQKei7322st9B6YEINq5Z9odbKMj3NoyPttXojWpKkx5prfbbrv4U2eeeuopd77rr78+3tKRMuHl+/xpWu1+Wo2WFKa8ULkm5rvRYtepFZwCL/auhhbjIDCcTXrEhIeQ5CDpBt2vv/7qHCYilEZtsueZ+yFkmO9yxBFHxFuLIRkF5fNGPPKg95fjmA8EOHcceN7IDuKb8mT6BCoXnyVMRXfCM4fV6mzp5BlzzDHjT9kQqUDDMo8iYef7/Fk0sjyNXRrKRRBWSmM/DwnT6pC12Z5lchjgk/Ajtu2GG26IS/rBrlNVmDIyhwDLmjf97rvvumdh0KBB8ZYR5AlTMseTBZopJklsfnOyUZglTPGfZOnFnyKa0+HDhKrT6ct94ZONeoUpCRKJTiLsmnA/A//LfDWy+qc55phj3LkQ4OnRWz7z27Cf0dMku+66q9tOGyJ9HEKbpIyM+FBGwlSkqSJM6QShjhx55JHxls4w95LznXTSSfGWjhQJL9/nz6KV7qcVaTlh+uWXX7Y7WXoEi0YTGgHXwWqF+WD0rHYVRCnXRWBmQe/vZJNNFn9qA+fDMYTx5kGILb2ohMuWQaMSQVkVHDb3kRydxdny98qac4uYTs6jo3JxvISp6E545rBaG9R0kJXVD0uClheeWCTsfJ8/i0aWJ0v3OuusE3/KBhFC6GEeOHgJ02pYCHiWlXUUNAK7VlVhCoSt0rGbXvaAcNOs7ZAnTEn6lLd8Av513XXXjT9lC1Obw13U2KMzmOio5NSaeoUp24gyyMKWs0kmUiECifrBe6II2hDJkN7HH3/cnasoUuGxxx5z7QTKSZiKNFWEKXWDshaqngeDLYccckj8qSNFwsv3+bNopftpRVpOmCaTONBL6Bu7Vq0QcjvnnHPGn+oHx8k81WQmziTnn3++uy+EukH4D3NSikDI43D4HcugwUhPbVXo4eXeGM0xCOtl9CcdVvTwww+7ssk5OVQutkmYiu6EZw6rtUG9++67uxGOIugR5ZzJEZAkRcLO9/mzaGR5phsk55pnwWhpXnInkDCtBqNf//jHP9qf5Swr6slvBHadeoSpLR2D2DRYr5SQb5a6ySJPmBIGmwfRQ8k5YFnCdJ555qlrXdOuCFPmsmZhnb3J6CnaP3ROM/pSBZacInyXubhFWISVhKlIU0WY8k6ibNl610T+5LVLi4SX7/Nn0Ur304q0lDBlbgl/TK6HyClLCNAIuBZWK8wBJQymqyBM8xwxsEYq92Vp8k0MknCkDEYyalmvjR5lGgR5ozF5WPx8+l7oDaahnXSkzNchHj8pwKlcHC9hKroTnjms1gY1SdeoH0XQI0pHUB5Fws73+bNoZHlCSosa6EDnV1FnmoRpNSxEE0OgDhkyxCWZIpoGn8l2ElIlR94ajV2/HmEKa6+9thNOFmLKyAPnY55sFnnClGR6eXAMy58ZaWFKWDEjtGWjHlnUK0xZDzwPuz86pA3C4MsiErIgvJvcE2XYKK2EqUhTRZiSQ4SyyQRlaQh/pb7lTTMrEl6+z59FK91PK9JSwpTRNq6FFU0sbiR2vVo5+OCDXXnLCFgvCFNLBpQF84S4joUqvfPOO+7zeeed5z4XQWNy8cUXjz/lg2PnnHlJF/Kw4xgNTYLQTN4jGcloVKcbELfddlvpdUngQYIHIRoFzxxWa4Max4NzwRHlwXuqKAtqkbDzff4sGlmexnnRaCiQHGnjjTeOP3VGwrQahH5zDcLE0pnUmVphz3h3ZLKvV5iacGPpGDpFidqZY445cjtI84Qpobh5IOCTU27SwpRl6vicN5WmiEUWWcRl5czjnnvucecmW7CBMGXN8zzolOeYs88+O94SufmzeaG/RTD3tqhtYVgbQ8JUpKkiTIEO1qIoPSL5OF9e+7VMePk+f5pWu59Wo2WEKb2njERyLcQMyRC6A66H1QqJFiifzvpXFYRp0Tqm5jReffVV95kEQ/wuyfDZPFiAnZHKMlimhoZhUcMxDXNuuHfCiukVSkNCFHryaWTQOGK+cDpR1EMPPeS+2/333x9v6Qwh0yzKLkSjsLpeq7PFCVC+qBOKjLlF8/qKhJ3v82fRyPIISpLZ5AkKMogjvItCSyVMa4eQV3uGES1prMMPY5F3X9g16hWmQBgtS8fcfPPN7lzJENs0ecKUrLJ5IEyTx6SFKVE9+NN6nj0iAPBzedh3YqkWA2GKz8zDhGnyd1hiiSUq1VWDOkuYfRksP8M1JUxFmqrClOeUSIg8SETG+dKDGUaZ8PJ9/jStdj+tRssIUxovXAcj8U93YdesAuE1NLjSaeTzQAASmpukqjAFHCJhsUVzTljwl+MsY24ZrIXHdylaly0JWRM5P5l2szCnTMWkd3+HHXaI94zAepPyYvQJ+yWDYSgNVtEc8MxhtTpbOlRovOa9+4hiIGzyuOOOi7d0pkjY+T5/Fo0sj5Ms+j0vvvhit9+ycWchYVo7dACQYI5r8Fyw9EgSy7KO+czPYNfoijC1xEOMatIhTcdrHj6EKZCYi6knZXMx0x0vRDGQHyKdxddg+TV8qoUqQz3C1BKfkcyoiPT9McWm7Dg6lckCTDkJU5GmqjDlHc40PNbozYKBHNp0ebkSyoSX7/OnabX7aTXMVza1MCXLFZP8uQ4NlVoyyjYKrolVgRc5o5I0EoqcIzA6SCgeD+nw4cPjrfUJUx5OGiQ89FlOEYeN8yMsKq9CpOG3p3eV+UlFoVHMybEEDiRXyAMnSSgRlRbnnJc1EadIuayKbYsTDxs2LN4iRNexul6lQU1do+GctZA9iX/YV7R0VJkQ9H3+NI0sTwcSYZjMNU2HI1Ov2cdyG0VImFaDZFL2HBNOxm/HyBdh1bYdu+uuu+IjGo9doyvC1JaO4Txk6i3ClzC1zLRE5hAJlAXfkdHppMgz35w8l0GUAG0DRjuT1CNMEcyE/zKynLdQP9vnmmuuDr6bkXXaHPjXTz/9NN46Anw0vznXwyRMRZqqwpQ2O1myya6dhsgB9mWtt2uUCS/f50/TavfTarSEMDUhglUJK20Edt2q0JBEAHLsoosu6tZBIyQP8Umad0ZIWTAccYZzSfde1iNMwbJ0MoeUUU6EHz3njKpMPvnkrgc4L/NfHjgmkpRwXhIuMM+FBEec++67744OOugg17PNfkZA8zIJG4yEUrYoudN9993nGqWE/TL6Sog0c3I4P79ZWVIVIarCM4lVaVDTCKaBO+OMM7oICRqQ1C9bz7isY6pMCPo+f5pGl7/99ttdPWY+OA19Romo2xxD51R6jck0EqbVoNHDupv2LGcZ8x/To2iNxK7TFWEK++yzj/v7Z3XKJPElTIFzIE7J4Mv/33jjDRfRQ4cyvoj7w7+nR3SJXqKTmCVZaDTi+4lSQgzSKE1HCdQjTAHfTqc9xggq9YlEiPxLwis6vPH76XYC12cfI7skeHr99dediGUNcuo0dZNoKa4pYSrSVBWmcOCBB7pjiKpDuNFJc/nll7s2KfWLQZA8ahFevs+fpBXvp5VoCWFK+CmZZHnRI+q6E74bVg+E1OIs6CG18yQNQYrzzQoVqleYAvtIKpK8Fg6Unt965+YiNs8444xohhlm6HBeM9YiZQ5TLdx6663uGP6uRbAfR568DqPQNAjyerCFqBd7xqo2qBGKZLpMPqc0FAlVLaMWIej7/El8lCczrHVcmTGKUxTCa0iYVgfhzyhe8vfGEFhbb711YYOoEdj1uipMEaS1zIX1KUwBEUqyPTqC7Lth+G8SSmUlJ0Oo8luThCp5DEvJZf0u9QpTIFETyYws67IZ+RuIuMgaFQVENtl5k9+LNhYhzAhVfj+2SZiKNPUIUyA5qE03MOMZzFrfPkmtwsv3+Y1WvZ9WoSWEqZGeM9Md8N2wrkJ6fuZX0mvKv/Rs++y1BhwPI5qMNNJb0yhoKCN++S70sNIQqAJL1TASWiuIb8J2GXHJi9kXoqtYXa+nQU1dJurhiiuucM9qoxv/vs/vG0IzyUZKj/Gjjz6amRgtdLpLmALPC/6SdS9Z9oNOw+Sa1z7pSj1qZhB4JOSj/tFBXsszjKDkeeeYvGkrjYJ3AteiQ5e/PXWuFhhh5W9FhwajwUKUUa8wBZ43BJRF9DUa3+evSrPdTyvQUsK0JzAnKxoDDp0eWkKbhWgmrK6H1qAWzUF3CtOeRPVIiLDpijAVogwJ0xLMyYrGsO2227psvLX25grRXVhdl7MVPpAwFUKEgISp8ImEaQnmZEXXIZSMxBw+F3cXol6srsvZCh9ImAohQkDCVPhEwrQEc7Ki6zA/9MknnyxdF06InsDqupyt8IGEqRAiBCRMhU8kTEswJyuECBur63K2wgcSpkKIEJAwFT6RMC3BnKwQImysrsvZCh9ImAohQkDCVPhEwrQEc7JCiLCxui5nK3wgYSqECAEJU+ETCdMSzMkKIcLG6rqcrfCBhKkQIgQkTIVPJExLMCcrhAgbq+tytsIHEqZCiBCQMBU+kTAtwZysECJsrK7L2QofSJgKIUJAwlT4RMK0BHOyQoiwsbouZyt8IGEqhAgBCVPhEwnTEszJCiHCxuq6nK3wgYSpECIEJEyFTyRMSzAnK4QIG6vrcrbCBxKmQogQkDAVPpEwLcGcrBAibKyuy9kKH0iYCiFCQMJU+ETCtARzskKIsLG6LmcrfCBhKoQIAQlT4RMJ0xLMyQohwsbqupyt8IGEqRAiBCRMhU8aJky3224795CGZkknK5PJwjWr64MHD87cL5N1xQYOHOieL/7N2h+KqR7JZGFb3759Vcdl3sx85YILLhgrzc7UJEz79OnT7pBkMplMJpPJZDKZTCarar169YqVZmdqEqb9+vVz/w/N7AfK2ieTycIxq+v0Bmftl8m6YtZ5y79Z+0Mx1SOZLGxDMKiOy3yZ+crevXvHSrMzmmP6XxNChI3VdUJJhGg0mmMqhAgBa/erjgsfNGyOqYSpEKKVsbouZyt8IGEqhAgBCVPhEwnTEszJCiHCxuq6nK3wgYSpECIEJEyFTyRMSzAnK4QIG6vrcrbCBxKmQogQkDAVPpEwLcGcrBAibKyuy9kKH0iYCiFCQMJU+ETCtARzskKIsLG6LmcrfCBhKoQIAQlT4RMJ0xLMyQohwsbqupyt8IGEqRAiBCRMhU8kTEswJyuECBur63K2wgcSpkKIEJAwFT6RMC3BnKwQImysrsvZCh9ImAohQkDCVPhEwrQEc7JCiLCxui5nK3wgYSqECAEJU+ETCdMSzMkKIcLG6rqcrfCBhKkQIgQkTIVPJExLMCcrhAgbq+tytsIHEqZCiBCQMBU+kTAtwZysECJsrK7L2QofSJgKIUJAwlT4RMK0BHOyQoiwsbouZyt8IGEqhAgBCVPhEwnTEszJCiHCxuq6nK3wgYSpECIEJEyFTyRMSzAnK4QIG6vrcrbCBxKmQogQkDAVPpEwLcGcrBAibKyuy9kKH0iYCiFCQMJU+ETCtARzskKIsLG6LmcrfCBhKoQIAQlT4RMJ0xLMyQohwsbqupyt8IGEqWh2/vzzz+j111+PPwmRjYSp8EnLCNNvv/02Ovjgg6MFFlggmn766aMlllgiOv3006M//vgjLuEHc7JVefzxx+P/1c4TTzwR/y9M9t9//2ieeeaJPwnRXFhdr+ps//7772jIkCHRCiusEM0000zRYostFh111FHRDz/8EJfoSNXywLvhwAMPdHbmmWfGW/OpUt73/fz888/RiSeeGC2++OLu/Mstt1x0xRVXRH/99VdcoiNVy7cKPoTp888/3/53MHv//ffjvZ155513okGDBkVzzz23+22XXXbZ6Pzzz49+//33uETXqbceQVW/+dlnn0Xvvfde/KnnoK7QFrr++uvjLY0nWefy7LvvvotL18eWW27p/nbHH398vEWIznRFmB577LHtz+trr70Wb83HZ/nhw4dHu+22WzT//PNHs88+e7TeeutFjz76aLy3M77Lg+/fpxVoCWGK45l55pndddKGY/3ll1/iko3HrlOVpZdeutJDcsstt0Tbbbdd/ClMdtxxx2jKKaeMPwnRXFhdr+JsEXU77LCDO27WWWd1DTsE3iijjOIa/zSck1QtD7/99ptzanZ/Cy64YLwnmyrlfd8PHYr9+vVz5fr37x9tvfXWzknzecCAAW6EJknV8q1Eo4Upv4X9Nkl78MEH4xIduf/++6Pxxx+/U3kM8f/TTz/FJbuGnbNqoxVxPMsss1QSyXvuuWd05ZVXxp96jm+++cZ959NOOy3e0njOOeecaLTRRms3rkc9TW776KOP4tL1sdlmm7nz0jElRB71CtNLLrnEHWdGu7cIn+VfeOGFaPLJJ49GH330aPXVV48233zzaLrppnN16owzzohLjcB3efD9+7QKLSFMraGC8UedYoop2j9jO+20U1yy8dg1qjL11FNHm2yySfypnEUWWSRaZpll4k9hImEqmhmr61Wc7cUXX+yOoVc0Gb3xwAMPOBGw4oorxlvaqFo+DR1xZcI0SVl53/eDM8YxX3XVVfGWNgYPHuyue/TRR8db2qhavpVotDA96aST3PnSliVMEfyTTTZZe5lRRx016tWrV4fjEHmNwM5XtdFKCCnHMYJbC1988UU03njjRf/+97/jLT1HdwjTNBNNNFG0wQYbxJ8aA50CjMILUUS9wtTgHcXxtQqpRpfH19ERO9VUU0UvvfRSvDVyg1wbbrihO/aRRx6Jt/ovn8b379PsNL0wffjhh935sUknnbT9j3zHHXe09xqOMcYYzvH6wK5dBXqeOYb7e+ONN+Kt+fBdKE9vSshImIpmxup6rc6W0cYZZpjBjexlce6557rz3Xfffe5z1fJZNFKY+r6ft956ywkgQviz2GijjVzj2t7dVcu3Go0WpoR28qxiiy66qDs3RiMlDaGZtn+22WZrD/e98MIL27ePNdZY0aeffuq2dwU7X9VG66233uqOI8Q42UmSx3777efKb7rppvGWniMUYSpELbS6MLX33p133hlvGQGdM3369ImWWmqpeIv/8ml8/z7NTtMLU4a8OT+WbrCsttpq7fvo4feBnb8K9DhyDI0sQmPKYC4V5RkNLgpLfu6556I99tjDhdotv/zy0S677BI9/fTTbh/XPPzww938LGPo0KHtjpLG3AknnOBCCgjb2nvvvaMPP/zQ7cuDhgKhfVQgfuvDDjusPVTo5ptvdqFFSX788cfokEMOcfeGw7z77rvjPW2khembb77p7rmoMXTppZc6E8I3VtdrdbbUPcpfd9118ZaOEPI6ySSTRNtss437XLV8Fo0Upr7vh3mivAOzwoHhySefdNe//PLL3eeq5VuNRgvTJKuuuqo7N0YjJc2SSy7Zvv/GG2+Mt7aRPPaiiy6Kt9aPnatqo/WUU05xf3+OpWFXxFdffRVNMMEErixzovPAH5599tlubhe/wZprrulEOqOtWVT1mZwfH8b8Lu4FP8lnQuzS0PFy0EEHud8bn0pEFWHItYjwLGoRpr/++mt03nnnReuvv777/uuss47z2xa2zXelY9x49dVX3f1/+eWX8RYhOtPqwpQ6zVSVPKwjz9q7vsun8f37NDtNL0xxKpwf22effeKtbayyyirt+5599tl4a2Ox81eBhh7HIBwZNcUh5TFs2DBXduDAge7f5LC/QdKPvfbaywlXwuuYv4qDZd4t2/hdaFBwfNLhbrXVVq5n5plnnnGjsfyfUQec9IQTTuganSZsk3z99ddOXHI+QpJXXnllZ4xY0xi45ppr3P3ONddc8RFt851oIJizXGihhdzxyb9ZWphSiShT9Lfj+Sp6OIVoFDyLWK3O9oILLnDlP/nkk3hLZ2iozjvvvO7/Vctn0Uhh6vt+GMliLmoevNd4X/CehKrlW42eFKb8buzDH6U7P5Odv7vuumu8tX7sXFUbrUzJ4e9Pxyu+rWg+MQKPEV7C4ghRzgK/gs/jXvBVNBbxS4jfiSeeOLMRV9VnIl6ZamT+jggEPm+77bZxiTb4jblf/DffD4E4xxxzuGOYJ1yUsCqPMmFKZzWjz1yDa62xxhrOl4499thuLu+LL77ovh9+2bj22mtdeQSqEHlYu79VhSl1uyiny1NPPeWOt2Rmvsun8f37NDtNL0zJ0sf5MZwJ4UvAiJ2F8jLPJDlS2Ejs2lU45phjonHHHTf6/vvvnZjbYost4j2d4ffDab788svuOunebKCxwD4aZOmse5Tnd6F3hjJpYco8IubkHnDAAR2SSjAqQQx837594y1t0MOKYx1nnHFcKF+yN5cRlCOPPNI5WBoQSWFqAjsprJm/lnxxSZiKZoZnEavV2RJBMOaYY8afstl3331dgxaqls+ikcLU9/3QgUYHVxG8a2gwQ9XyrUZPCVNGF23ftNNOG28dAeFmth/B1FXsXFUbrSuttJLrbGbuFcdnjToCYhBRRtKus846y5UllDbJ22+/7XwfQpHpQEkQXWT3Zy5zOky9Hp8JRaG8RPywj46XdBj6Pffc4/4mCPH0vjKKhCnfHxGN8Ex/x88//9yNoE4zzTSu7SBhKqpi7f5WFKZ0cKIdaMvmQecdxzOP33f5LHz/Ps1O0wtTYCSOa5jR45f8nO6dbCR2jSqQSdKG8Xk4cYA4ijSEH3NuEn0gCOnJZYg/iQnzolGCxx57zF2Dcmlhyra8OTjmMJNiktTTbCtKe094E2WSwvSyyy5zjVy+Rx4SpqKZ4VnEanW2RDHQ8VQEyXo4J/M5q5bPopHC1Pf9MIpUJnRIrkSIIVQt32r0lDAlq73tS76zDfyH7S/rGKgFO1fVRiujeJbIkPtABGaNmlqHCqOMd911l7sWYd5JGJVEdL377rvxlo4gAjk/gjDZ+VqPz4Q8YUpHMkKX0N28EeBXXnnFfZ+qyaeKhCkRTuxneaAsqM+MIHPPEqaiKq0sTJlyxr6sTqQkDMAwNc13+Sx8/z7NTksIU5wLPZ9cJ20IsryXbyOw61SB38R69Rk1pecSh5eGeStzzjmn62EBhv/TIps5noT/cJ4imK/CfWYJU0ZjsyDEmP3JOWY46jIhiIPl75Fs5CC86SViTm2eOJUwFc0MzyJWq7Pdfffd3chKEZY5lZGXquWzaKQw9X0/hCgyMlME70lLvlS1fKvRU8LUst1iWWHZNtcYa0RmeDtXlUYr4hBfbiMIDz30kDsHHZ5JzJ9amBx+h3Ksc2vQHmDbEUccEW/JxkQY4taox2dCnjC1cPl777033pLNxhtv7EKS8zqAssgTph988IG7ZtlzZt9FwlRUxdr9rShM6SxiX9n620QKETXhu3wWvn+fZqclhCkw75F5JfSqJ0dMixJzNAK7ThV69+7tGn0GDpLMwcneWxbZ5bzJRB70qqYbBvPNN58LbyrDenLTwpSQ4jwoyzGWnp9eZD4fd9xx7nMRCOZ077uts4a4zQpJljAVzQzPIlarsyUZG43DIugRpcENVctn0Uhh6vt+iHRhLnwRjH7SQQdVy7caPSVM8Tu2jykYaaxRg9Xia8qwc1VptJIIj2NuuummeEtbxy33ax23wPqa+FJGgcEEbXLJmKuvvtqdKyt/QpIffvjBlUuu2VnVZxp5wnT77bd32/F7RWaJnBCVtZInTPG9nMumPRXBHFQJU1GVVhamTEljH0uQ5cE7h/wttN19l8/C9+/T7LSMMDWYH8GcUq5p4Tw+4TpYrTDXlQcu6aDoQSGsKCmimU+Tdro4RUZNk5Dan+QLZdxwww3uPtPClHkkeZgzJcEUfPzxx+4zc0vLYN5rVlgYmYP/+c9/uvMw+pFMtJEWprfddpsrV9SA4Fyhr+8qmgOeRaxWZ4vjoa7jiPJgZIeOKqhaPotGClPf94PILBvd5B3IaBFULd9q9JQwNQGG4YfSmJDDSGrXVexcVRqtt99+uzuGhDyGNbas85YQOUYVmSqThI7QZOitLdWA2C2C0UlELRl1jao+08gTpkQQ8ZuTnLAW4zy1kidMGT3mXmpZqo75shKmoiqtLEyBupM3WgkkBOR4MlqD7/JpfP8+zU7LCVNGIrkelnyh+sKuVSsvvPCCK89SK0no0bWeXlv2IL0MCj23NBSTYo6GHyFuZdi8z7QwJflBHuZMSSAB9D4zGp0c7c2DbJ1ZwtQgcQUdB0VZeS1c6/7774+3dIYkFWuttVb8SQh/8CxitTpbnADlixakJ3TS5u1VLZ9FI4Wp7/thzhxhl3nhiSTl4X1nSSKqlm81ekqYAiHbtj89Ksfvbvsa8dvauao0Wk899VR3jC1jYtApSUZZOnDJv4CQTE/dYT5pcskYS+aE2C3CwoDN/0FVn2nkCVMap/h9H8kZ84SpNVKTo89ZMCWH+a8SpqIqrS5M8Vlrr712/Kkz5FjheEuc5rt8Gt+/T7PTUsJ0+PDh7WG8/Mtn33AtrFbsgXvttdfiLW3YqCkjECQdINFDOhmC9VwnEyuwth/bSIKUB06bnk/KdUWYAvdGI4Ze9jwYWUV0FglTGDRokPueRlqYWq9RXiw+QhnHWTUphBD1wLOI1epsmV5AQznv3UcDmoRmFhpftXwWjRSmvu8HJ1n0e5K1m/0Wcli1fKthztaHrywTpjSSbH+yJ585m1NNNVX7vkasB27nqtJoJbkf95GGTkvOxSgoviMrwz3ZeZNLxiACmb+17rrrxluyIZSd5zspdBstTPPmyqbhXtKd2WXkCVPmg5PUjARIRdiydhKmoiqtLkxpU/KOyMuEvfnmm7u2p+VW8F0+je/fp9kxX9kSwhShw7WwWkb1GoFdr1ZoxNGrn5UAiGyC9J5yPsJ20tjaRoTlGghEQukI6f3000/jrSNgdIGFv+0+uypMafTRWMWpZ1Ua7oe5sByXFKY0ctOLchO6zBxZIy1MAUHNd8uqwLYIMUvRCOEbq0NVnC0Ohg6nrCkFhLKzj7phVC2fppHCFHzeDx1LZD5lNCsdLkx9Zx/vEqNq+VajJ4WpLeeFIcbIfktOgEUWWaR9+zzzzNNhakm92Pmq1CPmtuaFcbOMEB2h5C/IWhPcooXwZwYjv2wj+VAWLNOCLyZXQpJGC1Ng1Be/lx7pNWwd2fQ5y8gTpmBJyyyZVBp+R+uQkDAVVWl1YUqYP/V/jz32iLeMgOlo7Dv00EPjLf7Lp/H9+zQ7LSNMaTjhnLgWyQlYU6w74HpYrSDGstaKAxpX9JKQcIBGWBpzbuklYxCLHDf11FM7x0eWxY8++igaOnSoaxjSM2NJFroqTIEGC40XEk3hqAj9IuyJXmsahyyFQ0MiKUwJt0Vgsr4s93fyySe7hgRruhpZwpQ11ij3j3/8w/UqEwpNrz294Aj8smQoQjQKq+tVnO2HH37onukZZ5zRJR2hTpHRc8CAAe75TXdAVS2fptHC1Pf9EE5J/aZxzrIkRI5Q5zmG9xb1PUnV8q1ETwpT2HDDDdvLpI3f/O67745Ldg07Z5V6hF8hs3wW/P05H/M1s7D8CsklYxDYNkrMeRHmiDFGMMmPQOcropx5q0l8CFP85/TTTx9NPvnk0emnn+58KZ3MZOplVNPusUpGXigSppzLMvXTwcTfgkgn5vAefvjhri6Ru4K2ioSpqEqrC1NgbjllGPBCSDJVhPnsRAzSxk2/G3yXT+L792l2WkaY8lIl6QE9DSz63l3w3bBaoXe3aJ09fqd0Rr8kzLHKWpeVRAaIQRqLdk+IR9b1QwjSgGRbI4QpME+HHnS7FjbOOOM4wYjAJklGUpjSYGQurJXlPhHLyXDlLGEKXAtRm7wWodpcq2hdVCEaiT17VZ0tQo7IgOTzS2ghoadZVC2fpNHCFHzfz5AhQzqEi2K8O/JCcquWbxV6WpgSAcM7FR9qZTF+6/TyJ13BzltrPcJHcE95a/oBzxl+LgvL65BcMgY4L+vwEtZq94SRPJGRjPR8VvAhTIFpR3QMpH97GqkkIasqSqFImALnPOWUU9w1sq6JeOe7SpiKqoQgTOHggw/usMoHRjubJKtZ+C5v+P59mp2WEaYGqe+LQssaDd8NaxYYKeZlQC8yczR9Q08PPeksb1M079SgkUuYVD3zf3GG9GwzUpIV2iuET6yu1+NsaQQyD5zGMc9wUW8oVC3vG9/3w7w/3gv0GPMuKQsZrVq+FfApTKuA3yAj+n/+8x/nRxrd+deVeuQDBOozzzzjOkB5xnuysxO/xqgt90JIX3c813x/lmRjvVb+TXYWC1EPXRWmzQRtagTdNddc0yk3TBa+y4sWFKbdjTlZIUTYWF0PwdmK5qNZhKlvVI+ECJuQhKloPiRMSzAnK4QIG6vrcrbCBxKmQogQkDAVPpEwLcGcrBAibKyuy9kKH0iYCiFCQMJU+ETCtARzskKIsLG6LmcrfCBhKoQIAQlT4RMJ0xLMyQohwsbqupyt8IGEqRAiBCRMhU8kTEswJyuECBur63K2wgcSpkKIEJAwFT6RMC3BnKwQImysrsvZCh9ImAohQkDCVPhEwrQEc7JCiLCxui5nK3wgYSqECAEJU+ETCdMSzMkKIcLG6rqcrfCBhKkQIgQkTIVPJExLMCcrhAgbq+tytsIHEqZCiBCQMBU+kTAtwZysECJsrK7L2QofSJgKIUJAwlT4RMK0BHOyQoiwsbouZyt8IGEqhAgBCVPhEwnTEszJCiHCxuq6nK3wgYSpECIEJEyFTyRMSzAnK4QIG6vrcrbCBxKmQogQkDAVPpEwLcGcrBAibKyuy9kKH0iYCiFCQMJU+KRhwrRfv37u/6GZOdmsfTKZLByzut63b9/M/TJZV6xPnz7u+eLfrP2hmOqRTBa29erVS3Vc5s3MV/bu3TtWmp2pSZjaiWQymUwmk8lkMplMJqvH6ADJo1CYXnTRRW7Y9bzzznPD+qHZwIEDnWXtk8lk4ZjV9SuvvDJzv0zWFRs8eLB7vvg3a38opnokk4Vt++67r+q4zJuZrzzssMNipdkZTbAUQgghhBBCCNGjSJgKIYQQQgghhOhRJEyFEEIIIYQQQvQoEqZCCCGEEEIIIXoUCVMhhBBCCCGEED1IFP1/XxIIbcb7oJoAAAAASUVORK5CYII=;" vertex="1" parent="1">
          <mxGeometry x="80" y="-923" width="570.96" height="173" as="geometry" />
        </mxCell>
        <mxCell id="evleP5VsPjODWGE9lHRX-163" value="&lt;span style=&quot;font-size: 17px;&quot;&gt;Kilimanjaro | Mont Blanc&lt;/span&gt;" style="rounded=0;whiteSpace=wrap;html=1;" vertex="1" parent="1">
          <mxGeometry x="320" y="1040" width="200" height="40" as="geometry" />
        </mxCell>
        <mxCell id="evleP5VsPjODWGE9lHRX-165" value="&lt;font style=&quot;font-size: 14px;&quot;&gt;&lt;b&gt;1&lt;/b&gt;&lt;/font&gt;" style="rounded=0;whiteSpace=wrap;html=1;fillColor=#B3B3B3;" vertex="1" parent="1">
          <mxGeometry x="320" y="1020" width="20" height="20" as="geometry" />
        </mxCell>
        <mxCell id="evleP5VsPjODWGE9lHRX-166" value="&lt;span style=&quot;font-size: 17px;&quot;&gt;Aconcagua | Cervino&lt;/span&gt;" style="rounded=0;whiteSpace=wrap;html=1;" vertex="1" parent="1">
          <mxGeometry x="320" y="1140" width="200" height="40" as="geometry" />
        </mxCell>
        <mxCell id="evleP5VsPjODWGE9lHRX-167" value="&lt;font style=&quot;font-size: 14px;&quot;&gt;&lt;b&gt;1&lt;/b&gt;&lt;/font&gt;" style="rounded=0;whiteSpace=wrap;html=1;fillColor=#B3B3B3;" vertex="1" parent="1">
          <mxGeometry x="320" y="1120" width="20" height="20" as="geometry" />
        </mxCell>
        <mxCell id="evleP5VsPjODWGE9lHRX-169" value="" style="endArrow=classic;html=1;rounded=0;exitX=1;exitY=0.5;exitDx=0;exitDy=0;endSize=12;startSize=12;entryX=0;entryY=0.5;entryDx=0;entryDy=0;" edge="1" parent="1" target="evleP5VsPjODWGE9lHRX-163">
          <mxGeometry width="50" height="50" relative="1" as="geometry">
            <mxPoint x="160" y="1060" as="sourcePoint" />
            <mxPoint x="330" y="1090" as="targetPoint" />
          </mxGeometry>
        </mxCell>
        <mxCell id="evleP5VsPjODWGE9lHRX-170" value="" style="endArrow=classic;html=1;rounded=0;exitX=1;exitY=0.5;exitDx=0;exitDy=0;endSize=12;startSize=12;entryX=0;entryY=0.5;entryDx=0;entryDy=0;" edge="1" parent="1" target="evleP5VsPjODWGE9lHRX-166">
          <mxGeometry width="50" height="50" relative="1" as="geometry">
            <mxPoint x="160" y="1100" as="sourcePoint" />
            <mxPoint x="330" y="1070" as="targetPoint" />
          </mxGeometry>
        </mxCell>
        <mxCell id="evleP5VsPjODWGE9lHRX-172" value="" style="group" connectable="0" vertex="1" parent="1">
          <mxGeometry x="600" y="1720" width="280" height="40" as="geometry" />
        </mxCell>
        <mxCell id="evleP5VsPjODWGE9lHRX-173" value="&lt;b&gt;101001&lt;/b&gt;&lt;b&gt;&lt;font color=&quot;#ff99cc&quot;&gt;11&lt;/font&gt;&lt;/b&gt;" style="rounded=0;whiteSpace=wrap;html=1;align=center;fontSize=18;" vertex="1" parent="evleP5VsPjODWGE9lHRX-172">
          <mxGeometry x="160" width="120" height="40" as="geometry" />
        </mxCell>
        <mxCell id="evleP5VsPjODWGE9lHRX-174" value="&lt;b&gt;Aconcagua&lt;/b&gt;" style="rounded=0;whiteSpace=wrap;html=1;align=center;fontSize=18;" vertex="1" parent="evleP5VsPjODWGE9lHRX-172">
          <mxGeometry width="160" height="40" as="geometry" />
        </mxCell>
        <mxCell id="evleP5VsPjODWGE9lHRX-175" value="1" style="rounded=0;whiteSpace=wrap;html=1;align=center;fontSize=18;fontStyle=1" vertex="1" parent="1">
          <mxGeometry x="560" y="1720" width="40" height="40" as="geometry" />
        </mxCell>
        <mxCell id="evleP5VsPjODWGE9lHRX-176" value="" style="group" connectable="0" vertex="1" parent="1">
          <mxGeometry x="600" y="1760" width="280" height="40" as="geometry" />
        </mxCell>
        <mxCell id="evleP5VsPjODWGE9lHRX-177" value="&lt;b&gt;011011&lt;font color=&quot;#ff99cc&quot;&gt;11&lt;/font&gt;&lt;/b&gt;" style="rounded=0;whiteSpace=wrap;html=1;align=center;fontSize=18;" vertex="1" parent="evleP5VsPjODWGE9lHRX-176">
          <mxGeometry x="160" width="120" height="40" as="geometry" />
        </mxCell>
        <mxCell id="evleP5VsPjODWGE9lHRX-178" value="&lt;b&gt;Cervino&lt;/b&gt;" style="rounded=0;whiteSpace=wrap;html=1;align=center;fontSize=18;" vertex="1" parent="evleP5VsPjODWGE9lHRX-176">
          <mxGeometry width="160" height="40" as="geometry" />
        </mxCell>
        <mxCell id="evleP5VsPjODWGE9lHRX-179" value="&lt;b&gt;4&lt;/b&gt;" style="rounded=0;whiteSpace=wrap;html=1;align=center;fontSize=18;" vertex="1" parent="1">
          <mxGeometry x="560" y="1760" width="40" height="40" as="geometry" />
        </mxCell>
        <mxCell id="evleP5VsPjODWGE9lHRX-180" value="" style="group" connectable="0" vertex="1" parent="1">
          <mxGeometry x="600" y="1800" width="280" height="40" as="geometry" />
        </mxCell>
        <mxCell id="evleP5VsPjODWGE9lHRX-181" value="&lt;b&gt;001101&lt;/b&gt;&lt;b&gt;&lt;font color=&quot;#ff99cc&quot;&gt;01&lt;/font&gt;&lt;/b&gt;" style="rounded=0;whiteSpace=wrap;html=1;align=center;fontSize=18;" vertex="1" parent="evleP5VsPjODWGE9lHRX-180">
          <mxGeometry x="160" width="120" height="40" as="geometry" />
        </mxCell>
        <mxCell id="evleP5VsPjODWGE9lHRX-182" value="&lt;b&gt;Etna&lt;/b&gt;" style="rounded=0;whiteSpace=wrap;html=1;align=center;fontSize=18;" vertex="1" parent="evleP5VsPjODWGE9lHRX-180">
          <mxGeometry width="160" height="40" as="geometry" />
        </mxCell>
        <mxCell id="evleP5VsPjODWGE9lHRX-183" value="5" style="rounded=0;whiteSpace=wrap;html=1;align=center;fontSize=18;fontStyle=1" vertex="1" parent="1">
          <mxGeometry x="560" y="1800" width="40" height="40" as="geometry" />
        </mxCell>
        <mxCell id="evleP5VsPjODWGE9lHRX-192" value="" style="group" connectable="0" vertex="1" parent="1">
          <mxGeometry x="600" y="2480" width="280" height="40" as="geometry" />
        </mxCell>
        <mxCell id="evleP5VsPjODWGE9lHRX-193" value="&lt;b&gt;111100&lt;/b&gt;&lt;b&gt;&lt;font color=&quot;#ff99cc&quot;&gt;00&lt;/font&gt;&lt;/b&gt;" style="rounded=0;whiteSpace=wrap;html=1;align=center;fontSize=18;" vertex="1" parent="evleP5VsPjODWGE9lHRX-192">
          <mxGeometry x="160" width="120" height="40" as="geometry" />
        </mxCell>
        <mxCell id="evleP5VsPjODWGE9lHRX-194" value="&lt;b style=&quot;background-color: initial;&quot;&gt;Chañi&lt;/b&gt;" style="rounded=0;whiteSpace=wrap;html=1;align=center;fontSize=18;" vertex="1" parent="evleP5VsPjODWGE9lHRX-192">
          <mxGeometry width="160" height="40" as="geometry" />
        </mxCell>
        <mxCell id="evleP5VsPjODWGE9lHRX-195" value="6" style="rounded=0;whiteSpace=wrap;html=1;align=center;fontSize=18;fontStyle=1" vertex="1" parent="1">
          <mxGeometry x="560" y="2480" width="40" height="40" as="geometry" />
        </mxCell>
        <mxCell id="evleP5VsPjODWGE9lHRX-196" value="" style="group" connectable="0" vertex="1" parent="1">
          <mxGeometry x="600" y="2400" width="280" height="40" as="geometry" />
        </mxCell>
        <mxCell id="evleP5VsPjODWGE9lHRX-197" value="&lt;b&gt;101010&lt;/b&gt;&lt;b&gt;&lt;font color=&quot;#ff99cc&quot;&gt;10&lt;/font&gt;&lt;/b&gt;" style="rounded=0;whiteSpace=wrap;html=1;align=center;fontSize=18;" vertex="1" parent="evleP5VsPjODWGE9lHRX-196">
          <mxGeometry x="160" width="120" height="40" as="geometry" />
        </mxCell>
        <mxCell id="evleP5VsPjODWGE9lHRX-198" value="&lt;b&gt;Kilimanjaro&lt;/b&gt;" style="rounded=0;whiteSpace=wrap;html=1;align=center;fontSize=18;" vertex="1" parent="evleP5VsPjODWGE9lHRX-196">
          <mxGeometry width="160" height="40" as="geometry" />
        </mxCell>
        <mxCell id="evleP5VsPjODWGE9lHRX-199" value="&lt;b&gt;2&lt;/b&gt;" style="rounded=0;whiteSpace=wrap;html=1;align=center;fontSize=18;" vertex="1" parent="1">
          <mxGeometry x="560" y="2400" width="40" height="40" as="geometry" />
        </mxCell>
        <mxCell id="evleP5VsPjODWGE9lHRX-200" value="" style="group" connectable="0" vertex="1" parent="1">
          <mxGeometry x="600" y="2440" width="280" height="40" as="geometry" />
        </mxCell>
        <mxCell id="evleP5VsPjODWGE9lHRX-201" value="&lt;b&gt;001111&lt;/b&gt;&lt;b&gt;&lt;font color=&quot;#ff99cc&quot;&gt;10&lt;/font&gt;&lt;/b&gt;" style="rounded=0;whiteSpace=wrap;html=1;align=center;fontSize=18;" vertex="1" parent="evleP5VsPjODWGE9lHRX-200">
          <mxGeometry x="160" width="120" height="40" as="geometry" />
        </mxCell>
        <mxCell id="evleP5VsPjODWGE9lHRX-202" value="&lt;b&gt;Mont Blanc&lt;/b&gt;" style="rounded=0;whiteSpace=wrap;html=1;align=center;fontSize=18;" vertex="1" parent="evleP5VsPjODWGE9lHRX-200">
          <mxGeometry width="160" height="40" as="geometry" />
        </mxCell>
        <mxCell id="evleP5VsPjODWGE9lHRX-203" value="3" style="rounded=0;whiteSpace=wrap;html=1;align=center;fontSize=18;fontStyle=1" vertex="1" parent="1">
          <mxGeometry x="560" y="2440" width="40" height="40" as="geometry" />
        </mxCell>
        <mxCell id="evleP5VsPjODWGE9lHRX-204" value="" style="endArrow=none;html=1;rounded=0;" edge="1" parent="1">
          <mxGeometry width="50" height="50" relative="1" as="geometry">
            <mxPoint y="2600" as="sourcePoint" />
            <mxPoint x="1000" y="2600" as="targetPoint" />
          </mxGeometry>
        </mxCell>
        <mxCell id="evleP5VsPjODWGE9lHRX-205" value="&lt;div style=&quot;text-align: center; font-size: 20px;&quot;&gt;&lt;b style=&quot;background-color: initial;&quot;&gt;Paso 7: llega&amp;nbsp;&lt;/b&gt;&lt;b style=&quot;background-color: initial;&quot;&gt;Cho Oyu&lt;/b&gt;&lt;br&gt;&lt;/div&gt;" style="text;html=1;align=left;verticalAlign=middle;whiteSpace=wrap;rounded=0;" vertex="1" parent="1">
          <mxGeometry x="40" y="2640" width="280" height="40" as="geometry" />
        </mxCell>
        <mxCell id="evleP5VsPjODWGE9lHRX-206" value="&lt;div&gt;&lt;div&gt;&lt;span style=&quot;background-color: initial; font-size: 16px;&quot;&gt;- Se&amp;nbsp;&lt;/span&gt;&lt;span style=&quot;font-size: 16px;&quot;&gt;aplica&amp;nbsp;&lt;/span&gt;&lt;span style=&quot;background-color: initial; font-size: 16px;&quot;&gt;la funcion de hash y se toman 2 bits&lt;/span&gt;&lt;div&gt;&lt;span style=&quot;font-size: 16px; background-color: initial;&quot;&gt;- Cho Oyu pasa al nodo con direccion 01&lt;/span&gt;&lt;/div&gt;&lt;div&gt;&lt;span style=&quot;font-size: 16px;&quot;&gt;- Se produce una colision&lt;/span&gt;&lt;span style=&quot;font-size: 16px; background-color: initial;&quot;&gt;&lt;br&gt;&lt;/span&gt;&lt;/div&gt;&lt;div&gt;&lt;span style=&quot;font-size: 16px;&quot;&gt;- Como hay espacio se inserta normalmente&lt;br&gt;&lt;/span&gt;&lt;/div&gt;&lt;/div&gt;&lt;/div&gt;&lt;div&gt;&lt;span style=&quot;font-size: 16px;&quot;&gt;&lt;br&gt;&lt;/span&gt;&lt;/div&gt;" style="text;html=1;align=left;verticalAlign=middle;whiteSpace=wrap;rounded=0;" vertex="1" parent="1">
          <mxGeometry x="560" y="2680" width="400" height="400" as="geometry" />
        </mxCell>
        <mxCell id="evleP5VsPjODWGE9lHRX-207" value="" style="group" connectable="0" vertex="1" parent="1">
          <mxGeometry x="80" y="2680" width="280" height="40" as="geometry" />
        </mxCell>
        <mxCell id="evleP5VsPjODWGE9lHRX-208" value="&lt;b&gt;01011101&lt;/b&gt;" style="rounded=0;whiteSpace=wrap;html=1;align=center;fontSize=18;" vertex="1" parent="evleP5VsPjODWGE9lHRX-207">
          <mxGeometry x="160" width="120" height="40" as="geometry" />
        </mxCell>
        <mxCell id="evleP5VsPjODWGE9lHRX-209" value="&lt;b&gt;Cho Oyu&lt;/b&gt;" style="rounded=0;whiteSpace=wrap;html=1;align=center;fontSize=18;" vertex="1" parent="evleP5VsPjODWGE9lHRX-207">
          <mxGeometry width="160" height="40" as="geometry" />
        </mxCell>
        <mxCell id="evleP5VsPjODWGE9lHRX-210" value="&lt;b&gt;7&lt;/b&gt;" style="rounded=0;whiteSpace=wrap;html=1;align=center;fontSize=18;" vertex="1" parent="1">
          <mxGeometry x="40" y="2680" width="40" height="40" as="geometry" />
        </mxCell>
        <mxCell id="evleP5VsPjODWGE9lHRX-212" value="&lt;span style=&quot;font-size: 17px;&quot;&gt;Kilimanjaro | Mont Blanc&lt;/span&gt;" style="rounded=0;whiteSpace=wrap;html=1;" vertex="1" parent="1">
          <mxGeometry x="320" y="2880" width="200" height="40" as="geometry" />
        </mxCell>
        <mxCell id="evleP5VsPjODWGE9lHRX-214" value="&lt;font style=&quot;font-size: 14px;&quot;&gt;&lt;b&gt;2&lt;/b&gt;&lt;/font&gt;" style="rounded=0;whiteSpace=wrap;html=1;fillColor=#B3B3B3;" vertex="1" parent="1">
          <mxGeometry x="320" y="2860" width="20" height="20" as="geometry" />
        </mxCell>
        <mxCell id="evleP5VsPjODWGE9lHRX-215" value="&lt;span style=&quot;font-size: 17px;&quot;&gt;Aconcagua | Cervino&lt;/span&gt;" style="rounded=0;whiteSpace=wrap;html=1;" vertex="1" parent="1">
          <mxGeometry x="320" y="3040" width="200" height="40" as="geometry" />
        </mxCell>
        <mxCell id="evleP5VsPjODWGE9lHRX-216" value="&lt;font style=&quot;font-size: 14px;&quot;&gt;&lt;b&gt;2&lt;/b&gt;&lt;/font&gt;" style="rounded=0;whiteSpace=wrap;html=1;fillColor=#B3B3B3;" vertex="1" parent="1">
          <mxGeometry x="320" y="3020" width="20" height="20" as="geometry" />
        </mxCell>
        <mxCell id="evleP5VsPjODWGE9lHRX-218" value="" style="endArrow=classic;html=1;rounded=0;exitX=1;exitY=0.5;exitDx=0;exitDy=0;endSize=12;startSize=12;entryX=0;entryY=0.5;entryDx=0;entryDy=0;" edge="1" parent="1" target="evleP5VsPjODWGE9lHRX-226">
          <mxGeometry width="50" height="50" relative="1" as="geometry">
            <mxPoint x="160" y="2860" as="sourcePoint" />
            <mxPoint x="330" y="2890" as="targetPoint" />
          </mxGeometry>
        </mxCell>
        <mxCell id="evleP5VsPjODWGE9lHRX-219" value="" style="endArrow=classic;html=1;rounded=0;exitX=1;exitY=0.5;exitDx=0;exitDy=0;endSize=12;startSize=12;entryX=0;entryY=0.5;entryDx=0;entryDy=0;" edge="1" parent="1" target="evleP5VsPjODWGE9lHRX-220">
          <mxGeometry width="50" height="50" relative="1" as="geometry">
            <mxPoint x="160" y="2940" as="sourcePoint" />
            <mxPoint x="330" y="2870" as="targetPoint" />
          </mxGeometry>
        </mxCell>
        <mxCell id="evleP5VsPjODWGE9lHRX-220" value="&lt;span style=&quot;font-size: 18px;&quot;&gt;Etna |&amp;nbsp;&lt;/span&gt;&lt;span style=&quot;font-size: 18px;&quot;&gt;Cho &lt;/span&gt;&lt;span style=&quot;font-size: 18px;&quot;&gt;Oyu&lt;/span&gt;" style="rounded=0;whiteSpace=wrap;html=1;" vertex="1" parent="1">
          <mxGeometry x="320" y="2960" width="200" height="40" as="geometry" />
        </mxCell>
        <mxCell id="evleP5VsPjODWGE9lHRX-221" value="&lt;font style=&quot;font-size: 14px;&quot;&gt;&lt;b&gt;2&lt;/b&gt;&lt;/font&gt;" style="rounded=0;whiteSpace=wrap;html=1;fillColor=#B3B3B3;" vertex="1" parent="1">
          <mxGeometry x="320" y="2940" width="20" height="20" as="geometry" />
        </mxCell>
        <mxCell id="evleP5VsPjODWGE9lHRX-224" value="" style="endArrow=classic;html=1;rounded=0;exitX=1;exitY=0.5;exitDx=0;exitDy=0;endSize=12;startSize=12;entryX=0;entryY=0.5;entryDx=0;entryDy=0;" edge="1" parent="1" target="evleP5VsPjODWGE9lHRX-212">
          <mxGeometry width="50" height="50" relative="1" as="geometry">
            <mxPoint x="160" y="2900" as="sourcePoint" />
            <mxPoint x="330" y="2870" as="targetPoint" />
          </mxGeometry>
        </mxCell>
        <mxCell id="evleP5VsPjODWGE9lHRX-225" value="" style="endArrow=classic;html=1;rounded=0;exitX=1;exitY=0.5;exitDx=0;exitDy=0;endSize=12;startSize=12;entryX=0;entryY=0.5;entryDx=0;entryDy=0;" edge="1" parent="1" target="evleP5VsPjODWGE9lHRX-215">
          <mxGeometry width="50" height="50" relative="1" as="geometry">
            <mxPoint x="160" y="2980" as="sourcePoint" />
            <mxPoint x="330" y="3070" as="targetPoint" />
          </mxGeometry>
        </mxCell>
        <mxCell id="evleP5VsPjODWGE9lHRX-226" value="&lt;span style=&quot;font-size: 18px; background-color: initial;&quot;&gt;Chañi&lt;/span&gt;" style="rounded=0;whiteSpace=wrap;html=1;" vertex="1" parent="1">
          <mxGeometry x="320" y="2800" width="200" height="40" as="geometry" />
        </mxCell>
        <mxCell id="evleP5VsPjODWGE9lHRX-227" value="&lt;font style=&quot;font-size: 14px;&quot;&gt;&lt;b&gt;2&lt;/b&gt;&lt;/font&gt;" style="rounded=0;whiteSpace=wrap;html=1;fillColor=#B3B3B3;" vertex="1" parent="1">
          <mxGeometry x="320" y="2780" width="20" height="20" as="geometry" />
        </mxCell>
        <mxCell id="evleP5VsPjODWGE9lHRX-240" value="" style="endArrow=none;html=1;rounded=0;" edge="1" parent="1">
          <mxGeometry width="50" height="50" relative="1" as="geometry">
            <mxPoint y="3160" as="sourcePoint" />
            <mxPoint x="1000" y="3160" as="targetPoint" />
          </mxGeometry>
        </mxCell>
        <mxCell id="evleP5VsPjODWGE9lHRX-241" value="&lt;div style=&quot;text-align: center; font-size: 20px;&quot;&gt;&lt;b style=&quot;background-color: initial;&quot;&gt;Paso 8:&amp;nbsp;&lt;/b&gt;&lt;b style=&quot;background-color: initial;&quot;&gt;Vinicunca&lt;/b&gt;&lt;/div&gt;" style="text;html=1;align=left;verticalAlign=middle;whiteSpace=wrap;rounded=0;" vertex="1" parent="1">
          <mxGeometry x="40" y="3200" width="280" height="40" as="geometry" />
        </mxCell>
        <mxCell id="evleP5VsPjODWGE9lHRX-244" value="&lt;span style=&quot;background-color: initial; font-size: 16px;&quot;&gt;- Se&amp;nbsp;&lt;/span&gt;&lt;span style=&quot;font-size: 16px;&quot;&gt;aplica&amp;nbsp;&lt;/span&gt;&lt;span style=&quot;background-color: initial; font-size: 16px;&quot;&gt;la funcion de hash y se toman 2 bits&lt;/span&gt;&lt;div&gt;&lt;span style=&quot;font-size: 16px; background-color: initial;&quot;&gt;- Vincunca&amp;nbsp;&lt;/span&gt;&lt;span style=&quot;font-size: 16px; background-color: initial;&quot;&gt;pasa al nodo con direccion 11&lt;/span&gt;&lt;/div&gt;&lt;div&gt;&lt;span style=&quot;background-color: initial; font-size: 16px;&quot;&gt;- Se produce una colision&lt;/span&gt;&lt;/div&gt;&lt;div&gt;&lt;span style=&quot;background-color: initial; font-size: 16px;&quot;&gt;- Como no cabe en el nodo se produce un&amp;nbsp;&lt;/span&gt;&lt;span style=&quot;font-size: 16px; background-color: initial;&quot;&gt;overflow&lt;/span&gt;&lt;br&gt;&lt;/div&gt;&lt;div&gt;&lt;span style=&quot;font-size: 16px;&quot;&gt;&lt;br&gt;&lt;/span&gt;&lt;/div&gt;&lt;div&gt;&lt;div&gt;&lt;span style=&quot;font-size: 16px; background-color: initial;&quot;&gt;-&lt;/span&gt;&lt;span style=&quot;background-color: initial; font-size: 16px;&quot;&gt;&amp;nbsp;Se suma 1 al valor del nodo&amp;nbsp;&lt;/span&gt;&lt;span style=&quot;background-color: initial; font-size: 16px;&quot;&gt;overflow&lt;/span&gt;&lt;/div&gt;&lt;div&gt;&lt;span style=&quot;font-size: 16px;&quot;&gt;- Se crea un nuevo nodo con este mismo valor&lt;/span&gt;&lt;/div&gt;&lt;/div&gt;&lt;div&gt;&lt;span style=&quot;font-size: 16px;&quot;&gt;&lt;br&gt;&lt;/span&gt;&lt;/div&gt;&lt;div&gt;&lt;div&gt;&lt;span style=&quot;font-size: 16px;&quot;&gt;- Se compara el valor del nodo con el valor de la tabla&lt;/span&gt;&lt;/div&gt;&lt;div&gt;&lt;span style=&quot;font-size: 16px;&quot;&gt;-&amp;nbsp;&lt;/span&gt;&lt;span style=&quot;background-color: initial; font-size: 16px;&quot;&gt;Como el numero de la tabla es menor al del nodo, duplicamos el tamaño de la tabla&amp;nbsp;&lt;/span&gt;&lt;span style=&quot;background-color: initial; font-size: 16px;&quot;&gt;y aumentamos el numero de bits&lt;/span&gt;&lt;/div&gt;&lt;/div&gt;&lt;div&gt;&lt;span style=&quot;font-size: 16px;&quot;&gt;&lt;br&gt;&lt;/span&gt;&lt;/div&gt;&lt;div&gt;&lt;div&gt;&lt;span style=&quot;font-size: 16px;&quot;&gt;&amp;nbsp;&lt;/span&gt;&lt;span style=&quot;background-color: initial; font-size: 16px;&quot;&gt;- Se toman&amp;nbsp;&lt;font color=&quot;#ff99cc&quot;&gt;&lt;b&gt;3&lt;/b&gt;&lt;/font&gt;&lt;/span&gt;&lt;b style=&quot;background-color: initial; font-size: 16px;&quot;&gt;&lt;font color=&quot;#ff99cc&quot;&gt;&amp;nbsp;bits&lt;/font&gt;&lt;font color=&quot;#ff0000&quot;&gt;&amp;nbsp;&lt;/font&gt;&lt;/b&gt;&lt;span style=&quot;background-color: initial; font-size: 16px;&quot;&gt;de la funcion de hash asociada a cada clave&lt;/span&gt;&lt;/div&gt;&lt;div&gt;&lt;span style=&quot;font-size: 16px;&quot;&gt;- Reacomodamos las direcciones y los registros&lt;/span&gt;&lt;/div&gt;&lt;/div&gt;" style="text;html=1;align=left;verticalAlign=middle;whiteSpace=wrap;rounded=0;" vertex="1" parent="1">
          <mxGeometry x="560" y="3320" width="400" height="390" as="geometry" />
        </mxCell>
        <mxCell id="evleP5VsPjODWGE9lHRX-245" value="" style="group" connectable="0" vertex="1" parent="1">
          <mxGeometry x="80" y="3240" width="280" height="40" as="geometry" />
        </mxCell>
        <mxCell id="evleP5VsPjODWGE9lHRX-246" value="&lt;b&gt;01011011&lt;/b&gt;" style="rounded=0;whiteSpace=wrap;html=1;align=center;fontSize=18;" vertex="1" parent="evleP5VsPjODWGE9lHRX-245">
          <mxGeometry x="160" width="120" height="40" as="geometry" />
        </mxCell>
        <mxCell id="evleP5VsPjODWGE9lHRX-247" value="&lt;b&gt;Vinicunca&lt;/b&gt;" style="rounded=0;whiteSpace=wrap;html=1;align=center;fontSize=18;" vertex="1" parent="evleP5VsPjODWGE9lHRX-245">
          <mxGeometry width="160" height="40" as="geometry" />
        </mxCell>
        <mxCell id="evleP5VsPjODWGE9lHRX-249" value="&lt;b&gt;8&lt;/b&gt;" style="rounded=0;whiteSpace=wrap;html=1;align=center;fontSize=18;" vertex="1" parent="1">
          <mxGeometry x="40" y="3240" width="40" height="40" as="geometry" />
        </mxCell>
        <mxCell id="evleP5VsPjODWGE9lHRX-252" value="" style="endArrow=classic;html=1;rounded=0;endSize=12;startSize=12;entryX=0;entryY=0.5;entryDx=0;entryDy=0;exitX=1;exitY=0.5;exitDx=0;exitDy=0;" edge="1" parent="1">
          <mxGeometry width="50" height="50" relative="1" as="geometry">
            <mxPoint x="160" y="3380" as="sourcePoint" />
            <mxPoint x="320" y="3380" as="targetPoint" />
          </mxGeometry>
        </mxCell>
        <mxCell id="evleP5VsPjODWGE9lHRX-253" value="" style="endArrow=classic;html=1;rounded=0;exitX=1;exitY=0.5;exitDx=0;exitDy=0;endSize=12;startSize=12;entryX=0;entryY=0.5;entryDx=0;entryDy=0;" edge="1" parent="1" target="evleP5VsPjODWGE9lHRX-285">
          <mxGeometry width="50" height="50" relative="1" as="geometry">
            <mxPoint x="160" y="3460" as="sourcePoint" />
            <mxPoint x="320" y="3380" as="targetPoint" />
          </mxGeometry>
        </mxCell>
        <mxCell id="evleP5VsPjODWGE9lHRX-256" value="" style="endArrow=classic;html=1;rounded=0;exitX=1;exitY=0.5;exitDx=0;exitDy=0;endSize=12;startSize=12;entryX=0;entryY=0.5;entryDx=0;entryDy=0;" edge="1" parent="1">
          <mxGeometry width="50" height="50" relative="1" as="geometry">
            <mxPoint x="160" y="3420" as="sourcePoint" />
            <mxPoint x="320" y="3380" as="targetPoint" />
          </mxGeometry>
        </mxCell>
        <mxCell id="evleP5VsPjODWGE9lHRX-259" value="" style="endArrow=classic;html=1;rounded=0;exitX=1;exitY=0.5;exitDx=0;exitDy=0;endSize=12;startSize=12;entryX=0;entryY=0.5;entryDx=0;entryDy=0;" edge="1" parent="1" target="evleP5VsPjODWGE9lHRX-285">
          <mxGeometry width="50" height="50" relative="1" as="geometry">
            <mxPoint x="160" y="3500" as="sourcePoint" />
            <mxPoint x="320" y="3380" as="targetPoint" />
          </mxGeometry>
        </mxCell>
        <mxCell id="evleP5VsPjODWGE9lHRX-260" value="" style="group" connectable="0" vertex="1" parent="1">
          <mxGeometry x="620" y="3800" width="280" height="40" as="geometry" />
        </mxCell>
        <mxCell id="evleP5VsPjODWGE9lHRX-261" value="&lt;b&gt;01101&lt;/b&gt;&lt;b&gt;&lt;font color=&quot;#ff99cc&quot;&gt;011&lt;/font&gt;&lt;/b&gt;" style="rounded=0;whiteSpace=wrap;html=1;align=center;fontSize=18;" vertex="1" parent="evleP5VsPjODWGE9lHRX-260">
          <mxGeometry x="160" width="120" height="40" as="geometry" />
        </mxCell>
        <mxCell id="evleP5VsPjODWGE9lHRX-262" value="&lt;b&gt;Vinicunca&lt;/b&gt;" style="rounded=0;whiteSpace=wrap;html=1;align=center;fontSize=18;" vertex="1" parent="evleP5VsPjODWGE9lHRX-260">
          <mxGeometry width="160" height="40" as="geometry" />
        </mxCell>
        <mxCell id="evleP5VsPjODWGE9lHRX-263" value="&lt;b&gt;8&lt;/b&gt;" style="rounded=0;whiteSpace=wrap;html=1;align=center;fontSize=18;" vertex="1" parent="1">
          <mxGeometry x="580" y="3800" width="40" height="40" as="geometry" />
        </mxCell>
        <mxCell id="evleP5VsPjODWGE9lHRX-273" value="" style="endArrow=classic;html=1;rounded=0;exitX=1;exitY=0.5;exitDx=0;exitDy=0;endSize=12;startSize=12;entryX=0;entryY=0.5;entryDx=0;entryDy=0;" edge="1" parent="1" target="evleP5VsPjODWGE9lHRX-289">
          <mxGeometry width="50" height="50" relative="1" as="geometry">
            <mxPoint x="160" y="3540" as="sourcePoint" />
            <mxPoint x="320" y="3460" as="targetPoint" />
          </mxGeometry>
        </mxCell>
        <mxCell id="evleP5VsPjODWGE9lHRX-274" value="" style="endArrow=classic;html=1;rounded=0;exitX=1;exitY=0.5;exitDx=0;exitDy=0;endSize=12;startSize=12;entryX=0;entryY=0.5;entryDx=0;entryDy=0;" edge="1" parent="1" target="evleP5VsPjODWGE9lHRX-289">
          <mxGeometry width="50" height="50" relative="1" as="geometry">
            <mxPoint x="160" y="3580" as="sourcePoint" />
            <mxPoint x="320" y="3460" as="targetPoint" />
          </mxGeometry>
        </mxCell>
        <mxCell id="evleP5VsPjODWGE9lHRX-275" value="" style="endArrow=classic;html=1;rounded=0;exitX=1;exitY=0.5;exitDx=0;exitDy=0;endSize=12;startSize=12;entryX=0;entryY=0.5;entryDx=0;entryDy=0;" edge="1" parent="1" target="evleP5VsPjODWGE9lHRX-287">
          <mxGeometry width="50" height="50" relative="1" as="geometry">
            <mxPoint x="160" y="3620" as="sourcePoint" />
            <mxPoint x="320" y="3540" as="targetPoint" />
          </mxGeometry>
        </mxCell>
        <mxCell id="evleP5VsPjODWGE9lHRX-276" value="" style="endArrow=classic;html=1;rounded=0;exitX=1;exitY=0.5;exitDx=0;exitDy=0;endSize=12;startSize=12;entryX=0;entryY=0.5;entryDx=0;entryDy=0;" edge="1" parent="1" target="evleP5VsPjODWGE9lHRX-293">
          <mxGeometry width="50" height="50" relative="1" as="geometry">
            <mxPoint x="160" y="3660" as="sourcePoint" />
            <mxPoint x="320" y="3620" as="targetPoint" />
          </mxGeometry>
        </mxCell>
        <mxCell id="evleP5VsPjODWGE9lHRX-285" value="&lt;span style=&quot;font-size: 17px;&quot;&gt;Kilimanjaro | Mont Blanc&lt;/span&gt;" style="rounded=0;whiteSpace=wrap;html=1;" vertex="1" parent="1">
          <mxGeometry x="320" y="3440" width="200" height="40" as="geometry" />
        </mxCell>
        <mxCell id="evleP5VsPjODWGE9lHRX-286" value="&lt;font style=&quot;font-size: 14px;&quot;&gt;&lt;b&gt;2&lt;/b&gt;&lt;/font&gt;" style="rounded=0;whiteSpace=wrap;html=1;fillColor=#B3B3B3;" vertex="1" parent="1">
          <mxGeometry x="320" y="3420" width="20" height="20" as="geometry" />
        </mxCell>
        <mxCell id="evleP5VsPjODWGE9lHRX-287" value="&lt;span style=&quot;font-size: 18px;&quot;&gt;Vinicunca&lt;/span&gt;" style="rounded=0;whiteSpace=wrap;html=1;" vertex="1" parent="1">
          <mxGeometry x="320" y="3600" width="200" height="40" as="geometry" />
        </mxCell>
        <mxCell id="evleP5VsPjODWGE9lHRX-288" value="&lt;font style=&quot;font-size: 14px;&quot;&gt;&lt;b&gt;3&lt;/b&gt;&lt;/font&gt;" style="rounded=0;whiteSpace=wrap;html=1;fillColor=#B3B3B3;" vertex="1" parent="1">
          <mxGeometry x="320" y="3580" width="20" height="20" as="geometry" />
        </mxCell>
        <mxCell id="evleP5VsPjODWGE9lHRX-289" value="&lt;span style=&quot;font-size: 18px;&quot;&gt;Etna |&amp;nbsp;&lt;/span&gt;&lt;span style=&quot;font-size: 18px;&quot;&gt;Cho &lt;/span&gt;&lt;span style=&quot;font-size: 18px;&quot;&gt;Oyu&lt;/span&gt;" style="rounded=0;whiteSpace=wrap;html=1;" vertex="1" parent="1">
          <mxGeometry x="320" y="3520" width="200" height="40" as="geometry" />
        </mxCell>
        <mxCell id="evleP5VsPjODWGE9lHRX-290" value="&lt;font style=&quot;font-size: 14px;&quot;&gt;&lt;b&gt;2&lt;/b&gt;&lt;/font&gt;" style="rounded=0;whiteSpace=wrap;html=1;fillColor=#B3B3B3;" vertex="1" parent="1">
          <mxGeometry x="320" y="3500" width="20" height="20" as="geometry" />
        </mxCell>
        <mxCell id="evleP5VsPjODWGE9lHRX-291" value="&lt;span style=&quot;font-size: 18px; background-color: initial;&quot;&gt;Chañi&lt;/span&gt;" style="rounded=0;whiteSpace=wrap;html=1;" vertex="1" parent="1">
          <mxGeometry x="320" y="3360" width="200" height="40" as="geometry" />
        </mxCell>
        <mxCell id="evleP5VsPjODWGE9lHRX-292" value="&lt;font style=&quot;font-size: 14px;&quot;&gt;&lt;b&gt;2&lt;/b&gt;&lt;/font&gt;" style="rounded=0;whiteSpace=wrap;html=1;fillColor=#B3B3B3;" vertex="1" parent="1">
          <mxGeometry x="320" y="3340" width="20" height="20" as="geometry" />
        </mxCell>
        <mxCell id="evleP5VsPjODWGE9lHRX-293" value="&lt;span style=&quot;font-size: 17px;&quot;&gt;Aconcagua | Cervino&lt;/span&gt;" style="rounded=0;whiteSpace=wrap;html=1;" vertex="1" parent="1">
          <mxGeometry x="320" y="3680" width="200" height="40" as="geometry" />
        </mxCell>
        <mxCell id="evleP5VsPjODWGE9lHRX-294" value="&lt;font style=&quot;font-size: 14px;&quot;&gt;&lt;b&gt;3&lt;/b&gt;&lt;/font&gt;" style="rounded=0;whiteSpace=wrap;html=1;fillColor=#B3B3B3;" vertex="1" parent="1">
          <mxGeometry x="320" y="3660" width="20" height="20" as="geometry" />
        </mxCell>
        <mxCell id="evleP5VsPjODWGE9lHRX-313" value="" style="group" connectable="0" vertex="1" parent="1">
          <mxGeometry x="620" y="3720" width="280" height="40" as="geometry" />
        </mxCell>
        <mxCell id="evleP5VsPjODWGE9lHRX-314" value="&lt;b&gt;10100&lt;/b&gt;&lt;b&gt;&lt;font color=&quot;#ff99cc&quot;&gt;111&lt;/font&gt;&lt;/b&gt;" style="rounded=0;whiteSpace=wrap;html=1;align=center;fontSize=18;" vertex="1" parent="evleP5VsPjODWGE9lHRX-313">
          <mxGeometry x="160" width="120" height="40" as="geometry" />
        </mxCell>
        <mxCell id="evleP5VsPjODWGE9lHRX-315" value="&lt;b&gt;Aconcagua&lt;/b&gt;" style="rounded=0;whiteSpace=wrap;html=1;align=center;fontSize=18;" vertex="1" parent="evleP5VsPjODWGE9lHRX-313">
          <mxGeometry width="160" height="40" as="geometry" />
        </mxCell>
        <mxCell id="evleP5VsPjODWGE9lHRX-316" value="1" style="rounded=0;whiteSpace=wrap;html=1;align=center;fontSize=18;fontStyle=1" vertex="1" parent="1">
          <mxGeometry x="580" y="3720" width="40" height="40" as="geometry" />
        </mxCell>
        <mxCell id="evleP5VsPjODWGE9lHRX-317" value="" style="group" connectable="0" vertex="1" parent="1">
          <mxGeometry x="620" y="3760" width="280" height="40" as="geometry" />
        </mxCell>
        <mxCell id="evleP5VsPjODWGE9lHRX-318" value="&lt;b&gt;01101&lt;font color=&quot;#ff99cc&quot;&gt;111&lt;/font&gt;&lt;/b&gt;" style="rounded=0;whiteSpace=wrap;html=1;align=center;fontSize=18;" vertex="1" parent="evleP5VsPjODWGE9lHRX-317">
          <mxGeometry x="160" width="120" height="40" as="geometry" />
        </mxCell>
        <mxCell id="evleP5VsPjODWGE9lHRX-319" value="&lt;b&gt;Cervino&lt;/b&gt;" style="rounded=0;whiteSpace=wrap;html=1;align=center;fontSize=18;" vertex="1" parent="evleP5VsPjODWGE9lHRX-317">
          <mxGeometry width="160" height="40" as="geometry" />
        </mxCell>
        <mxCell id="evleP5VsPjODWGE9lHRX-320" value="&lt;b&gt;4&lt;/b&gt;" style="rounded=0;whiteSpace=wrap;html=1;align=center;fontSize=18;" vertex="1" parent="1">
          <mxGeometry x="580" y="3760" width="40" height="40" as="geometry" />
        </mxCell>
        <mxCell id="evleP5VsPjODWGE9lHRX-366" value="" style="endArrow=none;html=1;rounded=0;" edge="1" parent="1">
          <mxGeometry width="50" height="50" relative="1" as="geometry">
            <mxPoint y="3920" as="sourcePoint" />
            <mxPoint x="1000" y="3920" as="targetPoint" />
          </mxGeometry>
        </mxCell>
        <mxCell id="evleP5VsPjODWGE9lHRX-367" value="&lt;div style=&quot;text-align: center; font-size: 20px;&quot;&gt;&lt;b style=&quot;background-color: initial;&quot;&gt;Paso 9:&amp;nbsp;&lt;/b&gt;&lt;b style=&quot;background-color: initial;&quot;&gt;Manaslu&lt;/b&gt;&lt;/div&gt;" style="text;html=1;align=left;verticalAlign=middle;whiteSpace=wrap;rounded=0;" vertex="1" parent="1">
          <mxGeometry x="40" y="3960" width="280" height="40" as="geometry" />
        </mxCell>
        <mxCell id="evleP5VsPjODWGE9lHRX-368" value="&lt;span style=&quot;background-color: initial; font-size: 16px;&quot;&gt;- Se&amp;nbsp;&lt;/span&gt;&lt;span style=&quot;font-size: 16px;&quot;&gt;aplica&amp;nbsp;&lt;/span&gt;&lt;span style=&quot;background-color: initial; font-size: 16px;&quot;&gt;la funcion de hash y se toman 3 bits&lt;/span&gt;&lt;div style=&quot;font-size: 16px;&quot;&gt;&lt;font style=&quot;font-size: 16px;&quot;&gt;&lt;span style=&quot;background-color: initial;&quot;&gt;-&amp;nbsp;&lt;/span&gt;&lt;span style=&quot;text-align: center;&quot;&gt;Manaslu&amp;nbsp;&lt;/span&gt;&lt;span style=&quot;background-color: initial;&quot;&gt;pasa al nodo con direccion 100&lt;/span&gt;&lt;/font&gt;&lt;/div&gt;&lt;div style=&quot;font-size: 16px;&quot;&gt;&lt;span style=&quot;background-color: initial;&quot;&gt;- Se produce una colision&lt;/span&gt;&lt;/div&gt;&lt;div&gt;&lt;div&gt;&lt;span style=&quot;font-size: 16px;&quot;&gt;- Como hay espacio se inserta normalmente&lt;/span&gt;&lt;/div&gt;&lt;/div&gt;" style="text;html=1;align=left;verticalAlign=middle;whiteSpace=wrap;rounded=0;" vertex="1" parent="1">
          <mxGeometry x="560" y="4080" width="400" height="390" as="geometry" />
        </mxCell>
        <mxCell id="evleP5VsPjODWGE9lHRX-369" value="" style="group" connectable="0" vertex="1" parent="1">
          <mxGeometry x="80" y="4000" width="280" height="40" as="geometry" />
        </mxCell>
        <mxCell id="evleP5VsPjODWGE9lHRX-370" value="&lt;b&gt;00110100&lt;/b&gt;" style="rounded=0;whiteSpace=wrap;html=1;align=center;fontSize=18;" vertex="1" parent="evleP5VsPjODWGE9lHRX-369">
          <mxGeometry x="160" width="120" height="40" as="geometry" />
        </mxCell>
        <mxCell id="evleP5VsPjODWGE9lHRX-371" value="&lt;b&gt;Manaslu&lt;/b&gt;" style="rounded=0;whiteSpace=wrap;html=1;align=center;fontSize=18;" vertex="1" parent="evleP5VsPjODWGE9lHRX-369">
          <mxGeometry width="160" height="40" as="geometry" />
        </mxCell>
        <mxCell id="evleP5VsPjODWGE9lHRX-372" value="&lt;b&gt;9&lt;/b&gt;" style="rounded=0;whiteSpace=wrap;html=1;align=center;fontSize=18;" vertex="1" parent="1">
          <mxGeometry x="40" y="4000" width="40" height="40" as="geometry" />
        </mxCell>
        <mxCell id="evleP5VsPjODWGE9lHRX-373" value="" style="endArrow=classic;html=1;rounded=0;endSize=12;startSize=12;entryX=0;entryY=0.5;entryDx=0;entryDy=0;exitX=1;exitY=0.5;exitDx=0;exitDy=0;" edge="1" parent="1">
          <mxGeometry width="50" height="50" relative="1" as="geometry">
            <mxPoint x="160" y="4140" as="sourcePoint" />
            <mxPoint x="320" y="4140" as="targetPoint" />
          </mxGeometry>
        </mxCell>
        <mxCell id="evleP5VsPjODWGE9lHRX-374" value="" style="endArrow=classic;html=1;rounded=0;exitX=1;exitY=0.5;exitDx=0;exitDy=0;endSize=12;startSize=12;entryX=0;entryY=0.5;entryDx=0;entryDy=0;" edge="1" parent="1" target="evleP5VsPjODWGE9lHRX-394">
          <mxGeometry width="50" height="50" relative="1" as="geometry">
            <mxPoint x="160" y="4220" as="sourcePoint" />
            <mxPoint x="320" y="4140" as="targetPoint" />
          </mxGeometry>
        </mxCell>
        <mxCell id="evleP5VsPjODWGE9lHRX-375" value="" style="endArrow=classic;html=1;rounded=0;exitX=1;exitY=0.5;exitDx=0;exitDy=0;endSize=12;startSize=12;entryX=0;entryY=0.5;entryDx=0;entryDy=0;" edge="1" parent="1">
          <mxGeometry width="50" height="50" relative="1" as="geometry">
            <mxPoint x="160" y="4180" as="sourcePoint" />
            <mxPoint x="320" y="4140" as="targetPoint" />
          </mxGeometry>
        </mxCell>
        <mxCell id="evleP5VsPjODWGE9lHRX-376" value="" style="endArrow=classic;html=1;rounded=0;exitX=1;exitY=0.5;exitDx=0;exitDy=0;endSize=12;startSize=12;entryX=0;entryY=0.5;entryDx=0;entryDy=0;" edge="1" parent="1" target="evleP5VsPjODWGE9lHRX-394">
          <mxGeometry width="50" height="50" relative="1" as="geometry">
            <mxPoint x="160" y="4260" as="sourcePoint" />
            <mxPoint x="320" y="4140" as="targetPoint" />
          </mxGeometry>
        </mxCell>
        <mxCell id="evleP5VsPjODWGE9lHRX-390" value="" style="endArrow=classic;html=1;rounded=0;exitX=1;exitY=0.5;exitDx=0;exitDy=0;endSize=12;startSize=12;entryX=0;entryY=0.5;entryDx=0;entryDy=0;" edge="1" parent="1" target="evleP5VsPjODWGE9lHRX-398">
          <mxGeometry width="50" height="50" relative="1" as="geometry">
            <mxPoint x="160" y="4300.000000000001" as="sourcePoint" />
            <mxPoint x="320" y="4220" as="targetPoint" />
          </mxGeometry>
        </mxCell>
        <mxCell id="evleP5VsPjODWGE9lHRX-391" value="" style="endArrow=classic;html=1;rounded=0;exitX=1;exitY=0.5;exitDx=0;exitDy=0;endSize=12;startSize=12;entryX=0;entryY=0.5;entryDx=0;entryDy=0;" edge="1" parent="1" target="evleP5VsPjODWGE9lHRX-398">
          <mxGeometry width="50" height="50" relative="1" as="geometry">
            <mxPoint x="160" y="4340.000000000001" as="sourcePoint" />
            <mxPoint x="320" y="4220" as="targetPoint" />
          </mxGeometry>
        </mxCell>
        <mxCell id="evleP5VsPjODWGE9lHRX-392" value="" style="endArrow=classic;html=1;rounded=0;exitX=1;exitY=0.5;exitDx=0;exitDy=0;endSize=12;startSize=12;entryX=0;entryY=0.5;entryDx=0;entryDy=0;" edge="1" parent="1" target="evleP5VsPjODWGE9lHRX-396">
          <mxGeometry width="50" height="50" relative="1" as="geometry">
            <mxPoint x="160" y="4380.000000000001" as="sourcePoint" />
            <mxPoint x="320" y="4300" as="targetPoint" />
          </mxGeometry>
        </mxCell>
        <mxCell id="evleP5VsPjODWGE9lHRX-393" value="" style="endArrow=classic;html=1;rounded=0;exitX=1;exitY=0.5;exitDx=0;exitDy=0;endSize=12;startSize=12;entryX=0;entryY=0.5;entryDx=0;entryDy=0;" edge="1" parent="1" target="evleP5VsPjODWGE9lHRX-402">
          <mxGeometry width="50" height="50" relative="1" as="geometry">
            <mxPoint x="160" y="4420.000000000001" as="sourcePoint" />
            <mxPoint x="320" y="4380" as="targetPoint" />
          </mxGeometry>
        </mxCell>
        <mxCell id="evleP5VsPjODWGE9lHRX-394" value="&lt;span style=&quot;font-size: 17px;&quot;&gt;Kilimanjaro | Mont Blanc&lt;/span&gt;" style="rounded=0;whiteSpace=wrap;html=1;" vertex="1" parent="1">
          <mxGeometry x="320" y="4200" width="200" height="40" as="geometry" />
        </mxCell>
        <mxCell id="evleP5VsPjODWGE9lHRX-395" value="&lt;font style=&quot;font-size: 14px;&quot;&gt;&lt;b&gt;2&lt;/b&gt;&lt;/font&gt;" style="rounded=0;whiteSpace=wrap;html=1;fillColor=#B3B3B3;" vertex="1" parent="1">
          <mxGeometry x="320" y="4180" width="20" height="20" as="geometry" />
        </mxCell>
        <mxCell id="evleP5VsPjODWGE9lHRX-396" value="&lt;span style=&quot;font-size: 18px;&quot;&gt;Vinicunca&lt;/span&gt;" style="rounded=0;whiteSpace=wrap;html=1;" vertex="1" parent="1">
          <mxGeometry x="320" y="4360" width="200" height="40" as="geometry" />
        </mxCell>
        <mxCell id="evleP5VsPjODWGE9lHRX-397" value="&lt;font style=&quot;font-size: 14px;&quot;&gt;&lt;b&gt;3&lt;/b&gt;&lt;/font&gt;" style="rounded=0;whiteSpace=wrap;html=1;fillColor=#B3B3B3;" vertex="1" parent="1">
          <mxGeometry x="320" y="4340" width="20" height="20" as="geometry" />
        </mxCell>
        <mxCell id="evleP5VsPjODWGE9lHRX-398" value="&lt;span style=&quot;font-size: 18px;&quot;&gt;Etna |&amp;nbsp;&lt;/span&gt;&lt;span style=&quot;font-size: 18px;&quot;&gt;Cho &lt;/span&gt;&lt;span style=&quot;font-size: 18px;&quot;&gt;Oyu&lt;/span&gt;" style="rounded=0;whiteSpace=wrap;html=1;" vertex="1" parent="1">
          <mxGeometry x="320" y="4280" width="200" height="40" as="geometry" />
        </mxCell>
        <mxCell id="evleP5VsPjODWGE9lHRX-399" value="&lt;font style=&quot;font-size: 14px;&quot;&gt;&lt;b&gt;2&lt;/b&gt;&lt;/font&gt;" style="rounded=0;whiteSpace=wrap;html=1;fillColor=#B3B3B3;" vertex="1" parent="1">
          <mxGeometry x="320" y="4260" width="20" height="20" as="geometry" />
        </mxCell>
        <mxCell id="evleP5VsPjODWGE9lHRX-400" value="&lt;span style=&quot;font-size: 18px; background-color: initial;&quot;&gt;Chañi |&amp;nbsp;&lt;/span&gt;&lt;span style=&quot;font-size: 18px;&quot;&gt;Manaslu&lt;/span&gt;" style="rounded=0;whiteSpace=wrap;html=1;" vertex="1" parent="1">
          <mxGeometry x="320" y="4120" width="200" height="40" as="geometry" />
        </mxCell>
        <mxCell id="evleP5VsPjODWGE9lHRX-401" value="&lt;font style=&quot;font-size: 14px;&quot;&gt;&lt;b&gt;2&lt;/b&gt;&lt;/font&gt;" style="rounded=0;whiteSpace=wrap;html=1;fillColor=#B3B3B3;" vertex="1" parent="1">
          <mxGeometry x="320" y="4100" width="20" height="20" as="geometry" />
        </mxCell>
        <mxCell id="evleP5VsPjODWGE9lHRX-402" value="&lt;span style=&quot;font-size: 17px;&quot;&gt;Aconcagua | Cervino&lt;/span&gt;" style="rounded=0;whiteSpace=wrap;html=1;" vertex="1" parent="1">
          <mxGeometry x="320" y="4440" width="200" height="40" as="geometry" />
        </mxCell>
        <mxCell id="evleP5VsPjODWGE9lHRX-403" value="&lt;font style=&quot;font-size: 14px;&quot;&gt;&lt;b&gt;3&lt;/b&gt;&lt;/font&gt;" style="rounded=0;whiteSpace=wrap;html=1;fillColor=#B3B3B3;" vertex="1" parent="1">
          <mxGeometry x="320" y="4420" width="20" height="20" as="geometry" />
        </mxCell>
        <mxCell id="evleP5VsPjODWGE9lHRX-447" value="" style="endArrow=none;html=1;rounded=0;" edge="1" parent="1">
          <mxGeometry width="50" height="50" relative="1" as="geometry">
            <mxPoint y="4560" as="sourcePoint" />
            <mxPoint x="1000" y="4560" as="targetPoint" />
          </mxGeometry>
        </mxCell>
        <mxCell id="evleP5VsPjODWGE9lHRX-448" value="&lt;div style=&quot;text-align: center; font-size: 20px;&quot;&gt;&lt;b style=&quot;background-color: initial;&quot;&gt;Paso 10:&amp;nbsp;&lt;/b&gt;&lt;b style=&quot;background-color: initial;&quot;&gt;Monte Tai&lt;/b&gt;&lt;/div&gt;" style="text;html=1;align=left;verticalAlign=middle;whiteSpace=wrap;rounded=0;" vertex="1" parent="1">
          <mxGeometry x="40" y="4600" width="280" height="40" as="geometry" />
        </mxCell>
        <mxCell id="evleP5VsPjODWGE9lHRX-449" value="&lt;span style=&quot;background-color: initial; font-size: 16px;&quot;&gt;- Se&amp;nbsp;&lt;/span&gt;&lt;span style=&quot;font-size: 16px;&quot;&gt;aplica&amp;nbsp;&lt;/span&gt;&lt;span style=&quot;background-color: initial; font-size: 16px;&quot;&gt;la funcion de hash y se toman 3 bits&lt;/span&gt;&lt;div style=&quot;font-size: 16px;&quot;&gt;&lt;span style=&quot;background-color: initial;&quot;&gt;-&amp;nbsp;&lt;/span&gt;&lt;span style=&quot;text-align: center;&quot;&gt;Monte Tai&amp;nbsp;&lt;/span&gt;&lt;span style=&quot;background-color: initial;&quot;&gt;pasa al nodo con direccion 011&lt;/span&gt;&lt;/div&gt;&lt;div style=&quot;font-size: 16px;&quot;&gt;&lt;span style=&quot;background-color: initial;&quot;&gt;- Se produce una colision&lt;/span&gt;&lt;/div&gt;&lt;div&gt;&lt;span style=&quot;font-size: 16px;&quot;&gt;- Como hay espacio se inserta normalmente&lt;/span&gt;&lt;/div&gt;" style="text;html=1;align=left;verticalAlign=middle;whiteSpace=wrap;rounded=0;" vertex="1" parent="1">
          <mxGeometry x="560" y="4720" width="400" height="390" as="geometry" />
        </mxCell>
        <mxCell id="evleP5VsPjODWGE9lHRX-450" value="" style="group" connectable="0" vertex="1" parent="1">
          <mxGeometry x="80" y="4640" width="280" height="40" as="geometry" />
        </mxCell>
        <mxCell id="evleP5VsPjODWGE9lHRX-451" value="&lt;b&gt;11100011&lt;/b&gt;" style="rounded=0;whiteSpace=wrap;html=1;align=center;fontSize=18;" vertex="1" parent="evleP5VsPjODWGE9lHRX-450">
          <mxGeometry x="160" width="120" height="40" as="geometry" />
        </mxCell>
        <mxCell id="evleP5VsPjODWGE9lHRX-452" value="&lt;b&gt;Monte Tai&lt;/b&gt;" style="rounded=0;whiteSpace=wrap;html=1;align=center;fontSize=18;" vertex="1" parent="evleP5VsPjODWGE9lHRX-450">
          <mxGeometry width="160" height="40" as="geometry" />
        </mxCell>
        <mxCell id="evleP5VsPjODWGE9lHRX-453" value="&lt;b&gt;10&lt;/b&gt;" style="rounded=0;whiteSpace=wrap;html=1;align=center;fontSize=18;" vertex="1" parent="1">
          <mxGeometry x="40" y="4640" width="40" height="40" as="geometry" />
        </mxCell>
        <mxCell id="evleP5VsPjODWGE9lHRX-454" value="" style="endArrow=classic;html=1;rounded=0;endSize=12;startSize=12;entryX=0;entryY=0.5;entryDx=0;entryDy=0;exitX=1;exitY=0.5;exitDx=0;exitDy=0;" edge="1" parent="1">
          <mxGeometry width="50" height="50" relative="1" as="geometry">
            <mxPoint x="160" y="4780" as="sourcePoint" />
            <mxPoint x="320" y="4780" as="targetPoint" />
          </mxGeometry>
        </mxCell>
        <mxCell id="evleP5VsPjODWGE9lHRX-455" value="" style="endArrow=classic;html=1;rounded=0;exitX=1;exitY=0.5;exitDx=0;exitDy=0;endSize=12;startSize=12;entryX=0;entryY=0.5;entryDx=0;entryDy=0;" edge="1" parent="1" target="evleP5VsPjODWGE9lHRX-471">
          <mxGeometry width="50" height="50" relative="1" as="geometry">
            <mxPoint x="160" y="4860" as="sourcePoint" />
            <mxPoint x="320" y="4780" as="targetPoint" />
          </mxGeometry>
        </mxCell>
        <mxCell id="evleP5VsPjODWGE9lHRX-456" value="" style="endArrow=classic;html=1;rounded=0;exitX=1;exitY=0.5;exitDx=0;exitDy=0;endSize=12;startSize=12;entryX=0;entryY=0.5;entryDx=0;entryDy=0;" edge="1" parent="1">
          <mxGeometry width="50" height="50" relative="1" as="geometry">
            <mxPoint x="160" y="4820" as="sourcePoint" />
            <mxPoint x="320" y="4780" as="targetPoint" />
          </mxGeometry>
        </mxCell>
        <mxCell id="evleP5VsPjODWGE9lHRX-457" value="" style="endArrow=classic;html=1;rounded=0;exitX=1;exitY=0.5;exitDx=0;exitDy=0;endSize=12;startSize=12;entryX=0;entryY=0.5;entryDx=0;entryDy=0;" edge="1" parent="1" target="evleP5VsPjODWGE9lHRX-471">
          <mxGeometry width="50" height="50" relative="1" as="geometry">
            <mxPoint x="160" y="4900" as="sourcePoint" />
            <mxPoint x="320" y="4780" as="targetPoint" />
          </mxGeometry>
        </mxCell>
        <mxCell id="evleP5VsPjODWGE9lHRX-467" value="" style="endArrow=classic;html=1;rounded=0;exitX=1;exitY=0.5;exitDx=0;exitDy=0;endSize=12;startSize=12;entryX=0;entryY=0.5;entryDx=0;entryDy=0;" edge="1" parent="1" target="evleP5VsPjODWGE9lHRX-475">
          <mxGeometry width="50" height="50" relative="1" as="geometry">
            <mxPoint x="160" y="4940" as="sourcePoint" />
            <mxPoint x="320" y="4860" as="targetPoint" />
          </mxGeometry>
        </mxCell>
        <mxCell id="evleP5VsPjODWGE9lHRX-468" value="" style="endArrow=classic;html=1;rounded=0;exitX=1;exitY=0.5;exitDx=0;exitDy=0;endSize=12;startSize=12;entryX=0;entryY=0.5;entryDx=0;entryDy=0;" edge="1" parent="1" target="evleP5VsPjODWGE9lHRX-475">
          <mxGeometry width="50" height="50" relative="1" as="geometry">
            <mxPoint x="160" y="4980" as="sourcePoint" />
            <mxPoint x="320" y="4860" as="targetPoint" />
          </mxGeometry>
        </mxCell>
        <mxCell id="evleP5VsPjODWGE9lHRX-469" value="" style="endArrow=classic;html=1;rounded=0;exitX=1;exitY=0.5;exitDx=0;exitDy=0;endSize=12;startSize=12;entryX=0;entryY=0.5;entryDx=0;entryDy=0;" edge="1" parent="1" target="evleP5VsPjODWGE9lHRX-473">
          <mxGeometry width="50" height="50" relative="1" as="geometry">
            <mxPoint x="160" y="5020" as="sourcePoint" />
            <mxPoint x="320" y="4940" as="targetPoint" />
          </mxGeometry>
        </mxCell>
        <mxCell id="evleP5VsPjODWGE9lHRX-470" value="" style="endArrow=classic;html=1;rounded=0;exitX=1;exitY=0.5;exitDx=0;exitDy=0;endSize=12;startSize=12;entryX=0;entryY=0.5;entryDx=0;entryDy=0;" edge="1" parent="1" target="evleP5VsPjODWGE9lHRX-479">
          <mxGeometry width="50" height="50" relative="1" as="geometry">
            <mxPoint x="160" y="5060" as="sourcePoint" />
            <mxPoint x="320" y="5020" as="targetPoint" />
          </mxGeometry>
        </mxCell>
        <mxCell id="evleP5VsPjODWGE9lHRX-471" value="&lt;span style=&quot;font-size: 17px;&quot;&gt;Kilimanjaro | Mont Blanc&lt;/span&gt;" style="rounded=0;whiteSpace=wrap;html=1;" vertex="1" parent="1">
          <mxGeometry x="320" y="4840" width="200" height="40" as="geometry" />
        </mxCell>
        <mxCell id="evleP5VsPjODWGE9lHRX-472" value="&lt;font style=&quot;font-size: 14px;&quot;&gt;&lt;b&gt;2&lt;/b&gt;&lt;/font&gt;" style="rounded=0;whiteSpace=wrap;html=1;fillColor=#B3B3B3;" vertex="1" parent="1">
          <mxGeometry x="320" y="4820" width="20" height="20" as="geometry" />
        </mxCell>
        <mxCell id="evleP5VsPjODWGE9lHRX-473" value="&lt;span style=&quot;font-size: 18px;&quot;&gt;Vinicunca |&amp;nbsp;&lt;/span&gt;&lt;span style=&quot;font-size: 18px;&quot;&gt;Monte Tai&lt;/span&gt;" style="rounded=0;whiteSpace=wrap;html=1;" vertex="1" parent="1">
          <mxGeometry x="320" y="5000" width="200" height="40" as="geometry" />
        </mxCell>
        <mxCell id="evleP5VsPjODWGE9lHRX-474" value="&lt;font style=&quot;font-size: 14px;&quot;&gt;&lt;b&gt;3&lt;/b&gt;&lt;/font&gt;" style="rounded=0;whiteSpace=wrap;html=1;fillColor=#B3B3B3;" vertex="1" parent="1">
          <mxGeometry x="320" y="4980" width="20" height="20" as="geometry" />
        </mxCell>
        <mxCell id="evleP5VsPjODWGE9lHRX-475" value="&lt;span style=&quot;font-size: 18px;&quot;&gt;Etna |&amp;nbsp;&lt;/span&gt;&lt;span style=&quot;font-size: 18px;&quot;&gt;Cho &lt;/span&gt;&lt;span style=&quot;font-size: 18px;&quot;&gt;Oyu&lt;/span&gt;" style="rounded=0;whiteSpace=wrap;html=1;" vertex="1" parent="1">
          <mxGeometry x="320" y="4920" width="200" height="40" as="geometry" />
        </mxCell>
        <mxCell id="evleP5VsPjODWGE9lHRX-476" value="&lt;font style=&quot;font-size: 14px;&quot;&gt;&lt;b&gt;2&lt;/b&gt;&lt;/font&gt;" style="rounded=0;whiteSpace=wrap;html=1;fillColor=#B3B3B3;" vertex="1" parent="1">
          <mxGeometry x="320" y="4900" width="20" height="20" as="geometry" />
        </mxCell>
        <mxCell id="evleP5VsPjODWGE9lHRX-477" value="&lt;span style=&quot;font-size: 18px; background-color: initial;&quot;&gt;Chañi |&amp;nbsp;&lt;/span&gt;&lt;span style=&quot;font-size: 18px;&quot;&gt;Manaslu&lt;/span&gt;" style="rounded=0;whiteSpace=wrap;html=1;" vertex="1" parent="1">
          <mxGeometry x="320" y="4760" width="200" height="40" as="geometry" />
        </mxCell>
        <mxCell id="evleP5VsPjODWGE9lHRX-478" value="&lt;font style=&quot;font-size: 14px;&quot;&gt;&lt;b&gt;2&lt;/b&gt;&lt;/font&gt;" style="rounded=0;whiteSpace=wrap;html=1;fillColor=#B3B3B3;" vertex="1" parent="1">
          <mxGeometry x="320" y="4740" width="20" height="20" as="geometry" />
        </mxCell>
        <mxCell id="evleP5VsPjODWGE9lHRX-479" value="&lt;span style=&quot;font-size: 17px;&quot;&gt;Aconcagua | Cervino&lt;/span&gt;" style="rounded=0;whiteSpace=wrap;html=1;" vertex="1" parent="1">
          <mxGeometry x="320" y="5080" width="200" height="40" as="geometry" />
        </mxCell>
        <mxCell id="evleP5VsPjODWGE9lHRX-480" value="&lt;font style=&quot;font-size: 14px;&quot;&gt;&lt;b&gt;3&lt;/b&gt;&lt;/font&gt;" style="rounded=0;whiteSpace=wrap;html=1;fillColor=#B3B3B3;" vertex="1" parent="1">
          <mxGeometry x="320" y="5060" width="20" height="20" as="geometry" />
        </mxCell>
        <mxCell id="evleP5VsPjODWGE9lHRX-481" value="" style="endArrow=none;html=1;rounded=0;" edge="1" parent="1">
          <mxGeometry width="50" height="50" relative="1" as="geometry">
            <mxPoint y="5200" as="sourcePoint" />
            <mxPoint x="1000" y="5200" as="targetPoint" />
          </mxGeometry>
        </mxCell>
        <mxCell id="evleP5VsPjODWGE9lHRX-482" value="&lt;b style=&quot;font-size: 16px;&quot;&gt;Dirección&lt;/b&gt;" style="rounded=0;whiteSpace=wrap;html=1;" vertex="1" parent="1">
          <mxGeometry x="40" y="440" width="120" height="40" as="geometry" />
        </mxCell>
        <mxCell id="evleP5VsPjODWGE9lHRX-483" value="&lt;font style=&quot;font-size: 14px;&quot;&gt;&lt;b&gt;1&lt;/b&gt;&lt;/font&gt;" style="rounded=0;whiteSpace=wrap;html=1;fillColor=#B3B3B3;" vertex="1" parent="1">
          <mxGeometry x="40" y="420" width="20" height="20" as="geometry" />
        </mxCell>
        <mxCell id="evleP5VsPjODWGE9lHRX-484" value="&lt;b style=&quot;font-size: 16px;&quot;&gt;Dirección&lt;/b&gt;" style="rounded=0;whiteSpace=wrap;html=1;" vertex="1" parent="1">
          <mxGeometry x="40" y="480" width="120" height="40" as="geometry" />
        </mxCell>
        <mxCell id="evleP5VsPjODWGE9lHRX-485" value="&lt;b&gt;&lt;font style=&quot;font-size: 16px;&quot;&gt;0&lt;/font&gt;&lt;/b&gt;" style="text;html=1;align=center;verticalAlign=middle;whiteSpace=wrap;rounded=0;" vertex="1" parent="1">
          <mxGeometry y="440" width="40" height="40" as="geometry" />
        </mxCell>
        <mxCell id="evleP5VsPjODWGE9lHRX-486" value="&lt;b&gt;&lt;font style=&quot;font-size: 16px;&quot;&gt;1&lt;/font&gt;&lt;/b&gt;" style="text;html=1;align=center;verticalAlign=middle;whiteSpace=wrap;rounded=0;" vertex="1" parent="1">
          <mxGeometry y="480" width="40" height="40" as="geometry" />
        </mxCell>
        <mxCell id="evleP5VsPjODWGE9lHRX-487" value="&lt;b style=&quot;font-size: 16px;&quot;&gt;Dirección&lt;/b&gt;" style="rounded=0;whiteSpace=wrap;html=1;" vertex="1" parent="1">
          <mxGeometry x="40" y="1040" width="120" height="40" as="geometry" />
        </mxCell>
        <mxCell id="evleP5VsPjODWGE9lHRX-488" value="&lt;font style=&quot;font-size: 14px;&quot;&gt;&lt;b&gt;1&lt;/b&gt;&lt;/font&gt;" style="rounded=0;whiteSpace=wrap;html=1;fillColor=#B3B3B3;" vertex="1" parent="1">
          <mxGeometry x="40" y="1020" width="20" height="20" as="geometry" />
        </mxCell>
        <mxCell id="evleP5VsPjODWGE9lHRX-489" value="&lt;b style=&quot;font-size: 16px;&quot;&gt;Dirección&lt;/b&gt;" style="rounded=0;whiteSpace=wrap;html=1;" vertex="1" parent="1">
          <mxGeometry x="40" y="1080" width="120" height="40" as="geometry" />
        </mxCell>
        <mxCell id="evleP5VsPjODWGE9lHRX-490" value="&lt;b&gt;&lt;font style=&quot;font-size: 16px;&quot;&gt;0&lt;/font&gt;&lt;/b&gt;" style="text;html=1;align=center;verticalAlign=middle;whiteSpace=wrap;rounded=0;" vertex="1" parent="1">
          <mxGeometry y="1040" width="40" height="40" as="geometry" />
        </mxCell>
        <mxCell id="evleP5VsPjODWGE9lHRX-491" value="&lt;b&gt;&lt;font style=&quot;font-size: 16px;&quot;&gt;1&lt;/font&gt;&lt;/b&gt;" style="text;html=1;align=center;verticalAlign=middle;whiteSpace=wrap;rounded=0;" vertex="1" parent="1">
          <mxGeometry y="1080" width="40" height="40" as="geometry" />
        </mxCell>
        <mxCell id="evleP5VsPjODWGE9lHRX-492" value="&lt;b style=&quot;font-size: 16px;&quot;&gt;Dirección&lt;/b&gt;" style="rounded=0;whiteSpace=wrap;html=1;" vertex="1" parent="1">
          <mxGeometry x="40" y="1480" width="120" height="40" as="geometry" />
        </mxCell>
        <mxCell id="evleP5VsPjODWGE9lHRX-493" value="&lt;font style=&quot;font-size: 14px;&quot;&gt;&lt;b&gt;2&lt;/b&gt;&lt;/font&gt;" style="rounded=0;whiteSpace=wrap;html=1;fillColor=#B3B3B3;" vertex="1" parent="1">
          <mxGeometry x="40" y="1460" width="20" height="20" as="geometry" />
        </mxCell>
        <mxCell id="evleP5VsPjODWGE9lHRX-494" value="&lt;b style=&quot;font-size: 16px;&quot;&gt;Dirección&lt;/b&gt;" style="rounded=0;whiteSpace=wrap;html=1;" vertex="1" parent="1">
          <mxGeometry x="40" y="1520" width="120" height="40" as="geometry" />
        </mxCell>
        <mxCell id="evleP5VsPjODWGE9lHRX-495" value="&lt;b style=&quot;font-size: 16px;&quot;&gt;Dirección&lt;/b&gt;" style="rounded=0;whiteSpace=wrap;html=1;" vertex="1" parent="1">
          <mxGeometry x="40" y="1560" width="120" height="40" as="geometry" />
        </mxCell>
        <mxCell id="evleP5VsPjODWGE9lHRX-496" value="&lt;b style=&quot;font-size: 16px;&quot;&gt;Dirección&lt;/b&gt;" style="rounded=0;whiteSpace=wrap;html=1;" vertex="1" parent="1">
          <mxGeometry x="40" y="1600" width="120" height="40" as="geometry" />
        </mxCell>
        <mxCell id="evleP5VsPjODWGE9lHRX-497" value="&lt;b&gt;&lt;font style=&quot;font-size: 16px;&quot;&gt;00&lt;/font&gt;&lt;/b&gt;" style="text;html=1;align=center;verticalAlign=middle;whiteSpace=wrap;rounded=0;" vertex="1" parent="1">
          <mxGeometry y="1480" width="40" height="40" as="geometry" />
        </mxCell>
        <mxCell id="evleP5VsPjODWGE9lHRX-498" value="&lt;b&gt;&lt;font style=&quot;font-size: 16px;&quot;&gt;10&lt;/font&gt;&lt;/b&gt;" style="text;html=1;align=center;verticalAlign=middle;whiteSpace=wrap;rounded=0;" vertex="1" parent="1">
          <mxGeometry y="1520" width="40" height="40" as="geometry" />
        </mxCell>
        <mxCell id="evleP5VsPjODWGE9lHRX-499" value="&lt;b&gt;&lt;font style=&quot;font-size: 16px;&quot;&gt;01&lt;/font&gt;&lt;/b&gt;" style="text;html=1;align=center;verticalAlign=middle;whiteSpace=wrap;rounded=0;" vertex="1" parent="1">
          <mxGeometry y="1560" width="40" height="40" as="geometry" />
        </mxCell>
        <mxCell id="evleP5VsPjODWGE9lHRX-500" value="&lt;b&gt;&lt;font style=&quot;font-size: 16px;&quot;&gt;11&lt;/font&gt;&lt;/b&gt;" style="text;html=1;align=center;verticalAlign=middle;whiteSpace=wrap;rounded=0;" vertex="1" parent="1">
          <mxGeometry y="1600" width="40" height="40" as="geometry" />
        </mxCell>
        <mxCell id="evleP5VsPjODWGE9lHRX-501" value="&lt;b style=&quot;font-size: 16px;&quot;&gt;Dirección&lt;/b&gt;" style="rounded=0;whiteSpace=wrap;html=1;" vertex="1" parent="1">
          <mxGeometry x="40" y="2160" width="120" height="40" as="geometry" />
        </mxCell>
        <mxCell id="evleP5VsPjODWGE9lHRX-502" value="&lt;font style=&quot;font-size: 14px;&quot;&gt;&lt;b&gt;2&lt;/b&gt;&lt;/font&gt;" style="rounded=0;whiteSpace=wrap;html=1;fillColor=#B3B3B3;" vertex="1" parent="1">
          <mxGeometry x="40" y="2140" width="20" height="20" as="geometry" />
        </mxCell>
        <mxCell id="evleP5VsPjODWGE9lHRX-503" value="&lt;b style=&quot;font-size: 16px;&quot;&gt;Dirección&lt;/b&gt;" style="rounded=0;whiteSpace=wrap;html=1;" vertex="1" parent="1">
          <mxGeometry x="40" y="2200" width="120" height="40" as="geometry" />
        </mxCell>
        <mxCell id="evleP5VsPjODWGE9lHRX-504" value="&lt;b style=&quot;font-size: 16px;&quot;&gt;Dirección&lt;/b&gt;" style="rounded=0;whiteSpace=wrap;html=1;" vertex="1" parent="1">
          <mxGeometry x="40" y="2240" width="120" height="40" as="geometry" />
        </mxCell>
        <mxCell id="evleP5VsPjODWGE9lHRX-505" value="&lt;b style=&quot;font-size: 16px;&quot;&gt;Dirección&lt;/b&gt;" style="rounded=0;whiteSpace=wrap;html=1;" vertex="1" parent="1">
          <mxGeometry x="40" y="2280" width="120" height="40" as="geometry" />
        </mxCell>
        <mxCell id="evleP5VsPjODWGE9lHRX-506" value="&lt;b&gt;&lt;font style=&quot;font-size: 16px;&quot;&gt;00&lt;/font&gt;&lt;/b&gt;" style="text;html=1;align=center;verticalAlign=middle;whiteSpace=wrap;rounded=0;" vertex="1" parent="1">
          <mxGeometry y="2160" width="40" height="40" as="geometry" />
        </mxCell>
        <mxCell id="evleP5VsPjODWGE9lHRX-507" value="&lt;b&gt;&lt;font style=&quot;font-size: 16px;&quot;&gt;10&lt;/font&gt;&lt;/b&gt;" style="text;html=1;align=center;verticalAlign=middle;whiteSpace=wrap;rounded=0;" vertex="1" parent="1">
          <mxGeometry y="2200" width="40" height="40" as="geometry" />
        </mxCell>
        <mxCell id="evleP5VsPjODWGE9lHRX-508" value="&lt;b&gt;&lt;font style=&quot;font-size: 16px;&quot;&gt;01&lt;/font&gt;&lt;/b&gt;" style="text;html=1;align=center;verticalAlign=middle;whiteSpace=wrap;rounded=0;" vertex="1" parent="1">
          <mxGeometry y="2240" width="40" height="40" as="geometry" />
        </mxCell>
        <mxCell id="evleP5VsPjODWGE9lHRX-509" value="&lt;b&gt;&lt;font style=&quot;font-size: 16px;&quot;&gt;11&lt;/font&gt;&lt;/b&gt;" style="text;html=1;align=center;verticalAlign=middle;whiteSpace=wrap;rounded=0;" vertex="1" parent="1">
          <mxGeometry y="2280" width="40" height="40" as="geometry" />
        </mxCell>
        <mxCell id="evleP5VsPjODWGE9lHRX-510" value="&lt;b style=&quot;font-size: 16px;&quot;&gt;Dirección&lt;/b&gt;" style="rounded=0;whiteSpace=wrap;html=1;" vertex="1" parent="1">
          <mxGeometry x="40" y="2840" width="120" height="40" as="geometry" />
        </mxCell>
        <mxCell id="evleP5VsPjODWGE9lHRX-511" value="&lt;font style=&quot;font-size: 14px;&quot;&gt;&lt;b&gt;2&lt;/b&gt;&lt;/font&gt;" style="rounded=0;whiteSpace=wrap;html=1;fillColor=#B3B3B3;" vertex="1" parent="1">
          <mxGeometry x="40" y="2820" width="20" height="20" as="geometry" />
        </mxCell>
        <mxCell id="evleP5VsPjODWGE9lHRX-512" value="&lt;b style=&quot;font-size: 16px;&quot;&gt;Dirección&lt;/b&gt;" style="rounded=0;whiteSpace=wrap;html=1;" vertex="1" parent="1">
          <mxGeometry x="40" y="2880" width="120" height="40" as="geometry" />
        </mxCell>
        <mxCell id="evleP5VsPjODWGE9lHRX-513" value="&lt;b style=&quot;font-size: 16px;&quot;&gt;Dirección&lt;/b&gt;" style="rounded=0;whiteSpace=wrap;html=1;" vertex="1" parent="1">
          <mxGeometry x="40" y="2920" width="120" height="40" as="geometry" />
        </mxCell>
        <mxCell id="evleP5VsPjODWGE9lHRX-514" value="&lt;b style=&quot;font-size: 16px;&quot;&gt;Dirección&lt;/b&gt;" style="rounded=0;whiteSpace=wrap;html=1;" vertex="1" parent="1">
          <mxGeometry x="40" y="2960" width="120" height="40" as="geometry" />
        </mxCell>
        <mxCell id="evleP5VsPjODWGE9lHRX-515" value="&lt;b&gt;&lt;font style=&quot;font-size: 16px;&quot;&gt;00&lt;/font&gt;&lt;/b&gt;" style="text;html=1;align=center;verticalAlign=middle;whiteSpace=wrap;rounded=0;" vertex="1" parent="1">
          <mxGeometry y="2840" width="40" height="40" as="geometry" />
        </mxCell>
        <mxCell id="evleP5VsPjODWGE9lHRX-516" value="&lt;b&gt;&lt;font style=&quot;font-size: 16px;&quot;&gt;10&lt;/font&gt;&lt;/b&gt;" style="text;html=1;align=center;verticalAlign=middle;whiteSpace=wrap;rounded=0;" vertex="1" parent="1">
          <mxGeometry y="2880" width="40" height="40" as="geometry" />
        </mxCell>
        <mxCell id="evleP5VsPjODWGE9lHRX-517" value="&lt;b&gt;&lt;font style=&quot;font-size: 16px;&quot;&gt;01&lt;/font&gt;&lt;/b&gt;" style="text;html=1;align=center;verticalAlign=middle;whiteSpace=wrap;rounded=0;" vertex="1" parent="1">
          <mxGeometry y="2920" width="40" height="40" as="geometry" />
        </mxCell>
        <mxCell id="evleP5VsPjODWGE9lHRX-518" value="&lt;b&gt;&lt;font style=&quot;font-size: 16px;&quot;&gt;11&lt;/font&gt;&lt;/b&gt;" style="text;html=1;align=center;verticalAlign=middle;whiteSpace=wrap;rounded=0;" vertex="1" parent="1">
          <mxGeometry y="2960" width="40" height="40" as="geometry" />
        </mxCell>
        <mxCell id="evleP5VsPjODWGE9lHRX-519" value="&lt;b style=&quot;font-size: 16px;&quot;&gt;Dirección&lt;/b&gt;" style="rounded=0;whiteSpace=wrap;html=1;" vertex="1" parent="1">
          <mxGeometry x="40" y="3360" width="120" height="40" as="geometry" />
        </mxCell>
        <mxCell id="evleP5VsPjODWGE9lHRX-520" value="&lt;font style=&quot;font-size: 14px;&quot;&gt;&lt;b&gt;3&lt;/b&gt;&lt;/font&gt;" style="rounded=0;whiteSpace=wrap;html=1;fillColor=#B3B3B3;" vertex="1" parent="1">
          <mxGeometry x="40" y="3340" width="20" height="20" as="geometry" />
        </mxCell>
        <mxCell id="evleP5VsPjODWGE9lHRX-521" value="&lt;b style=&quot;font-size: 16px;&quot;&gt;Dirección&lt;/b&gt;" style="rounded=0;whiteSpace=wrap;html=1;" vertex="1" parent="1">
          <mxGeometry x="40" y="3400" width="120" height="40" as="geometry" />
        </mxCell>
        <mxCell id="evleP5VsPjODWGE9lHRX-522" value="&lt;b style=&quot;font-size: 16px;&quot;&gt;Dirección&lt;/b&gt;" style="rounded=0;whiteSpace=wrap;html=1;" vertex="1" parent="1">
          <mxGeometry x="40" y="3440" width="120" height="40" as="geometry" />
        </mxCell>
        <mxCell id="evleP5VsPjODWGE9lHRX-523" value="&lt;b style=&quot;font-size: 16px;&quot;&gt;Dirección&lt;/b&gt;" style="rounded=0;whiteSpace=wrap;html=1;" vertex="1" parent="1">
          <mxGeometry x="40" y="3480" width="120" height="40" as="geometry" />
        </mxCell>
        <mxCell id="evleP5VsPjODWGE9lHRX-524" value="&lt;b style=&quot;font-size: 16px;&quot;&gt;Dirección&lt;/b&gt;" style="rounded=0;whiteSpace=wrap;html=1;" vertex="1" parent="1">
          <mxGeometry x="40" y="3520" width="120" height="40" as="geometry" />
        </mxCell>
        <mxCell id="evleP5VsPjODWGE9lHRX-525" value="&lt;b style=&quot;font-size: 16px;&quot;&gt;Dirección&lt;/b&gt;" style="rounded=0;whiteSpace=wrap;html=1;" vertex="1" parent="1">
          <mxGeometry x="40" y="3560" width="120" height="40" as="geometry" />
        </mxCell>
        <mxCell id="evleP5VsPjODWGE9lHRX-526" value="&lt;b style=&quot;font-size: 16px;&quot;&gt;Dirección&lt;/b&gt;" style="rounded=0;whiteSpace=wrap;html=1;" vertex="1" parent="1">
          <mxGeometry x="40" y="3600" width="120" height="40" as="geometry" />
        </mxCell>
        <mxCell id="evleP5VsPjODWGE9lHRX-527" value="&lt;b style=&quot;font-size: 16px;&quot;&gt;Dirección&lt;/b&gt;" style="rounded=0;whiteSpace=wrap;html=1;" vertex="1" parent="1">
          <mxGeometry x="40" y="3640" width="120" height="40" as="geometry" />
        </mxCell>
        <mxCell id="evleP5VsPjODWGE9lHRX-528" value="&lt;b&gt;&lt;font style=&quot;font-size: 16px;&quot;&gt;000&lt;/font&gt;&lt;/b&gt;" style="text;html=1;align=center;verticalAlign=middle;whiteSpace=wrap;rounded=0;" vertex="1" parent="1">
          <mxGeometry y="3360" width="40" height="40" as="geometry" />
        </mxCell>
        <mxCell id="evleP5VsPjODWGE9lHRX-529" value="&lt;b&gt;&lt;font style=&quot;font-size: 16px;&quot;&gt;100&lt;/font&gt;&lt;/b&gt;" style="text;html=1;align=center;verticalAlign=middle;whiteSpace=wrap;rounded=0;" vertex="1" parent="1">
          <mxGeometry y="3400" width="40" height="40" as="geometry" />
        </mxCell>
        <mxCell id="evleP5VsPjODWGE9lHRX-530" value="&lt;b&gt;&lt;font style=&quot;font-size: 16px;&quot;&gt;010&lt;/font&gt;&lt;/b&gt;" style="text;html=1;align=center;verticalAlign=middle;whiteSpace=wrap;rounded=0;" vertex="1" parent="1">
          <mxGeometry y="3440" width="40" height="40" as="geometry" />
        </mxCell>
        <mxCell id="evleP5VsPjODWGE9lHRX-531" value="&lt;b&gt;&lt;font style=&quot;font-size: 16px;&quot;&gt;110&lt;/font&gt;&lt;/b&gt;" style="text;html=1;align=center;verticalAlign=middle;whiteSpace=wrap;rounded=0;" vertex="1" parent="1">
          <mxGeometry y="3480" width="40" height="40" as="geometry" />
        </mxCell>
        <mxCell id="evleP5VsPjODWGE9lHRX-532" value="&lt;b&gt;&lt;font style=&quot;font-size: 16px;&quot;&gt;001&lt;/font&gt;&lt;/b&gt;" style="text;html=1;align=center;verticalAlign=middle;whiteSpace=wrap;rounded=0;" vertex="1" parent="1">
          <mxGeometry y="3520" width="40" height="40" as="geometry" />
        </mxCell>
        <mxCell id="evleP5VsPjODWGE9lHRX-533" value="&lt;b&gt;&lt;font style=&quot;font-size: 16px;&quot;&gt;101&lt;/font&gt;&lt;/b&gt;" style="text;html=1;align=center;verticalAlign=middle;whiteSpace=wrap;rounded=0;" vertex="1" parent="1">
          <mxGeometry y="3560" width="40" height="40" as="geometry" />
        </mxCell>
        <mxCell id="evleP5VsPjODWGE9lHRX-534" value="&lt;b&gt;&lt;font style=&quot;font-size: 16px;&quot;&gt;011&lt;/font&gt;&lt;/b&gt;" style="text;html=1;align=center;verticalAlign=middle;whiteSpace=wrap;rounded=0;" vertex="1" parent="1">
          <mxGeometry y="3600" width="40" height="40" as="geometry" />
        </mxCell>
        <mxCell id="evleP5VsPjODWGE9lHRX-535" value="&lt;b&gt;&lt;font style=&quot;font-size: 16px;&quot;&gt;111&lt;/font&gt;&lt;/b&gt;" style="text;html=1;align=center;verticalAlign=middle;whiteSpace=wrap;rounded=0;" vertex="1" parent="1">
          <mxGeometry y="3640" width="40" height="40" as="geometry" />
        </mxCell>
        <mxCell id="evleP5VsPjODWGE9lHRX-553" value="&lt;b style=&quot;font-size: 16px;&quot;&gt;Dirección&lt;/b&gt;" style="rounded=0;whiteSpace=wrap;html=1;" vertex="1" parent="1">
          <mxGeometry x="40" y="4120" width="120" height="40" as="geometry" />
        </mxCell>
        <mxCell id="evleP5VsPjODWGE9lHRX-554" value="&lt;font style=&quot;font-size: 14px;&quot;&gt;&lt;b&gt;3&lt;/b&gt;&lt;/font&gt;" style="rounded=0;whiteSpace=wrap;html=1;fillColor=#B3B3B3;" vertex="1" parent="1">
          <mxGeometry x="40" y="4100" width="20" height="20" as="geometry" />
        </mxCell>
        <mxCell id="evleP5VsPjODWGE9lHRX-555" value="&lt;b style=&quot;font-size: 16px;&quot;&gt;Dirección&lt;/b&gt;" style="rounded=0;whiteSpace=wrap;html=1;" vertex="1" parent="1">
          <mxGeometry x="40" y="4160" width="120" height="40" as="geometry" />
        </mxCell>
        <mxCell id="evleP5VsPjODWGE9lHRX-556" value="&lt;b style=&quot;font-size: 16px;&quot;&gt;Dirección&lt;/b&gt;" style="rounded=0;whiteSpace=wrap;html=1;" vertex="1" parent="1">
          <mxGeometry x="40" y="4200" width="120" height="40" as="geometry" />
        </mxCell>
        <mxCell id="evleP5VsPjODWGE9lHRX-557" value="&lt;b style=&quot;font-size: 16px;&quot;&gt;Dirección&lt;/b&gt;" style="rounded=0;whiteSpace=wrap;html=1;" vertex="1" parent="1">
          <mxGeometry x="40" y="4240" width="120" height="40" as="geometry" />
        </mxCell>
        <mxCell id="evleP5VsPjODWGE9lHRX-558" value="&lt;b style=&quot;font-size: 16px;&quot;&gt;Dirección&lt;/b&gt;" style="rounded=0;whiteSpace=wrap;html=1;" vertex="1" parent="1">
          <mxGeometry x="40" y="4280" width="120" height="40" as="geometry" />
        </mxCell>
        <mxCell id="evleP5VsPjODWGE9lHRX-559" value="&lt;b style=&quot;font-size: 16px;&quot;&gt;Dirección&lt;/b&gt;" style="rounded=0;whiteSpace=wrap;html=1;" vertex="1" parent="1">
          <mxGeometry x="40" y="4320" width="120" height="40" as="geometry" />
        </mxCell>
        <mxCell id="evleP5VsPjODWGE9lHRX-560" value="&lt;b style=&quot;font-size: 16px;&quot;&gt;Dirección&lt;/b&gt;" style="rounded=0;whiteSpace=wrap;html=1;" vertex="1" parent="1">
          <mxGeometry x="40" y="4360" width="120" height="40" as="geometry" />
        </mxCell>
        <mxCell id="evleP5VsPjODWGE9lHRX-561" value="&lt;b style=&quot;font-size: 16px;&quot;&gt;Dirección&lt;/b&gt;" style="rounded=0;whiteSpace=wrap;html=1;" vertex="1" parent="1">
          <mxGeometry x="40" y="4400" width="120" height="40" as="geometry" />
        </mxCell>
        <mxCell id="evleP5VsPjODWGE9lHRX-562" value="&lt;b&gt;&lt;font style=&quot;font-size: 16px;&quot;&gt;000&lt;/font&gt;&lt;/b&gt;" style="text;html=1;align=center;verticalAlign=middle;whiteSpace=wrap;rounded=0;" vertex="1" parent="1">
          <mxGeometry y="4120" width="40" height="40" as="geometry" />
        </mxCell>
        <mxCell id="evleP5VsPjODWGE9lHRX-563" value="&lt;b&gt;&lt;font style=&quot;font-size: 16px;&quot;&gt;100&lt;/font&gt;&lt;/b&gt;" style="text;html=1;align=center;verticalAlign=middle;whiteSpace=wrap;rounded=0;" vertex="1" parent="1">
          <mxGeometry y="4160" width="40" height="40" as="geometry" />
        </mxCell>
        <mxCell id="evleP5VsPjODWGE9lHRX-564" value="&lt;b&gt;&lt;font style=&quot;font-size: 16px;&quot;&gt;010&lt;/font&gt;&lt;/b&gt;" style="text;html=1;align=center;verticalAlign=middle;whiteSpace=wrap;rounded=0;" vertex="1" parent="1">
          <mxGeometry y="4200" width="40" height="40" as="geometry" />
        </mxCell>
        <mxCell id="evleP5VsPjODWGE9lHRX-565" value="&lt;b&gt;&lt;font style=&quot;font-size: 16px;&quot;&gt;110&lt;/font&gt;&lt;/b&gt;" style="text;html=1;align=center;verticalAlign=middle;whiteSpace=wrap;rounded=0;" vertex="1" parent="1">
          <mxGeometry y="4240" width="40" height="40" as="geometry" />
        </mxCell>
        <mxCell id="evleP5VsPjODWGE9lHRX-566" value="&lt;b&gt;&lt;font style=&quot;font-size: 16px;&quot;&gt;001&lt;/font&gt;&lt;/b&gt;" style="text;html=1;align=center;verticalAlign=middle;whiteSpace=wrap;rounded=0;" vertex="1" parent="1">
          <mxGeometry y="4280" width="40" height="40" as="geometry" />
        </mxCell>
        <mxCell id="evleP5VsPjODWGE9lHRX-567" value="&lt;b&gt;&lt;font style=&quot;font-size: 16px;&quot;&gt;101&lt;/font&gt;&lt;/b&gt;" style="text;html=1;align=center;verticalAlign=middle;whiteSpace=wrap;rounded=0;" vertex="1" parent="1">
          <mxGeometry y="4320" width="40" height="40" as="geometry" />
        </mxCell>
        <mxCell id="evleP5VsPjODWGE9lHRX-568" value="&lt;b&gt;&lt;font style=&quot;font-size: 16px;&quot;&gt;011&lt;/font&gt;&lt;/b&gt;" style="text;html=1;align=center;verticalAlign=middle;whiteSpace=wrap;rounded=0;" vertex="1" parent="1">
          <mxGeometry y="4360" width="40" height="40" as="geometry" />
        </mxCell>
        <mxCell id="evleP5VsPjODWGE9lHRX-569" value="&lt;b&gt;&lt;font style=&quot;font-size: 16px;&quot;&gt;111&lt;/font&gt;&lt;/b&gt;" style="text;html=1;align=center;verticalAlign=middle;whiteSpace=wrap;rounded=0;" vertex="1" parent="1">
          <mxGeometry y="4400" width="40" height="40" as="geometry" />
        </mxCell>
        <mxCell id="evleP5VsPjODWGE9lHRX-570" value="&lt;b style=&quot;font-size: 16px;&quot;&gt;Dirección&lt;/b&gt;" style="rounded=0;whiteSpace=wrap;html=1;" vertex="1" parent="1">
          <mxGeometry x="40" y="4760" width="120" height="40" as="geometry" />
        </mxCell>
        <mxCell id="evleP5VsPjODWGE9lHRX-571" value="&lt;font style=&quot;font-size: 14px;&quot;&gt;&lt;b&gt;3&lt;/b&gt;&lt;/font&gt;" style="rounded=0;whiteSpace=wrap;html=1;fillColor=#B3B3B3;" vertex="1" parent="1">
          <mxGeometry x="40" y="4740" width="20" height="20" as="geometry" />
        </mxCell>
        <mxCell id="evleP5VsPjODWGE9lHRX-572" value="&lt;b style=&quot;font-size: 16px;&quot;&gt;Dirección&lt;/b&gt;" style="rounded=0;whiteSpace=wrap;html=1;" vertex="1" parent="1">
          <mxGeometry x="40" y="4800" width="120" height="40" as="geometry" />
        </mxCell>
        <mxCell id="evleP5VsPjODWGE9lHRX-573" value="&lt;b style=&quot;font-size: 16px;&quot;&gt;Dirección&lt;/b&gt;" style="rounded=0;whiteSpace=wrap;html=1;" vertex="1" parent="1">
          <mxGeometry x="40" y="4840" width="120" height="40" as="geometry" />
        </mxCell>
        <mxCell id="evleP5VsPjODWGE9lHRX-574" value="&lt;b style=&quot;font-size: 16px;&quot;&gt;Dirección&lt;/b&gt;" style="rounded=0;whiteSpace=wrap;html=1;" vertex="1" parent="1">
          <mxGeometry x="40" y="4880" width="120" height="40" as="geometry" />
        </mxCell>
        <mxCell id="evleP5VsPjODWGE9lHRX-575" value="&lt;b style=&quot;font-size: 16px;&quot;&gt;Dirección&lt;/b&gt;" style="rounded=0;whiteSpace=wrap;html=1;" vertex="1" parent="1">
          <mxGeometry x="40" y="4920" width="120" height="40" as="geometry" />
        </mxCell>
        <mxCell id="evleP5VsPjODWGE9lHRX-576" value="&lt;b style=&quot;font-size: 16px;&quot;&gt;Dirección&lt;/b&gt;" style="rounded=0;whiteSpace=wrap;html=1;" vertex="1" parent="1">
          <mxGeometry x="40" y="4960" width="120" height="40" as="geometry" />
        </mxCell>
        <mxCell id="evleP5VsPjODWGE9lHRX-577" value="&lt;b style=&quot;font-size: 16px;&quot;&gt;Dirección&lt;/b&gt;" style="rounded=0;whiteSpace=wrap;html=1;" vertex="1" parent="1">
          <mxGeometry x="40" y="5000" width="120" height="40" as="geometry" />
        </mxCell>
        <mxCell id="evleP5VsPjODWGE9lHRX-578" value="&lt;b style=&quot;font-size: 16px;&quot;&gt;Dirección&lt;/b&gt;" style="rounded=0;whiteSpace=wrap;html=1;" vertex="1" parent="1">
          <mxGeometry x="40" y="5040" width="120" height="40" as="geometry" />
        </mxCell>
        <mxCell id="evleP5VsPjODWGE9lHRX-579" value="&lt;b&gt;&lt;font style=&quot;font-size: 16px;&quot;&gt;000&lt;/font&gt;&lt;/b&gt;" style="text;html=1;align=center;verticalAlign=middle;whiteSpace=wrap;rounded=0;" vertex="1" parent="1">
          <mxGeometry y="4760" width="40" height="40" as="geometry" />
        </mxCell>
        <mxCell id="evleP5VsPjODWGE9lHRX-580" value="&lt;b&gt;&lt;font style=&quot;font-size: 16px;&quot;&gt;100&lt;/font&gt;&lt;/b&gt;" style="text;html=1;align=center;verticalAlign=middle;whiteSpace=wrap;rounded=0;" vertex="1" parent="1">
          <mxGeometry y="4800" width="40" height="40" as="geometry" />
        </mxCell>
        <mxCell id="evleP5VsPjODWGE9lHRX-581" value="&lt;b&gt;&lt;font style=&quot;font-size: 16px;&quot;&gt;010&lt;/font&gt;&lt;/b&gt;" style="text;html=1;align=center;verticalAlign=middle;whiteSpace=wrap;rounded=0;" vertex="1" parent="1">
          <mxGeometry y="4840" width="40" height="40" as="geometry" />
        </mxCell>
        <mxCell id="evleP5VsPjODWGE9lHRX-582" value="&lt;b&gt;&lt;font style=&quot;font-size: 16px;&quot;&gt;110&lt;/font&gt;&lt;/b&gt;" style="text;html=1;align=center;verticalAlign=middle;whiteSpace=wrap;rounded=0;" vertex="1" parent="1">
          <mxGeometry y="4880" width="40" height="40" as="geometry" />
        </mxCell>
        <mxCell id="evleP5VsPjODWGE9lHRX-583" value="&lt;b&gt;&lt;font style=&quot;font-size: 16px;&quot;&gt;001&lt;/font&gt;&lt;/b&gt;" style="text;html=1;align=center;verticalAlign=middle;whiteSpace=wrap;rounded=0;" vertex="1" parent="1">
          <mxGeometry y="4920" width="40" height="40" as="geometry" />
        </mxCell>
        <mxCell id="evleP5VsPjODWGE9lHRX-584" value="&lt;b&gt;&lt;font style=&quot;font-size: 16px;&quot;&gt;101&lt;/font&gt;&lt;/b&gt;" style="text;html=1;align=center;verticalAlign=middle;whiteSpace=wrap;rounded=0;" vertex="1" parent="1">
          <mxGeometry y="4960" width="40" height="40" as="geometry" />
        </mxCell>
        <mxCell id="evleP5VsPjODWGE9lHRX-585" value="&lt;b&gt;&lt;font style=&quot;font-size: 16px;&quot;&gt;011&lt;/font&gt;&lt;/b&gt;" style="text;html=1;align=center;verticalAlign=middle;whiteSpace=wrap;rounded=0;" vertex="1" parent="1">
          <mxGeometry y="5000" width="40" height="40" as="geometry" />
        </mxCell>
        <mxCell id="evleP5VsPjODWGE9lHRX-586" value="&lt;b&gt;&lt;font style=&quot;font-size: 16px;&quot;&gt;111&lt;/font&gt;&lt;/b&gt;" style="text;html=1;align=center;verticalAlign=middle;whiteSpace=wrap;rounded=0;" vertex="1" parent="1">
          <mxGeometry y="5040" width="40" height="40" as="geometry" />
        </mxCell>
      </root>
    </mxGraphModel>
  </diagram>
</mxfile>
